<?xml version="1.0" encoding="UTF-8" standalone="no"?>
<!-- Created with Inkscape (http://www.inkscape.org/) -->

<svg
   xmlns:dc="http://purl.org/dc/elements/1.1/"
   xmlns:cc="http://creativecommons.org/ns#"
   xmlns:rdf="http://www.w3.org/1999/02/22-rdf-syntax-ns#"
   xmlns:svg="http://www.w3.org/2000/svg"
   xmlns="http://www.w3.org/2000/svg"
   xmlns:sodipodi="http://sodipodi.sourceforge.net/DTD/sodipodi-0.dtd"
   xmlns:inkscape="http://www.inkscape.org/namespaces/inkscape"
   id="svg4820"
   version="1.1"
   inkscape:version="0.91 r13725"
   xml:space="preserve"
   width="608.91388"
   height="216.83156"
   viewBox="0 0 608.91388 216.83156"
   sodipodi:docname="TAIAO.svg"><metadata
     id="metadata4826"><rdf:RDF><cc:Work
         rdf:about=""><dc:format>image/svg+xml</dc:format><dc:type
           rdf:resource="http://purl.org/dc/dcmitype/StillImage" /><dc:title></dc:title></cc:Work></rdf:RDF></metadata><defs
     id="defs4824"><clipPath
       clipPathUnits="userSpaceOnUse"
       id="clipPath4836"><path
         d="m 0,-0.1090578 1024.036,0 0,768.1090978 -1024.036,0 0,-768.1090978 z"
         id="path4838"
         inkscape:connector-curvature="0" /></clipPath></defs><sodipodi:namedview
     pagecolor="#ffffff"
     bordercolor="#666666"
     borderopacity="1"
     objecttolerance="10"
     gridtolerance="10"
     guidetolerance="10"
     inkscape:pageopacity="0"
     inkscape:pageshadow="2"
     inkscape:window-width="1360"
     inkscape:window-height="704"
     id="namedview4822"
     showgrid="false"
     fit-margin-top="0"
     fit-margin-left="0"
     fit-margin-right="0"
     fit-margin-bottom="0"
     inkscape:zoom="0.68942911"
     inkscape:cx="601.96264"
     inkscape:cy="143.38003"
     inkscape:window-x="0"
     inkscape:window-y="27"
     inkscape:window-maximized="1"
     inkscape:current-layer="g4828" /><g
     id="g4828"
     inkscape:groupmode="layer"
     inkscape:label="Pre-TAIAO 1"
     transform="matrix(1.25,0,0,-1.25,-662.03915,846.97502)"><g
       id="g5445"
       transform="matrix(0.92641648,0,0,0.92641648,61.372137,41.858724)"><g
         id="g4830" /><path
         style="fill:#d0e6a7"
         d="m 594.38697,515.03111 c -11.48935,11.76526 -12.74884,13.6679 -11.3243,17.10692 0.40242,0.9715 1.31569,2.29538 2.02949,2.94195 2.40196,2.17577 19.84013,11.50385 21.50561,11.50385 2.03985,0 20.36904,-10.37066 22.0051,-12.45049 1.69219,-2.15119 2.01467,-4.05737 1.07689,-6.36542 -1.23028,-3.02797 -21.4993,-23.65315 -23.2447,-23.65315 -1.01143,0 -4.27853,2.9602 -12.04809,10.91634 z m 128.99428,12.51217 c -2.37186,1.86563 -3.29817,4.61065 -3.29817,9.77375 0,4.96079 1.26501,8.40912 3.71417,10.12451 1.70203,1.1921 4.30898,1.20265 5.48947,0.0222 1.23046,-1.23041 0.55924,-2.86413 -1.00833,-2.45422 -3.93761,1.02967 -6.42525,-5.66992 -4.57672,-12.32579 0.59219,-2.13224 2.37772,-3.83068 3.18183,-3.02662 0.20775,0.20776 0.37773,1.56933 0.37773,3.02574 0,2.14496 -0.22727,2.70744 -1.19635,2.96085 -0.658,0.17206 -1.19636,0.79061 -1.19636,1.37454 0,1.32642 2.57659,2.05335 4.19953,1.18483 1.03623,-0.55456 1.18408,-1.26329 1.18408,-5.67592 0,-4.37291 -0.15359,-5.12442 -1.15703,-5.66143 -1.82666,-0.97756 -3.92615,-0.72861 -5.71385,0.67754 z m 9.41314,-0.9006 c -0.55776,0.22505 -0.74772,2.93215 -0.74772,10.65558 0,11.50065 -0.15895,11.08004 4.18726,11.08004 2.8594,0 4.18725,-0.48784 4.18725,-1.53835 0,-1.05179 -1.89064,-2.05059 -3.88161,-2.05059 -1.49686,0 -1.55933,-0.12812 -1.38523,-2.84124 0.17628,-2.74712 0.25167,-2.85114 2.27595,-3.14032 1.59514,-0.22786 2.09362,-0.58391 2.09362,-1.49539 0,-0.91147 -0.49848,-1.26752 -2.09362,-1.49538 -2.02428,-0.28918 -2.09967,-0.3932 -2.27595,-3.14032 -0.17182,-2.67757 -0.0965,-2.84124 1.30696,-2.84124 0.81911,0 2.17976,-0.26251 3.02367,-0.58335 1.07387,-0.40827 1.53439,-0.38478 1.53439,0.0783 0,0.42846 0.77719,0.5355 2.20535,0.30375 2.37302,-0.38507 3.77909,0.33041 3.77227,1.9195 -0.002,0.53545 -1.3482,2.94592 -2.9909,5.35661 -3.53072,5.18142 -3.88612,7.63229 -1.45873,10.05958 1.30976,1.30971 1.88642,1.47802 4.03771,1.17851 3.02762,-0.4215 2.98991,-0.42156 6.5614,0.009 3.49217,0.42068 5.81829,-0.0984 5.81829,-1.29833 0,-0.49426 -0.67295,-1.20526 -1.49545,-1.58 -1.49307,-0.68027 -1.49545,-0.69488 -1.49545,-9.18535 0,-8.79428 -0.43443,-10.45748 -2.41278,-9.23737 -0.68327,0.42139 -0.94334,2.49672 -1.1763,9.38674 l -0.29909,8.84574 -3.5239,0 c -5.29353,0 -5.51995,-0.89046 -1.67395,-6.58315 3.676,-5.44106 4.1117,-8.31492 1.63596,-10.79055 -1.66807,-1.66801 -4.7917,-1.97238 -6.60853,-0.64394 -0.95768,0.70025 -1.25131,0.70025 -1.95159,0 -0.79445,-0.79441 -5.55667,-1.07879 -7.16928,-0.42812 z m 27.48635,0.32164 c -0.49914,0.49912 -0.71781,3.66571 -0.71781,10.39449 0,7.87178 0.16736,9.81558 0.89727,10.42133 0.71585,0.59408 1.07868,0.59408 1.79453,0 0.72992,-0.60575 0.89727,-2.54955 0.89727,-10.42133 0,-9.12158 -0.32148,-11.11228 -1.79453,-11.11228 -0.1974,0 -0.68193,0.32301 -1.07673,0.71779 z m 6.78146,0.7012 c -1.79152,1.79145 -2.70717,5.05431 -2.70717,9.64689 0,4.71399 0.9376,7.91477 2.89108,9.86965 0.87373,0.87436 1.85778,2.34812 2.18678,3.27503 0.76088,2.1437 2.3863,3.2512 3.35295,2.2846 0.70661,-0.70659 0.53363,-1.42445 -0.80688,-3.34857 -0.62769,-0.90096 -0.57903,-1.17692 0.29529,-1.67466 0.57576,-0.32776 1.51288,-1.45736 2.08249,-2.51021 1.47599,-2.72816 1.47193,-13.07079 -0.006,-15.80367 -1.83996,-3.40185 -4.8962,-4.1311 -7.28834,-1.73906 z m 5.0625,9.58007 c 0,4.14765 -0.24262,5.82949 -0.99613,6.90524 l -0.99614,1.42212 -1.09749,-1.35529 c -1.52243,-1.88006 -1.59422,-11.61241 -0.10137,-13.74366 l 0.99614,-1.42212 1.09749,1.35529 c 0.88615,1.09431 1.0975,2.41117 1.0975,6.83842 z m 5.53316,-10.56981 c -1.15419,0.41461 -1.06647,20.85406 0.0914,21.29836 1.41207,0.54184 2.52416,-0.89399 4.31986,-5.5774 l 1.72008,-4.48617 0.15036,2.99078 c 0.28827,5.73367 0.6777,6.97261 2.12688,6.76639 1.28146,-0.18235 1.31565,-0.41337 1.47653,-9.9767 0.17314,-10.292 -0.17028,-11.96379 -2.23111,-10.86091 -0.57394,0.30715 -1.79496,2.65673 -2.71338,5.22129 -0.91841,2.56456 -1.90105,4.91855 -2.18364,5.23109 -0.29053,0.3213 -0.51381,-1.66142 -0.51381,-4.56247 0,-5.12851 -0.56376,-6.64757 -2.24317,-6.04426 z m 33.94918,1.2707 c -0.93501,0.93497 -2.02205,2.88645 -2.41565,4.33663 -0.87898,3.23853 -0.40623,9.94615 0.87572,12.42507 1.70501,3.297 5.28971,4.73845 6.91473,2.7805 1.05594,-1.27228 0.29655,-2.69932 -1.43644,-2.69932 -2.43584,0 -3.34268,-2.02842 -3.34268,-7.47695 0,-5.44852 0.90684,-7.47694 3.34268,-7.47694 1.73299,0 2.49238,-1.42704 1.43644,-2.69932 -1.16385,-1.40229 -3.51686,-1.04754 -5.3748,0.81033 z m 9.41882,-1.05387 c -2.26586,1.31968 -3.11762,4.15587 -3.12929,10.4198 -0.009,4.96845 0.19684,6.3356 1.21682,8.07182 2.28839,3.89531 6.35185,3.83721 8.41514,-0.12032 1.30677,-2.50647 1.7826,-10.09973 0.84931,-13.55319 -1.20179,-4.44701 -4.39553,-6.54002 -7.35198,-4.81811 z m 4.38991,6.43411 c 0.53077,2.51622 0.54872,4.37244 0.0698,7.21669 -0.73865,4.38657 -1.70776,5.44915 -3.26331,3.57809 -1.41712,-1.70456 -1.51412,-11.55824 -0.13317,-13.52973 1.38292,-1.97432 2.53274,-1.02904 3.32671,2.73495 z m 5.40341,-6.31566 c -0.44067,0.44065 -0.67107,3.99344 -0.67107,10.34775 0,7.87178 0.16736,9.81558 0.89727,10.42133 1.37586,1.14182 2.31325,-0.0119 4.2602,-5.24353 l 1.72159,-4.62604 0.33153,4.67757 c 0.34053,4.8045 1.21194,6.39322 2.78885,5.08454 1.12201,-0.93115 1.09561,-19.8113 -0.029,-20.74461 -1.31543,-1.09166 -2.51796,0.41159 -4.3594,5.44956 -0.93192,2.54964 -1.9027,4.63571 -2.15727,4.63571 -0.25458,0 -0.46287,-2.25915 -0.46287,-5.02033 0,-3.71343 -0.2146,-5.10268 -0.82437,-5.33666 -0.45341,-0.17398 -1.12636,-0.0144 -1.49545,0.35471 z m 12.33933,-0.11846 c -0.57575,0.33533 -1.04681,1.16987 -1.04681,1.85454 0,1.10064 0.25548,1.2034 2.20535,0.88699 2.26706,-0.36788 3.77644,0.32099 3.77644,1.72352 0,0.42765 -1.34402,2.74993 -2.98671,5.16062 -3.54075,5.19612 -3.94835,7.97039 -1.52682,10.39182 2.51761,2.51752 7.74575,1.52782 6.67458,-1.26351 -0.26779,-0.6978 -0.82002,-0.85267 -2.06524,-0.57918 -1.17939,0.25902 -1.94174,0.0817 -2.4903,-0.57925 -0.92798,-1.1181 -0.16511,-2.90186 3.28868,-7.68966 2.6351,-3.65289 2.85667,-6.85562 0.62845,-9.08375 -1.56521,-1.56516 -4.53313,-1.94301 -6.45762,-0.82214 z m 11.46312,0.12065 c -1.99434,1.53114 -2.34088,3.3062 -2.34088,11.99031 0,6.79597 0.17659,8.71635 0.82437,8.96492 1.75181,0.6722 2.16653,-0.99727 2.16653,-8.72147 0,-7.69169 0.48483,-10.0097 2.09362,-10.0097 1.6088,0 2.09363,2.31801 2.09363,10.0097 0,7.7242 0.41472,9.39367 2.16653,8.72147 1.07961,-0.41427 1.19172,-16.9238 0.12848,-18.92003 -1.02126,-1.91742 -2.3653,-2.76387 -4.38864,-2.76387 -0.98699,0 -2.22163,0.32791 -2.74364,0.72867 z m 10.34052,-0.0489 c -0.49885,0.49883 -0.71781,3.6554 -0.71781,10.34809 0,9.67512 0.34179,11.35625 2.16652,10.65607 0.64932,-0.24916 0.82438,-2.20802 0.82438,-9.22467 0,-8.60407 0.0422,-8.90834 1.23568,-8.90834 2.82334,0 4.75928,-2.39867 2.60356,-3.22586 -1.61009,-0.61783 -5.35721,-0.40037 -6.11233,0.35471 z m 9.43118,-0.10839 c -0.69087,0.42605 -0.91859,2.40263 -1.07199,9.30503 -0.17909,8.05763 -0.28758,8.78832 -1.34591,9.06507 -1.38768,0.36287 -1.52863,2.28126 -0.20492,2.78919 0.5204,0.1997 2.11347,0.36308 3.54015,0.36308 1.42668,0 3.01975,-0.16338 3.54015,-0.36308 1.42336,-0.54617 1.13803,-1.96779 -0.54925,-2.73654 -1.49307,-0.68026 -1.49545,-0.69487 -1.49545,-9.18535 0,-8.79424 -0.43442,-10.45744 -2.41278,-9.2374 z m 7.6197,0.92673 c -3.58423,3.58409 -3.652,15.23536 -0.11084,19.05619 2.76287,2.98106 6.74375,1.357 8.07815,-3.29561 0.76373,-2.66286 0.74206,-9.82443 -0.0382,-12.63379 -0.69111,-2.4883 -3.05077,-4.66292 -5.05969,-4.66292 -0.73326,0 -2.02449,0.69126 -2.8694,1.53613 z m 4.77882,3.8922 c 1.51706,4.35302 0.44065,13.41358 -1.59356,13.41358 -1.7117,0 -2.45837,-2.76029 -2.28123,-8.43318 0.22734,-7.28096 2.19266,-9.80705 3.87479,-4.9804 z m 5.68656,-4.71054 c -0.49914,0.49912 -0.71781,3.66571 -0.71781,10.39449 0,11.07799 0.12918,11.40032 4.34252,10.83533 5.23444,-0.70191 7.41922,-6.09068 4.54364,-11.20688 l -1.28289,-2.2825 1.34955,-3.32494 c 1.64502,-4.05292 1.21211,-6.06272 -1.00272,-4.65518 -0.39792,0.25288 -1.4736,2.06566 -2.39039,4.02839 l -1.6669,3.56861 -0.18768,-3.27173 c -0.24227,-4.22317 -1.34353,-5.72931 -2.98732,-4.08559 z m 5.63041,12.16139 c 1.33275,2.03395 0.49598,5.27761 -1.4332,5.55571 -1.2445,0.1794 -1.32595,-0.0319 -1.32595,-3.43939 0,-4.06939 0.98457,-4.82457 2.75915,-2.11632 z m 5.63019,-11.9998 c -0.5334,0.64268 -0.67002,3.74184 -0.50759,11.51449 0.18176,8.69707 0.41322,10.98939 1.27014,12.57914 0.63767,1.18298 1.51021,1.944 2.22888,1.944 1.33778,0 1.52534,-1.22973 0.48425,-3.17495 -0.47067,-0.87942 -0.65014,-4.66243 -0.55311,-11.65866 0.10199,-7.35326 -0.0641,-10.60718 -0.57285,-11.22011 -0.90603,-1.09165 -1.43334,-1.08804 -2.34972,0.0161 z m 4.75055,-0.26825 c -0.75521,0.46723 -0.59836,1.8975 1.12779,10.28398 2.0104,9.76746 2.53719,11.23666 4.02899,11.23666 1.27709,0 1.7829,-1.50749 3.87879,-11.56015 1.61233,-7.73331 1.82642,-9.55762 1.16924,-9.96376 -1.32474,-0.8187 -2.28064,-0.0483 -2.82734,2.27869 -0.44263,1.88397 -0.78085,2.22377 -2.36877,2.3798 -1.68827,0.16588 -1.88675,-0.001 -2.24,-1.88391 -0.46295,-2.46765 -1.5312,-3.5369 -2.7687,-2.77131 z m 5.71179,8.3758 c 0.54146,0.87607 -0.29689,4.25004 -0.95497,3.84334 -0.72454,-0.44777 -0.71251,-4.45609 0.0133,-4.45609 0.30958,0 0.73331,0.27574 0.9416,0.61275 z m 19.52162,-8.44446 c -0.44411,0.27456 -0.99197,1.4088 -1.21748,2.52053 -0.34791,1.71512 -0.69115,2.04896 -2.26578,2.20375 -1.70626,0.16773 -1.89894,-0.001 -2.39167,-2.09354 -0.3972,-1.68686 -0.87909,-2.32545 -1.86174,-2.46711 -1.76446,-0.25438 -1.73294,0.46797 0.48595,11.13739 1.82021,8.75236 2.41094,10.28828 3.95699,10.28828 1.20653,0 1.73924,-1.62986 3.79841,-11.62162 1.49913,-7.27424 1.69781,-9.0724 1.07157,-9.6984 -0.46169,-0.4615 -1.09134,-0.56907 -1.57625,-0.26928 z m -2.81959,8.36843 c 0.49062,0.79381 -0.34713,4.40542 -0.8901,3.8373 -0.41969,-0.43914 -0.8002,-2.79657 -0.63359,-3.9254 0.0919,-0.62242 1.12134,-0.56289 1.52369,0.0881 z m 15.9608,-8.09931 c -0.33801,0.40727 -0.69416,2.8811 -0.79145,5.49739 l -0.17689,4.7569 -1.01629,-2.24308 c -0.55896,-1.2337 -1.32086,-2.24308 -1.69312,-2.24308 -0.37225,0 -1.12623,1.14397 -1.67552,2.54216 l -0.99869,2.54216 -0.29909,-5.3834 c -0.27317,-4.91703 -0.40893,-5.39907 -1.56702,-5.56433 -1.7474,-0.24934 -2.00572,1.08355 -2.00572,10.34957 0,8.58761 0.24849,10.21182 1.64426,10.74741 1.30846,0.50208 2.21462,-0.64803 3.40153,-4.31723 0.5587,-1.72718 1.24173,-3.14032 1.51785,-3.14032 0.27612,0 0.95915,1.41314 1.51785,3.14032 1.20064,3.71166 2.09313,4.81929 3.46048,4.29461 0.88562,-0.33983 1.00347,-1.59935 1.00347,-10.72479 0,-8.40361 -0.15983,-10.40106 -0.85354,-10.66725 -0.46944,-0.18013 -1.13009,0.006 -1.46811,0.41296 z m 4.77245,0.0157 c -0.4704,0.56679 -0.63472,3.88931 -0.52187,10.55287 0.18507,10.92888 0.31684,11.249 4.32114,10.49782 3.28153,-0.61559 5.11534,-2.69591 5.11534,-5.80297 0,-1.47977 -0.39828,-2.96233 -0.96361,-3.58699 -0.8902,-0.98362 -0.86741,-1.18702 0.29909,-2.66992 1.50821,-1.91731 1.63233,-4.83707 0.28725,-6.75736 -1.80059,-2.5706 -7.10565,-3.95845 -8.53734,-2.23345 z m 4.97752,3.12477 c 1.13199,0.43437 1.29062,3.83849 0.22837,4.9007 -1.52858,1.52852 -2.27308,0.78406 -2.27308,-2.273 0,-2.9837 0.25682,-3.31375 2.04471,-2.6277 z m 0.22837,9.92519 c 1.48123,1.48117 0.46054,4.66561 -1.49544,4.66561 -0.52285,0 -0.77764,-0.8819 -0.77764,-2.6917 0,-2.76048 0.79559,-3.45135 2.27308,-1.97391 z m 6.25098,-13.44018 c -0.55933,0.1951 -0.74772,2.86946 -0.74772,10.61469 0,10.49156 0.18334,11.36148 2.24317,10.643 0.55933,-0.1951 0.74772,-2.86946 0.74772,-10.61469 0,-10.49156 -0.18334,-11.36148 -2.24317,-10.643 z m 4.78105,0.25523 c -1.02979,1.02975 -1.05278,19.69449 -0.0255,20.72171 0.75098,0.75095 5.08136,0.97985 6.7105,0.35471 0.52041,-0.19969 0.94619,-0.86943 0.94619,-1.48832 0,-0.85253 -0.58703,-1.21911 -2.42217,-1.51255 l -2.42218,-0.38731 0.179,-2.76008 c 0.16694,-2.57408 0.29981,-2.77379 1.9716,-2.96359 3.35046,-0.38038 3.02572,-3.08634 -0.37038,-3.08634 -1.66075,0 -1.7213,-0.10252 -1.7213,-2.91433 l 0,-2.91433 2.43256,-0.38897 c 2.08323,-0.33311 2.40537,-0.58031 2.24317,-1.72138 -0.16598,-1.16777 -0.59645,-1.35404 -3.48376,-1.50746 -2.04616,-0.10874 -3.57602,0.10657 -4.03771,0.56824 z m 17.02186,0.17152 c -0.44714,0.44712 -1.59895,2.92551 -2.55957,5.50752 l -1.74659,4.69457 -0.14914,-3.28985 c -0.27169,-5.99344 -0.65761,-7.27472 -2.1281,-7.06547 -1.28251,0.1825 -1.31549,0.40874 -1.47546,10.12086 -0.13924,8.45369 -0.0229,10.05094 0.78034,10.71757 1.37825,1.1438 2.79684,-0.60659 4.49664,-5.54832 0.76382,-2.22065 1.60817,-4.03755 1.87633,-4.03755 0.26816,0 0.48756,2.12456 0.48756,4.72125 0,4.97808 0.79601,6.36044 2.61509,4.54142 0.74145,-0.74142 0.95524,-0.73457 1.60765,0.0515 0.5555,0.66931 1.7063,0.86067 4.3962,0.73102 3.18989,-0.15374 3.66627,-0.33354 3.82467,-1.4435 0.12346,-0.86519 -0.20901,-1.36984 -1.04682,-1.58893 -1.15725,-0.30261 -1.22821,-0.76212 -1.23591,-8.00353 -0.01,-9.17589 -0.2707,-10.50477 -2.01389,-10.25603 -1.21682,0.17363 -1.27458,0.53296 -1.43295,8.91476 -0.16413,8.68608 -0.17328,8.7376 -1.67314,9.42096 -0.82947,0.3779 -1.63004,0.6871 -1.77906,0.6871 -0.14902,0 -0.27095,-4.27792 -0.27095,-9.50649 0,-7.81531 -0.15654,-9.56657 -0.87995,-9.84416 -0.48398,-0.18571 -1.24581,0.0282 -1.69295,0.4753 z m 12.29332,-0.43454 c -1.09198,0.39227 -0.94927,1.88172 1.10353,11.51744 1.87384,8.79575 2.40824,10.18508 3.91754,10.18508 1.2079,0 1.7487,-1.63819 3.8286,-11.59672 1.5454,-7.39889 1.7257,-9.0392 1.0663,-9.69839 -1.1271,-1.12659 -2.3315,-0.17522 -2.8187,2.22634 -0.3498,1.72482 -0.6871,2.04845 -2.2992,2.20625 -1.7373,0.17005 -1.921,0.0154 -2.28464,-1.9227 -0.4292,-2.28776 -1.33601,-3.34028 -2.51343,-2.9173 z m 5.49517,8.48165 c 0.4906,0.79381 -0.3471,4.40542 -0.8901,3.8373 -0.4197,-0.43914 -0.8002,-2.79657 -0.6336,-3.9254 0.092,-0.62242 1.1214,-0.56289 1.5237,0.0881 z m 6.9171,-8.3254 c -1.3129,0.82987 -1.3314,20.12533 -0.02,20.93571 1.9826,1.22529 2.4128,-0.43843 2.4128,-9.33225 0,-8.58475 0,-8.60002 1.3811,-8.60002 0.7596,0 1.8935,-0.37463 2.5197,-0.83251 0.9673,-0.70733 1.0185,-0.97715 0.3402,-1.79447 -0.8884,-1.07037 -5.1531,-1.3124 -6.6337,-0.37646 z m -212.55316,0.41143 c -0.21933,0.21932 -0.39135,2.1708 -0.38228,4.33663 0.0121,2.89311 -0.50366,5.49066 -1.94408,9.79071 -1.63083,4.86843 -1.8188,5.94065 -1.11756,6.37483 1.42294,0.88106 2.34318,0.0575 3.36157,-3.00847 0.53684,-1.61622 1.20198,-2.93858 1.4781,-2.93858 0.27612,0 0.94127,1.32236 1.47811,2.93858 1.00171,3.01573 1.93932,3.88843 3.2845,3.05709 0.59766,-0.36935 0.35574,-1.70461 -1.10106,-6.07723 -1.17377,-3.52308 -1.87004,-6.82489 -1.87517,-8.89225 -0.005,-1.80861 -0.17048,-3.89401 -0.36886,-4.63423 -0.34135,-1.2737 -1.94631,-1.81401 -2.81327,-0.94708 z m -214.19228,18.1566 c -1.51112,1.39284 -2.74748,2.89058 -2.74748,3.32831 0,0.43773 1.03504,1.88388 2.30009,3.21367 1.75884,1.84885 2.75367,2.41781 4.22751,2.41781 2.45551,0 9.59586,-4.08899 9.61178,-5.50429 0.0128,-1.13947 -6.31881,-5.12285 -8.99294,-5.65765 -1.34784,-0.26956 -2.15663,0.13532 -4.39896,2.20215 z m 36.5484,0.0604 c -2.78761,1.65508 -4.01217,2.72909 -3.88204,3.40477 0.20649,1.07216 6.65746,5.22147 9.05231,5.82252 1.15981,0.29108 2.01371,-0.1123 3.96024,-1.87081 4.0377,-3.64766 4.10452,-4.10676 1.04327,-7.16788 -3.35542,-3.3553 -4.79525,-3.38199 -10.17378,-0.1886 z m -24.64048,11.15277 c -13.36834,7.65332 -13.07683,7.13938 -10.53431,18.57246 2.43194,10.9358 5.10156,26.99368 6.35447,38.22238 l 1.01563,9.10219 -1.3167,2.71984 c -0.89786,1.85464 -2.10714,3.17605 -3.80152,4.15397 -1.50711,0.86984 -11.66404,3.83463 -25.81381,7.53499 -12.83095,3.35546 -24.04502,6.46907 -24.92015,6.91911 -2.48589,1.27839 -5.17644,4.96945 -5.81287,7.97449 -0.71356,3.36917 -0.2628,5.90842 2.34432,13.20602 1.64819,4.61342 2.55503,6.2091 4.82028,8.48167 3.00164,3.01136 6.6081,4.45085 9.63458,3.84558 0.93362,-0.18672 14.00659,-4.68591 29.05104,-9.99822 21.66277,-7.64927 27.97579,-9.65445 30.34445,-9.63816 2.29882,0.0158 9.53426,2.31714 31.26882,9.94549 15.55286,5.4587 29.08784,9.92492 30.07773,9.92492 2.4269,0 5.8785,-1.50752 7.9475,-3.47113 2.0671,-1.9618 3.39578,-4.47734 5.80677,-10.99372 3.05967,-8.26957 2.2743,-14.09133 -2.43556,-18.05426 -2.15644,-1.81444 -1.51339,-1.61803 -29.45222,-8.99581 -11.80626,-3.11767 -22.30696,-6.21501 -23.4361,-6.91283 -1.19383,-0.73779 -2.59659,-2.4021 -3.36846,-3.9965 l -1.32269,-2.73222 1.03872,-9.0588 c 1.37275,-11.97193 3.48595,-24.80197 6.04578,-36.70629 2.91305,-13.54697 3.51691,-12.46761 -11.75307,-21.00793 -4.79849,-2.68374 -9.37456,-4.87491 -10.16905,-4.86925 -0.7945,0.005 -6.02061,2.63006 -11.61358,5.83201 z m 376.85308,5.30882 c -13.39383,2.83062 -24.20499,13.50558 -27.00379,26.66356 -3.54377,16.66036 5.80108,33.52642 21.91926,39.56102 10.39883,3.89329 20.71306,3.38683 31.0289,-1.5236 11.61877,-5.53063 19.20047,-17.64979 19.20047,-30.69133 0,-22.67095 -21.64392,-38.9763 -45.14484,-34.00965 z m 11.96359,20.61322 c 7.07425,1.9323 10.89249,9.92871 8.63046,18.07447 -0.77331,2.78474 -4.35037,6.8796 -6.96625,7.97467 -1.05869,0.44318 -3.28807,0.80579 -4.9542,0.80579 -3.98559,0 -6.39719,-1.07758 -9.09005,-4.06175 -6.64453,-7.36331 -3.33515,-20.05972 5.95801,-22.85782 2.31403,-0.69674 3.68511,-0.68294 6.42203,0.0646 z M 739.22482,562.72094 c -0.7633,0.48212 -0.94192,3.98613 -1.19635,23.46845 l -0.29909,22.90171 -9.27179,0.29908 -9.27178,0.29908 0,9.57049 0,9.57049 30.80625,0 30.80624,0 0,-9.57049 0,-9.57049 -9.27178,-0.29908 -9.27179,-0.29908 -0.29908,-22.90171 c -0.25444,-19.48232 -0.43306,-22.98633 -1.19636,-23.46845 -0.4935,-0.31171 -5.33876,-0.56674 -10.76723,-0.56674 -5.42848,0 -10.27374,0.25503 -10.76724,0.56674 z m 32.96752,-0.0414 c -0.48789,0.30896 -0.70923,1.10595 -0.53735,1.93484 0.37385,1.80289 26.13796,63.36773 26.9361,64.36537 0.43922,0.549 3.49995,0.74769 11.518,0.74769 8.01151,0 11.08242,-0.19914 11.5303,-0.74769 0.98823,-1.21035 27.05228,-63.88753 27.05228,-65.05357 0,-0.58529 -0.42578,-1.22755 -0.94619,-1.42724 -1.91402,-0.73445 -22.10599,-0.39905 -23.15505,0.38462 -0.55049,0.41123 -1.65378,2.36272 -2.45175,4.33663 l -1.45085,3.58894 -10.76516,0.16281 -10.76516,0.16281 -1.58544,-4.14889 c -0.87199,-2.28188 -1.99655,-4.30663 -2.49901,-4.49944 -1.45871,-0.55973 -21.96518,-0.38664 -22.88072,0.19314 z m 41.80492,26.49276 c 0,1.52714 -3.79544,10.67994 -4.24128,10.22796 -0.41726,-0.42299 -4.13323,-10.03135 -4.13323,-10.68727 0,-0.14205 1.88426,-0.25827 4.18725,-0.25827 2.85732,0 4.18726,0.22792 4.18726,0.71758 z m 37.15518,-26.22119 c -0.48934,0.58959 -0.63378,9.81939 -0.52188,33.34718 l 0.15474,32.53194 11.36541,0 11.36541,0 0.15471,-32.86007 c 0.1219,-25.89177 -0.005,-32.96143 -0.59818,-33.33803 -0.41409,-0.26287 -5.3633,-0.48207 -10.99824,-0.4871 -7.92798,-0.007 -10.3984,0.17524 -10.92197,0.80608 z m 25.12314,-0.27155 c -0.48989,0.31023 -0.70829,1.10256 -0.53332,1.93484 0.38047,1.80983 26.14114,63.37172 26.93379,64.36537 0.438,0.54907 3.4973,0.7477 11.51628,0.7477 8.00997,0 11.08327,-0.19924 11.53316,-0.7477 1.29956,-1.58426 27.09282,-64.15076 26.92628,-65.31486 -0.16957,-1.18533 -0.58907,-1.23584 -11.55954,-1.39196 -8.48302,-0.12072 -11.64497,0.0317 -12.40938,0.59816 -0.56417,0.41808 -1.64863,2.37517 -2.40989,4.34908 l -1.38413,3.58894 -10.82405,0.16281 -10.82404,0.16281 -1.58544,-4.14889 c -0.87199,-2.28188 -1.99655,-4.30663 -2.49901,-4.49944 -1.45871,-0.55973 -21.96518,-0.38664 -22.88071,0.19314 z m 41.80491,26.49274 c 0,1.52714 -3.79544,10.67994 -4.24128,10.22796 -0.41726,-0.42299 -4.13323,-10.03135 -4.13323,-10.68727 0,-0.14205 1.88427,-0.25827 4.18726,-0.25827 2.85731,0 4.18725,0.22792 4.18725,0.71758 z m -381.42016,17.77685 c -1.17771,0.7181 -2.24419,2.10941 -2.86706,3.74032 -0.91085,2.38493 -0.91785,3.1942 -0.0857,9.91548 0.51164,4.13258 1.30771,7.9315 1.82864,8.72652 1.14242,1.74349 3.35351,2.7911 5.86889,2.78068 3.17753,-0.0132 36.72602,-9.21115 38.08626,-10.44211 1.80503,-1.63346 2.51902,-4.97393 1.83455,-8.58301 -1.37052,-7.22638 -1.57077,-7.28631 -24.33714,-7.28356 -17.11368,0.002 -18.58929,0.0852 -20.32844,1.14568 z m 98.09429,0.004 c -1.93572,1.1803 -2.86284,3.15752 -3.54119,7.55212 -0.45195,2.92797 0.81303,6.35057 2.83138,7.66069 1.75982,1.14246 34.90603,9.95395 37.44322,9.95395 2.49817,0 4.69991,-1.05828 5.84844,-2.81109 0.55391,-0.84533 1.29573,-4.49354 1.81363,-8.91923 0.83681,-7.15081 0.82424,-7.60663 -0.27828,-10.09898 -1.97055,-4.45457 -2.15551,-4.48987 -23.51196,-4.48732 -17.4039,0.002 -18.85542,0.0831 -20.60524,1.15002 z"
         id="path5433"
         inkscape:connector-curvature="0" /><path
         style="fill:#a0a0a0"
         d="m 594.31584,516.34737 c -10.12335,10.54305 -10.61768,11.16859 -10.61768,13.43594 0,1.61703 0.43071,2.86448 1.3459,3.89799 1.59591,1.80224 19.95526,12.30437 21.50995,12.30437 1.60827,0 20.08821,-10.71846 21.43769,-12.43397 0.71016,-0.90279 1.1681,-2.40969 1.1681,-3.84377 0,-2.23779 -0.53232,-2.91663 -10.37301,-13.2283 -8.28142,-8.67779 -10.72387,-10.9018 -12.11313,-11.02979 -1.54968,-0.14278 -2.90218,1.04989 -12.35782,10.89753 z m 130.61034,11.25383 c -2.62409,1.34852 -3.77742,3.62259 -4.09611,8.0765 -0.44197,6.17695 1.18017,10.29373 4.56609,11.58816 1.51745,0.58012 3.65961,0.17948 3.65961,-0.68444 0,-0.28597 -0.86624,-0.60429 -1.92499,-0.70739 -1.42067,-0.13833 -2.29556,-0.73591 -3.33948,-2.28098 -1.25522,-1.8578 -1.39209,-2.64384 -1.21546,-6.9805 0.1708,-4.19352 0.40482,-5.10592 1.64922,-6.43017 2.66162,-2.83239 4.23253,-1.83484 4.23253,2.68772 0,1.69083 -0.33139,2.54558 -1.19636,3.08574 -1.69062,1.05577 -1.48386,1.7682 0.44864,1.54584 1.61243,-0.18552 1.64853,-0.2778 1.8235,-4.66229 0.14742,-3.69405 -0.003,-4.60551 -0.86206,-5.23386 -1.28823,-0.94194 -1.9192,-0.94267 -3.74513,-0.004 z m 18.33636,-0.34418 c -0.57575,0.15044 -1.04682,0.65083 -1.04682,1.11196 0,0.61241 0.48335,0.74176 1.79306,0.47983 3.99718,-0.79941 4.79154,2.91065 1.53626,7.17513 -4.25872,5.579 -4.82005,7.92728 -2.45924,10.288 1.65389,1.65383 3.99588,1.91542 5.11172,0.57097 0.63726,-0.76782 0.44937,-0.89724 -1.30258,-0.89724 -4.02138,0 -4.58072,-2.65724 -1.42856,-6.78662 4.27801,-5.60429 4.9162,-8.4293 2.45923,-10.88616 -1.41376,-1.41371 -2.42097,-1.64178 -4.66307,-1.05587 z m 25.12352,0.23374 c -2.14427,1.24887 -3.06798,4.18476 -3.09017,9.82165 -0.0236,5.98185 0.98164,8.81333 3.54309,9.98036 3.39875,1.54851 5.90903,-2.69135 5.90903,-9.98036 0,-4.89299 -0.99952,-8.30604 -2.80219,-9.56863 -1.49194,-1.04496 -2.12301,-1.08981 -3.55976,-0.25302 z m 3.51788,2.67939 c 1.35087,2.0616 1.77517,9.39271 0.72157,12.4673 -1.12081,3.27075 -2.49638,4.01105 -4.23112,2.27709 -1.22194,-1.22138 -1.35422,-1.92406 -1.35422,-7.19359 0,-4.5826 0.22836,-6.18899 1.0606,-7.46089 1.32826,-2.02995 2.5136,-2.05798 3.80317,-0.0899 z m 49.45035,-2.42637 c -1.83115,1.28254 -2.78096,4.69096 -2.74978,9.86771 0.0435,7.22524 2.6976,11.42343 6.07813,9.6143 2.38964,-1.27885 3.33689,-4.09298 3.33689,-9.91338 0,-5.73721 -0.94758,-8.6347 -3.2219,-9.85184 -1.52149,-0.81424 -1.92369,-0.78116 -3.44334,0.28321 z m 3.76612,2.15449 c 0.96518,1.06646 1.13953,2.20084 1.13953,7.41414 0,5.21331 -0.17435,6.34769 -1.13953,7.41415 -1.52079,1.68039 -2.50641,1.58669 -3.78166,-0.35951 -1.51755,-2.31599 -1.51755,-11.79328 0,-14.10927 1.27525,-1.9462 2.26087,-2.0399 3.78166,-0.35951 z m 18.89694,-2.42257 c -1.90623,0.76449 -1.06612,1.80306 1.10695,1.36847 2.12691,-0.42536 3.56737,0.59304 3.56737,2.52212 0,0.76139 -1.22156,3.16854 -2.71457,5.34922 -1.49302,2.1807 -2.86599,4.72194 -3.05106,5.64722 -0.62029,3.10132 2.03518,5.88283 4.92408,5.1578 1.97535,-0.49576 1.81614,-1.53486 -0.23517,-1.53486 -1.98277,0 -3.11174,-0.96708 -3.10739,-2.66179 0.003,-1.20769 0.45347,-2.0158 3.75948,-6.74577 0.91794,-1.31332 1.8248,-3.34791 2.01522,-4.52131 0.28563,-1.76006 0.0768,-2.40285 -1.19317,-3.67277 -1.6175,-1.61744 -2.78307,-1.82619 -5.07174,-0.90833 z m 11.44642,0.08 c -2.15659,1.04259 -2.63463,3.26772 -2.45414,11.42339 0.23193,10.47996 1.28335,10.18271 1.66384,-0.47039 0.1645,-4.6058 0.51686,-8.71065 0.78303,-9.12188 0.26616,-0.41123 1.12511,-0.74769 1.90877,-0.74769 0.78367,0 1.64262,0.33646 1.90878,0.74769 0.26617,0.41123 0.61853,4.51608 0.78303,9.12188 0.38049,10.6531 1.43191,10.95035 1.66384,0.47039 0.18515,-8.36656 -0.35688,-10.69826 -2.69347,-11.5866 -1.72078,-0.65421 -1.88874,-0.64652 -3.56368,0.16321 z m 27.82125,-0.0921 c -1.96991,1.14951 -3.05766,5.51822 -2.78261,11.1758 0.3605,7.41525 2.71037,10.56763 6.1819,8.29309 2.0859,-1.36668 2.71492,-2.88322 3.09976,-7.47334 0.44048,-5.25386 -0.62055,-9.82526 -2.65119,-11.4225 -1.68497,-1.32535 -2.381,-1.42901 -3.84786,-0.57305 z m 4.01975,3.24987 c 0.49766,1.19102 0.86675,4.00104 0.86675,6.59892 0,5.32361 -1.13798,8.67326 -2.94659,8.67326 -1.74657,0 -2.89979,-2.16639 -3.34332,-6.28063 -0.39362,-3.65128 0.42061,-8.86273 1.60828,-10.29372 1.20624,-1.45337 2.90591,-0.8732 3.81488,1.30217 z m -154.3963,-2.49667 c -0.16336,0.42569 -0.22221,4.7997 -0.13077,9.72003 l 0.16624,8.94606 3.14044,0.18079 c 3.56708,0.20536 4.40065,-0.90152 0.89727,-1.19146 l -2.24317,-0.18565 0,-3.58893 0,-3.58893 1.98039,-0.19015 c 2.40739,-0.23114 2.25424,-1.47427 -0.2352,-1.90927 -1.69997,-0.29705 -1.74519,-0.39781 -1.74519,-3.88802 l 0,-3.58306 2.24317,-0.18565 c 3.32535,-0.2752 2.71991,-1.30974 -0.76649,-1.30974 -1.91043,0 -3.11816,0.28269 -3.30669,0.77398 z m 20.67266,8.20452 c 0,8.57513 -0.0663,9.09551 -1.19636,9.39102 -2.3217,0.60711 -1.15611,1.36962 2.09363,1.36962 3.23972,0 4.41729,-0.762 2.10997,-1.36535 -1.09756,-0.28701 -1.19162,-0.92594 -1.34591,-9.14253 -0.12044,-6.41391 -0.37071,-8.90202 -0.9136,-9.08245 -0.57625,-0.19151 -0.74773,1.83338 -0.74773,8.82969 z m 7.17816,0.89107 c 0,6.18095 0.22356,9.86957 0.59818,9.86957 0.37461,0 0.59818,-3.68862 0.59818,-9.86957 0,-6.18094 -0.22357,-9.86957 -0.59818,-9.86957 -0.37462,0 -0.59818,3.68863 -0.59818,9.86957 z m 17.02719,-9.1335 c -0.17136,0.44653 -0.23676,4.83761 -0.14532,9.75794 0.20615,11.09364 0.86717,11.6088 3.9985,3.11615 1.18224,-3.20645 2.41872,-5.89815 2.74772,-5.98156 0.36173,-0.0917 0.66556,2.27188 0.76864,5.97945 0.28255,10.16177 1.32498,7.18129 1.32498,-3.78832 0,-11.77385 -0.46469,-12.24598 -3.60064,-3.6583 -3.07958,8.43335 -3.57751,8.55476 -3.57751,0.8723 0,-3.62784 -0.25905,-6.52507 -0.6024,-6.73726 -0.33133,-0.20476 -0.74261,-0.007 -0.91397,0.4396 z m 20.05391,3.00241 c -0.004,2.69646 -0.5704,5.35372 -2.03085,9.53358 -1.11364,3.18731 -1.8736,5.94631 -1.68881,6.1311 0.81049,0.81046 1.31575,0.0946 2.54916,-3.61161 1.51696,-4.55831 2.15351,-4.4247 3.84593,0.80728 0.5587,1.72717 1.26337,3.14031 1.56593,3.14031 0.88476,0 0.65902,-1.24784 -1.24444,-6.87879 -1.24371,-3.67926 -1.79454,-6.46769 -1.79454,-9.08454 0,-2.11844 -0.26257,-3.77581 -0.59818,-3.77581 -0.33433,0 -0.60084,1.64895 -0.6042,3.73848 z m 14.23282,-2.6917 c -1.82149,2.08811 -2.26321,3.74778 -2.26321,8.50361 0,6.72711 1.4861,9.94621 4.76764,10.32738 1.77501,0.20618 2.31497,-1.17843 0.56092,-1.43836 -0.7262,-0.10761 -1.88573,-0.95561 -2.57673,-1.88445 -1.04133,-1.39972 -1.25638,-2.54404 -1.25638,-6.68539 0,-5.68308 1.2165,-8.21986 4.10701,-8.56443 0.87779,-0.10463 1.44094,-0.44109 1.25145,-0.74769 -0.58222,-0.94201 -3.62505,-0.61767 -4.5907,0.48933 z m 18.95124,-0.31071 c -0.17135,0.44653 -0.23675,4.83761 -0.14531,9.75794 0.20627,11.10034 0.89052,11.66174 4.03631,3.31159 2.89704,-7.68986 3.60717,-7.69931 3.60717,-0.048 0,4.59915 0.18223,6.02051 0.74772,5.83202 0.55643,-0.18547 0.74773,-2.68506 0.74773,-9.76988 0,-11.76088 -0.63928,-12.35061 -3.87505,-3.57467 -1.20579,3.27029 -2.50955,6.05171 -2.89726,6.18094 -0.50987,0.16995 -0.70493,-1.42424 -0.70493,-5.76113 0,-5.43438 -0.68234,-8.10219 -1.51638,-5.9288 z m 34.08169,0.0379 c -0.16336,0.42569 -0.22221,4.73309 -0.13077,9.57201 0.22315,11.81031 1.2695,11.88697 1.66169,0.12173 l 0.29909,-8.97234 1.94408,-0.18743 c 2.93278,-0.28276 2.33199,-1.30796 -0.7665,-1.30796 -1.66573,0 -2.82507,0.29835 -3.00759,0.77398 z m 9.30725,8.20451 c 0,8.57513 -0.0663,9.09551 -1.19636,9.39102 -2.3217,0.60711 -1.15611,1.36962 2.09363,1.36962 3.23972,0 4.41729,-0.762 2.10996,-1.36535 -1.09755,-0.28701 -1.19161,-0.92594 -1.3459,-9.14253 -0.12044,-6.41391 -0.37072,-8.90202 -0.91361,-9.08245 -0.57625,-0.19151 -0.74772,1.83338 -0.74772,8.82969 z m 18.54356,0.89107 0,9.86957 2.58754,0 c 5.03602,0 7.36831,-5.31421 4.30386,-9.80653 l -1.58913,-2.32958 1.49404,-3.44483 c 1.37828,-3.17792 1.46216,-4.1582 0.35582,-4.1582 -0.23366,0 -1.02719,1.41315 -1.7634,3.14032 -1.78384,4.18494 -2.33534,4.83405 -3.37446,3.97169 -0.50621,-0.4201 -0.81791,-1.90462 -0.81791,-3.89539 0,-1.76914 -0.26918,-3.21662 -0.59818,-3.21662 -0.37461,0 -0.59818,3.68863 -0.59818,9.86957 z m 5.70997,1.15398 c 1.37976,2.10569 0.90496,5.05918 -1.04645,6.50954 -2.39767,1.78202 -3.46716,0.62559 -3.46716,-3.74905 0,-1.8788 0.17946,-3.59545 0.39879,-3.81477 0.91111,-0.91108 3.21357,-0.32115 4.11482,1.05428 z m 5.65544,-1.15398 c 0,6.18095 0.22357,9.86957 0.59818,9.86957 0.37462,0 0.59818,-3.68862 0.59818,-9.86957 0,-6.18094 -0.22356,-9.86957 -0.59818,-9.86957 -0.37461,0 -0.59818,3.68863 -0.59818,9.86957 z m 4.57784,-9.41945 c -0.15964,0.2583 0.58206,4.63671 1.64822,9.7298 1.48767,7.10661 2.16659,9.30416 2.91937,9.44943 0.61975,0.11959 1.09881,-0.32085 1.3012,-1.19631 2.07292,-8.96689 3.66755,-17.91392 3.23988,-18.17822 -0.29425,-0.18185 -0.65971,0.0229 -0.81212,0.45497 -1.62357,4.6027 -2.15098,5.09256 -4.7741,4.43423 -1.09346,-0.27444 -1.56818,-0.9029 -1.86101,-2.46374 -0.39674,-2.11474 -1.12696,-3.09492 -1.66144,-2.23016 z m 6.32673,6.87729 c 0.41608,1.1725 -0.95585,6.6062 -1.73298,6.86371 -0.78657,0.26064 -2.30989,-6.0173 -1.69966,-7.00464 0.53172,-0.8603 3.11497,-0.75424 3.43264,0.14093 z m 10.03172,-6.93586 c 0,0.27017 0.86114,4.62834 1.91365,9.68481 1.71718,8.24966 2.67471,10.65739 3.79346,9.53868 0.38499,-0.38496 3.86376,-16.96558 3.86376,-18.41553 0,-1.90966 -1.06077,-1.38906 -1.517,0.7445 -0.53795,2.51578 -1.31875,3.44157 -2.89304,3.43024 -1.94421,-0.014 -2.8483,-0.84043 -3.29186,-3.00912 -0.35151,-1.7186 -1.86897,-3.32101 -1.86897,-1.97358 z m 6.5092,8.13217 c -0.21902,6.01595 -1.89087,7.49989 -2.9114,2.58417 -0.78459,-3.77919 -0.53284,-4.52817 1.52203,-4.52817 1.26307,0 1.45059,0.26237 1.38937,1.944 z m 6.05257,1.38971 c 0,8.92816 0.099,9.89421 0.9962,9.72003 0.62904,-0.12212 1.47456,-1.62636 2.29411,-4.08141 0.72948,-2.18526 1.64624,-3.88801 2.0933,-3.88801 0.44703,0 1.36402,1.70291 2.09363,3.88801 0.78186,2.34157 1.63485,3.88802 2.14456,3.88802 0.69384,0 0.84634,-1.69751 0.84634,-9.42096 0,-11.09697 -1.03498,-13.27033 -1.49545,-3.14031 l -0.29909,6.57971 -1.70608,-3.58894 c -1.85869,-3.90996 -1.62807,-3.97898 -3.64159,1.08983 -1.44102,3.62758 -2.12957,2.10338 -2.12957,-4.71406 0,-3.76479 -0.23759,-6.24534 -0.59818,-6.24534 -0.37473,0 -0.59818,3.70325 -0.59818,9.91343 z m 14.02174,-9.13945 c -0.16335,0.42569 -0.2222,4.7997 -0.13077,9.72003 l 0.16624,8.94606 2.5354,0.18359 c 2.05469,0.14879 2.82023,-0.10123 4.03771,-1.31866 1.72477,-1.7247 2.05081,-5.14205 0.60505,-6.34188 -1.17965,-0.97898 -1.1361,-2.33362 0.11963,-3.72113 1.62581,-1.79641 1.3155,-5.14941 -0.63153,-6.82411 -1.84251,-1.5848 -6.18071,-2.00161 -6.70173,-0.6439 z m 5.33842,1.66206 c 2.73652,2.15246 1.34617,6.79906 -1.92125,6.42091 -1.44486,-0.16722 -1.60377,-0.44502 -1.77248,-3.09846 -0.3053,-4.80184 0.68288,-5.69069 3.69373,-3.32245 z m -0.11598,9.32071 c 1.65936,1.50163 1.44333,4.7351 -0.39691,5.94083 -2.38609,1.56336 -3.29461,0.75696 -3.29461,-2.92429 0,-1.76492 0.17946,-3.38839 0.39879,-3.60771 0.69562,-0.69559 2.16167,-0.43239 3.29273,0.59117 z m 6.18136,-11.08279 c -0.59103,1.54012 -0.0454,18.47007 0.59526,18.46998 0.80951,-1.1e-4 1.13015,-17.95402 0.33484,-18.7493 -0.39416,-0.39414 -0.70781,-0.29995 -0.9301,0.27932 z m 5.08161,9.19561 0,9.86957 2.9909,0 c 1.64499,0 2.9909,-0.26917 2.9909,-0.59815 0,-0.32899 -0.75371,-0.59816 -1.67491,-0.59816 -2.29994,0 -3.11214,-1.01037 -3.10137,-3.8581 0.0115,-3.04006 0.46835,-3.75809 2.55364,-4.01349 0.91391,-0.11193 1.66165,-0.47268 1.66165,-0.80167 0,-0.32898 -0.74774,-0.68973 -1.66165,-0.80166 -2.08529,-0.2554 -2.54214,-0.97343 -2.55364,-4.01349 -0.0111,-2.93672 0.80099,-3.8581 3.40046,-3.8581 1.0857,0 1.974,-0.26917 1.974,-0.59816 0,-0.32898 -1.4805,-0.59816 -3.28999,-0.59816 l -3.28999,0 0,9.86957 z m 9.57087,0 c 0,12.31874 0.43393,12.69305 3.892,3.3573 1.03548,-2.7955 2.1885,-5.18466 2.56225,-5.30924 0.46914,-0.15637 0.73273,1.59248 0.85128,5.64796 0.10327,3.53293 0.41015,5.81544 0.7699,5.72637 0.81655,-0.20217 1.12452,-18.10766 0.32519,-18.90696 -0.86281,-0.86278 -1.0286,-0.58138 -3.49087,5.92512 -3.02214,7.98599 -3.71339,7.98977 -3.71339,0.0204 0,-3.82155 -0.23707,-6.33048 -0.59818,-6.33048 -0.37461,0 -0.59818,3.68863 -0.59818,9.86957 z m 14.22276,-1.04677 c -0.15948,8.49994 -0.21479,8.8444 -1.51144,9.41326 -2.27006,0.99588 -1.51313,1.50308 2.24317,1.50308 3.45306,0 5.01837,-0.91012 2.24317,-1.30424 -1.32012,-0.18748 -1.34906,-0.36589 -1.51103,-9.31302 -0.0946,-5.22742 -0.40702,-9.12188 -0.73173,-9.12188 -0.3236,0 -0.6376,3.78395 -0.73214,8.8228 z m 5.04733,-7.55501 c 0.16371,0.78315 1.05263,5.15006 1.97539,9.70425 1.06068,5.23462 1.98188,8.39703 2.50458,8.59761 0.4548,0.17451 0.9493,0.19493 1.0988,0.0454 0.385,-0.38497 3.8638,-16.96558 3.8638,-18.41553 0,-1.90966 -1.0608,-1.38906 -1.517,0.7445 -0.538,2.51578 -1.3188,3.44156 -2.8931,3.43023 -1.9442,-0.014 -2.84828,-0.84043 -3.29184,-3.00911 -0.22235,-1.08713 -0.77193,-2.09915 -1.22128,-2.24893 -0.58633,-0.19544 -0.73297,0.12971 -0.51935,1.15159 z m 6.38087,7.25593 c -0.219,6.01595 -1.8909,7.49989 -2.9114,2.58417 -0.78461,-3.77919 -0.5329,-4.52817 1.522,-4.52817 1.2631,0 1.4506,0.26237 1.3894,1.944 z m 6.0526,1.3957 c 0,7.66903 0.1696,9.86315 0.7477,9.67141 0.5352,-0.17751 0.8327,-2.78457 1.0468,-9.17172 l 0.2991,-8.92372 1.9441,-0.18743 c 3.0718,-0.29617 2.262,-1.30796 -1.0468,-1.30796 l -2.9909,0 0,9.91942 z m -387.98884,7.87586 c -1.68316,0.90463 -3.70106,2.08073 -4.48421,2.61356 l -1.42392,0.96877 3.88603,2.46494 c 4.93915,3.13294 6.66721,3.18214 9.33852,0.26587 1.11361,-1.21574 2.02476,-2.53026 2.02476,-2.92117 0,-0.9038 -4.54194,-5.03709 -5.53489,-5.0369 -0.4103,7e-5 -2.12313,0.74029 -3.80629,1.64493 z m -38.39584,0.92557 c -1.05153,1.08486 -1.91188,2.40283 -1.91188,2.92882 0,1.26411 3.91788,4.66919 5.37238,4.66919 1.17775,0 8.06499,-3.78236 8.67017,-4.76151 0.49675,-0.80374 -6.64395,-4.80898 -8.57364,-4.80898 -1.07563,0 -2.30701,0.68283 -3.55703,1.97248 z m 187.11284,4.16167 c 0,0.49348 0.40377,1.23232 0.89727,1.64187 0.72975,0.60561 0.89727,0.57712 0.89727,-0.1526 0,-0.49347 -0.40377,-1.23232 -0.89727,-1.64187 -0.72975,-0.60561 -0.89727,-0.57712 -0.89727,0.1526 z m 134.82547,0.1954 c 0.19971,0.52039 0.36309,1.05873 0.36309,1.19632 0,0.13758 0.41324,0.25015 0.91832,0.25015 0.73295,0 0.78907,-0.24148 0.27804,-1.19631 -0.75562,-1.41183 -2.08721,-1.62544 -1.55945,-0.25016 z m -301.14244,1.91651 c -7.39896,3.81711 -18.64903,10.57711 -19.40962,11.66296 -1.27626,1.82205 -1.19231,2.72207 1.48221,15.88944 2.80485,13.80901 5.23812,29.75482 5.77455,37.84194 0.35357,5.33032 0.27752,5.93454 -1.04261,8.2833 -0.82286,1.46403 -2.44715,3.13314 -3.84771,3.95389 -1.46613,0.85918 -11.79832,3.89461 -26.15184,7.68298 -13.05047,3.44446 -24.21042,6.52258 -24.79989,6.84027 -3.0315,1.63384 -5.5581,6.21952 -5.5581,10.08774 0,2.6332 3.0071,11.97735 4.94514,15.36634 2.05982,3.60193 5.24661,5.85965 8.74546,6.19583 2.66835,0.25639 5.8639,-0.72572 31.41847,-9.65603 16.18078,-5.65454 29.36461,-9.94145 30.57364,-9.94145 1.21668,0 14.20203,4.24891 30.36711,9.93636 29.56311,10.40135 31.7618,10.9612 35.4621,9.02969 2.21788,-1.15772 4.60559,-3.71781 5.95156,-6.38124 1.92041,-3.80016 4.47427,-12.18197 4.46098,-14.64102 -0.0171,-3.15525 -1.72731,-6.8591 -4.08205,-8.84041 -2.16085,-1.81816 -1.57386,-1.63928 -29.10378,-8.86928 -11.51496,-3.0241 -21.60923,-5.8462 -22.43173,-6.27134 -1.72954,-0.89396 -4.33855,-3.58435 -5.31052,-5.47615 -0.36921,-0.71859 -0.67128,-2.65143 -0.67128,-4.2952 0,-6.48112 3.81924,-31.52852 6.89783,-45.23746 1.92466,-8.57048 1.90293,-10.14364 -0.16831,-12.1853 -1.59352,-1.57076 -19.74317,-12.04406 -20.8717,-12.04406 -0.30764,0 -1.4911,0.48069 -2.62991,1.0682 z m 365.80983,10.23299 c -6.15358,1.79566 -11.05295,4.70316 -15.61892,9.26894 -6.90313,6.90286 -9.80371,14.02945 -9.80371,24.08727 0,18.65825 14.27337,33.04804 33.85214,34.12825 10.77779,0.59464 19.77682,-2.48549 27.22067,-9.3169 7.2646,-6.66695 10.7651,-14.75953 10.7733,-24.90614 0.01,-10.14632 -3.4988,-18.23013 -10.8261,-24.95447 -4.2935,-3.94022 -11.45079,-7.72113 -16.63462,-8.78744 -4.83605,-0.99477 -14.76971,-0.74306 -18.96276,0.48049 z m 16.27304,20.46022 c 3.37667,1.63455 6.04316,5.50894 6.87692,9.99212 2.41341,12.97691 -11.65869,21.99459 -21.06372,13.49805 -5.49141,-4.96097 -5.96133,-14.73288 -0.98124,-20.40467 3.73713,-4.25618 10.08294,-5.54705 15.16804,-3.0855 z m -247.18301,-19.6623 c -0.15655,0.41868 -0.35232,10.85512 -0.43506,23.19208 l -0.15044,22.43084 -9.27178,0.29908 -9.27178,0.29908 0,9.57049 0,9.57049 30.20807,0 30.20806,0 0,-9.57049 0,-9.57049 -9.27178,-0.29908 -9.27178,-0.29908 -0.29909,-23.02899 -0.29909,-23.029 -10.93035,-0.16309 c -8.4199,-0.12562 -10.99573,0.0118 -11.21498,0.59816 z m 32.92209,-0.15141 c -0.52197,0.84452 25.9656,64.11867 27.36238,65.36393 1.019,0.90845 2.4969,1.04678 11.18422,1.04678 8.79211,0 10.11947,-0.12737 10.90915,-1.04678 1.37747,-1.60376 27.53224,-64.6519 27.10609,-65.34139 -0.23154,-0.37464 -4.80004,-0.60528 -11.9895,-0.60528 -13.17731,0 -12.15111,-0.39644 -14.34772,5.5429 -0.70109,1.89564 -1.47704,2.95528 -2.31532,3.16177 -0.69346,0.17082 -5.56755,0.23363 -10.8313,0.13959 l -9.57048,-0.171 -1.04571,-2.09354 c -0.57515,-1.15145 -1.43643,-3.10294 -1.91396,-4.33663 l -0.86825,-2.24309 -11.65972,0 c -6.9222,0 -11.80606,0.23678 -12.01988,0.58274 z m 42.47861,25.2875 c 0.33511,0.89827 -3.54385,11.39393 -4.30466,11.64752 -0.60376,0.20125 -4.99941,-11.25353 -4.58438,-11.9466 0.4763,-0.79538 8.58248,-0.52265 8.88904,0.29908 z m 36.89028,-25.15245 c -1.03536,1.03531 -1.03536,63.9244 0,64.95971 1.00868,1.00865 20.88468,1.00865 21.89337,0 0.54014,-0.54012 0.71781,-8.52281 0.71781,-32.25148 0,-17.34354 -0.16339,-31.95948 -0.36309,-32.47986 -0.31216,-0.81344 -1.84764,-0.94616 -10.94668,-0.94616 -7.43412,0 -10.79721,0.2136 -11.30141,0.71779 z m 24.72087,-0.14562 c -0.47047,0.76121 25.9849,64.00881 27.34095,65.36481 0.92627,0.92623 2.29868,1.05647 11.13285,1.05647 8.85481,0 10.18547,-0.1269 10.97651,-1.04678 1.38946,-1.61573 27.54077,-64.63633 27.11061,-65.33232 -0.23871,-0.38623 -4.69273,-0.61435 -11.99511,-0.61435 -13.17731,0 -12.15111,-0.39644 -14.34771,5.5429 -0.70109,1.89564 -1.47705,2.95528 -2.31532,3.16177 -0.69347,0.17082 -5.55776,0.23363 -10.80956,0.13959 -10.81032,-0.19359 -9.66076,0.36866 -12.27357,-6.00302 l -1.16511,-2.84124 -11.65045,0 c -6.76895,0 -11.79863,0.23974 -12.00409,0.57217 z m 42.47208,25.29807 c 0.33511,0.89827 -3.54384,11.39393 -4.30466,11.64752 -0.60376,0.20125 -4.99941,-11.25353 -4.58438,-11.9466 0.4763,-0.79538 8.58248,-0.52265 8.88904,0.29908 z m -381.1054,18.90126 c -3.09986,1.92669 -3.57163,3.99582 -2.76057,12.10752 0.38742,3.87473 1.02829,7.75578 1.42414,8.62455 0.75815,1.6639 3.27873,3.28725 5.09301,3.2801 0.59208,-0.002 9.1303,-2.14152 18.97379,-4.75375 12.34047,-3.27487 18.26301,-5.11523 19.07522,-5.9274 2.6372,-2.6371 1.58016,-11.58624 -1.58244,-13.3972 -0.93334,-0.53445 -6.46038,-0.78795 -19.83738,-0.90985 -17.3926,-0.15849 -18.65791,-0.0979 -20.38577,0.97603 z m 98.57535,-0.20494 c -2.4586,1.06817 -3.71624,3.88299 -3.71624,8.31766 0,5.7254 0.0194,5.73597 20.56725,11.17956 9.80763,2.59828 18.35773,4.72413 19.00022,4.72413 1.97985,0 4.49638,-1.65448 5.18854,-3.41118 0.79475,-2.01709 1.902,-9.99788 1.902,-13.70924 0,-3.34741 -1.29314,-5.91765 -3.5695,-7.09476 -2.50444,-1.29504 -36.39347,-1.30035 -39.37227,-0.006 z"
         id="path5431"
         inkscape:connector-curvature="0" /><path
         style="fill:#a9d362"
         d="m 594.31584,516.34737 c -10.12335,10.54305 -10.61768,11.16859 -10.61768,13.43594 0,1.61703 0.43071,2.86448 1.3459,3.89799 1.59591,1.80224 19.95526,12.30437 21.50995,12.30437 1.60827,0 20.08821,-10.71846 21.43769,-12.43397 0.71016,-0.90279 1.1681,-2.40969 1.1681,-3.84377 0,-2.23779 -0.53232,-2.91663 -10.37301,-13.2283 -8.28142,-8.67779 -10.72387,-10.9018 -12.11313,-11.02979 -1.54968,-0.14278 -2.90218,1.04989 -12.35782,10.89753 z m 130.61034,11.25383 c -2.62409,1.34852 -3.77742,3.62259 -4.09611,8.0765 -0.44197,6.17695 1.18017,10.29373 4.56609,11.58816 1.51745,0.58012 3.65961,0.17948 3.65961,-0.68444 0,-0.28597 -0.86624,-0.60429 -1.92499,-0.70739 -1.42067,-0.13833 -2.29556,-0.73591 -3.33948,-2.28098 -1.25522,-1.8578 -1.39209,-2.64384 -1.21546,-6.9805 0.1708,-4.19352 0.40482,-5.10592 1.64922,-6.43017 2.66162,-2.83239 4.23253,-1.83484 4.23253,2.68772 0,1.69083 -0.33139,2.54558 -1.19636,3.08574 -1.69062,1.05577 -1.48386,1.7682 0.44864,1.54584 1.61243,-0.18552 1.64853,-0.2778 1.8235,-4.66229 0.14742,-3.69405 -0.003,-4.60551 -0.86206,-5.23386 -1.28823,-0.94194 -1.9192,-0.94267 -3.74513,-0.004 z m 18.33636,-0.34418 c -0.57575,0.15044 -1.04682,0.65083 -1.04682,1.11196 0,0.61241 0.48335,0.74176 1.79306,0.47983 3.99718,-0.79941 4.79154,2.91065 1.53626,7.17513 -4.25872,5.579 -4.82005,7.92728 -2.45924,10.288 1.65389,1.65383 3.99588,1.91542 5.11172,0.57097 0.63726,-0.76782 0.44937,-0.89724 -1.30258,-0.89724 -4.02138,0 -4.58072,-2.65724 -1.42856,-6.78662 4.27801,-5.60429 4.9162,-8.4293 2.45923,-10.88616 -1.41376,-1.41371 -2.42097,-1.64178 -4.66307,-1.05587 z m 25.12352,0.23374 c -2.14427,1.24887 -3.06798,4.18476 -3.09017,9.82165 -0.0236,5.98185 0.98164,8.81333 3.54309,9.98036 3.39875,1.54851 5.90903,-2.69135 5.90903,-9.98036 0,-4.89299 -0.99952,-8.30604 -2.80219,-9.56863 -1.49194,-1.04496 -2.12301,-1.08981 -3.55976,-0.25302 z m 3.51788,2.67939 c 1.35087,2.0616 1.77517,9.39271 0.72157,12.4673 -1.12081,3.27075 -2.49638,4.01105 -4.23112,2.27709 -1.22194,-1.22138 -1.35422,-1.92406 -1.35422,-7.19359 0,-4.5826 0.22836,-6.18899 1.0606,-7.46089 1.32826,-2.02995 2.5136,-2.05798 3.80317,-0.0899 z m 49.45035,-2.42637 c -1.83115,1.28254 -2.78096,4.69096 -2.74978,9.86771 0.0435,7.22524 2.6976,11.42343 6.07813,9.6143 2.38964,-1.27885 3.33689,-4.09298 3.33689,-9.91338 0,-5.73721 -0.94758,-8.6347 -3.2219,-9.85184 -1.52149,-0.81424 -1.92369,-0.78116 -3.44334,0.28321 z m 3.76612,2.15449 c 0.96518,1.06646 1.13953,2.20084 1.13953,7.41414 0,5.21331 -0.17435,6.34769 -1.13953,7.41415 -1.52079,1.68039 -2.50641,1.58669 -3.78166,-0.35951 -1.51755,-2.31599 -1.51755,-11.79328 0,-14.10927 1.27525,-1.9462 2.26087,-2.0399 3.78166,-0.35951 z m 18.89694,-2.42257 c -1.90623,0.76449 -1.06612,1.80306 1.10695,1.36847 2.12691,-0.42536 3.56737,0.59304 3.56737,2.52212 0,0.76139 -1.22156,3.16854 -2.71457,5.34922 -1.49302,2.1807 -2.86599,4.72194 -3.05106,5.64722 -0.62029,3.10132 2.03518,5.88283 4.92408,5.1578 1.97535,-0.49576 1.81614,-1.53486 -0.23517,-1.53486 -1.98277,0 -3.11174,-0.96708 -3.10739,-2.66179 0.003,-1.20769 0.45347,-2.0158 3.75948,-6.74577 0.91794,-1.31332 1.8248,-3.34791 2.01522,-4.52131 0.28563,-1.76006 0.0768,-2.40285 -1.19317,-3.67277 -1.6175,-1.61744 -2.78307,-1.82619 -5.07174,-0.90833 z m 11.44642,0.08 c -2.15659,1.04259 -2.63463,3.26772 -2.45414,11.42339 0.23193,10.47996 1.28335,10.18271 1.66384,-0.47039 0.1645,-4.6058 0.51686,-8.71065 0.78303,-9.12188 0.26616,-0.41123 1.12511,-0.74769 1.90877,-0.74769 0.78367,0 1.64262,0.33646 1.90878,0.74769 0.26617,0.41123 0.61853,4.51608 0.78303,9.12188 0.38049,10.6531 1.43191,10.95035 1.66384,0.47039 0.18515,-8.36656 -0.35688,-10.69826 -2.69347,-11.5866 -1.72078,-0.65421 -1.88874,-0.64652 -3.56368,0.16321 z m 27.82125,-0.0921 c -1.96991,1.14951 -3.05766,5.51822 -2.78261,11.1758 0.3605,7.41525 2.71037,10.56763 6.1819,8.29309 2.0859,-1.36668 2.71492,-2.88322 3.09976,-7.47334 0.44048,-5.25386 -0.62055,-9.82526 -2.65119,-11.4225 -1.68497,-1.32535 -2.381,-1.42901 -3.84786,-0.57305 z m 4.01975,3.24987 c 0.49766,1.19102 0.86675,4.00104 0.86675,6.59892 0,5.32361 -1.13798,8.67326 -2.94659,8.67326 -1.74657,0 -2.89979,-2.16639 -3.34332,-6.28063 -0.39362,-3.65128 0.42061,-8.86273 1.60828,-10.29372 1.20624,-1.45337 2.90591,-0.8732 3.81488,1.30217 z m -154.3963,-2.49667 c -0.16336,0.42569 -0.22221,4.7997 -0.13077,9.72003 l 0.16624,8.94606 3.14044,0.18079 c 3.56708,0.20536 4.40065,-0.90152 0.89727,-1.19146 l -2.24317,-0.18565 0,-3.58893 0,-3.58893 1.98039,-0.19015 c 2.40739,-0.23114 2.25424,-1.47427 -0.2352,-1.90927 -1.69997,-0.29705 -1.74519,-0.39781 -1.74519,-3.88802 l 0,-3.58306 2.24317,-0.18565 c 3.32535,-0.2752 2.71991,-1.30974 -0.76649,-1.30974 -1.91043,0 -3.11816,0.28269 -3.30669,0.77398 z m 20.67266,8.20452 c 0,8.57513 -0.0663,9.09551 -1.19636,9.39102 -2.3217,0.60711 -1.15611,1.36962 2.09363,1.36962 3.23972,0 4.41729,-0.762 2.10997,-1.36535 -1.09756,-0.28701 -1.19162,-0.92594 -1.34591,-9.14253 -0.12044,-6.41391 -0.37071,-8.90202 -0.9136,-9.08245 -0.57625,-0.19151 -0.74773,1.83338 -0.74773,8.82969 z m 7.17816,0.89107 c 0,6.18095 0.22356,9.86957 0.59818,9.86957 0.37461,0 0.59818,-3.68862 0.59818,-9.86957 0,-6.18094 -0.22357,-9.86957 -0.59818,-9.86957 -0.37462,0 -0.59818,3.68863 -0.59818,9.86957 z m 17.02719,-9.1335 c -0.17136,0.44653 -0.23676,4.83761 -0.14532,9.75794 0.20615,11.09364 0.86717,11.6088 3.9985,3.11615 1.18224,-3.20645 2.41872,-5.89815 2.74772,-5.98156 0.36173,-0.0917 0.66556,2.27188 0.76864,5.97945 0.28255,10.16177 1.32498,7.18129 1.32498,-3.78832 0,-11.77385 -0.46469,-12.24598 -3.60064,-3.6583 -3.07958,8.43335 -3.57751,8.55476 -3.57751,0.8723 0,-3.62784 -0.25905,-6.52507 -0.6024,-6.73726 -0.33133,-0.20476 -0.74261,-0.007 -0.91397,0.4396 z m 20.05391,3.00241 c -0.004,2.69646 -0.5704,5.35372 -2.03085,9.53358 -1.11364,3.18731 -1.8736,5.94631 -1.68881,6.1311 0.81049,0.81046 1.31575,0.0946 2.54916,-3.61161 1.51696,-4.55831 2.15351,-4.4247 3.84593,0.80728 0.5587,1.72717 1.26337,3.14031 1.56593,3.14031 0.88476,0 0.65902,-1.24784 -1.24444,-6.87879 -1.24371,-3.67926 -1.79454,-6.46769 -1.79454,-9.08454 0,-2.11844 -0.26257,-3.77581 -0.59818,-3.77581 -0.33433,0 -0.60084,1.64895 -0.6042,3.73848 z m 14.23282,-2.6917 c -1.82149,2.08811 -2.26321,3.74778 -2.26321,8.50361 0,6.72711 1.4861,9.94621 4.76764,10.32738 1.77501,0.20618 2.31497,-1.17843 0.56092,-1.43836 -0.7262,-0.10761 -1.88573,-0.95561 -2.57673,-1.88445 -1.04133,-1.39972 -1.25638,-2.54404 -1.25638,-6.68539 0,-5.68308 1.2165,-8.21986 4.10701,-8.56443 0.87779,-0.10463 1.44094,-0.44109 1.25145,-0.74769 -0.58222,-0.94201 -3.62505,-0.61767 -4.5907,0.48933 z m 18.95124,-0.31071 c -0.17135,0.44653 -0.23675,4.83761 -0.14531,9.75794 0.20627,11.10034 0.89052,11.66174 4.03631,3.31159 2.89704,-7.68986 3.60717,-7.69931 3.60717,-0.048 0,4.59915 0.18223,6.02051 0.74772,5.83202 0.55643,-0.18547 0.74773,-2.68506 0.74773,-9.76988 0,-11.76088 -0.63928,-12.35061 -3.87505,-3.57467 -1.20579,3.27029 -2.50955,6.05171 -2.89726,6.18094 -0.50987,0.16995 -0.70493,-1.42424 -0.70493,-5.76113 0,-5.43438 -0.68234,-8.10219 -1.51638,-5.9288 z m 34.08169,0.0379 c -0.16336,0.42569 -0.22221,4.73309 -0.13077,9.57201 0.22315,11.81031 1.2695,11.88697 1.66169,0.12173 l 0.29909,-8.97234 1.94408,-0.18743 c 2.93278,-0.28276 2.33199,-1.30796 -0.7665,-1.30796 -1.66573,0 -2.82507,0.29835 -3.00759,0.77398 z m 9.30725,8.20451 c 0,8.57513 -0.0663,9.09551 -1.19636,9.39102 -2.3217,0.60711 -1.15611,1.36962 2.09363,1.36962 3.23972,0 4.41729,-0.762 2.10996,-1.36535 -1.09755,-0.28701 -1.19161,-0.92594 -1.3459,-9.14253 -0.12044,-6.41391 -0.37072,-8.90202 -0.91361,-9.08245 -0.57625,-0.19151 -0.74772,1.83338 -0.74772,8.82969 z m 18.54356,0.89107 0,9.86957 2.58754,0 c 5.03602,0 7.36831,-5.31421 4.30386,-9.80653 l -1.58913,-2.32958 1.49404,-3.44483 c 1.37828,-3.17792 1.46216,-4.1582 0.35582,-4.1582 -0.23366,0 -1.02719,1.41315 -1.7634,3.14032 -1.78384,4.18494 -2.33534,4.83405 -3.37446,3.97169 -0.50621,-0.4201 -0.81791,-1.90462 -0.81791,-3.89539 0,-1.76914 -0.26918,-3.21662 -0.59818,-3.21662 -0.37461,0 -0.59818,3.68863 -0.59818,9.86957 z m 5.70997,1.15398 c 1.37976,2.10569 0.90496,5.05918 -1.04645,6.50954 -2.39767,1.78202 -3.46716,0.62559 -3.46716,-3.74905 0,-1.8788 0.17946,-3.59545 0.39879,-3.81477 0.91111,-0.91108 3.21357,-0.32115 4.11482,1.05428 z m 5.65544,-1.15398 c 0,6.18095 0.22357,9.86957 0.59818,9.86957 0.37462,0 0.59818,-3.68862 0.59818,-9.86957 0,-6.18094 -0.22356,-9.86957 -0.59818,-9.86957 -0.37461,0 -0.59818,3.68863 -0.59818,9.86957 z m 4.57784,-9.41945 c -0.15964,0.2583 0.58206,4.63671 1.64822,9.7298 1.48767,7.10661 2.16659,9.30416 2.91937,9.44943 0.61975,0.11959 1.09881,-0.32085 1.3012,-1.19631 2.07292,-8.96689 3.66755,-17.91392 3.23988,-18.17822 -0.29425,-0.18185 -0.65971,0.0229 -0.81212,0.45497 -1.62357,4.6027 -2.15098,5.09256 -4.7741,4.43423 -1.09346,-0.27444 -1.56818,-0.9029 -1.86101,-2.46374 -0.39674,-2.11474 -1.12696,-3.09492 -1.66144,-2.23016 z m 6.32673,6.87729 c 0.41608,1.1725 -0.95585,6.6062 -1.73298,6.86371 -0.78657,0.26064 -2.30989,-6.0173 -1.69966,-7.00464 0.53172,-0.8603 3.11497,-0.75424 3.43264,0.14093 z m 10.03172,-6.93586 c 0,0.27017 0.86114,4.62834 1.91365,9.68481 1.71718,8.24966 2.67471,10.65739 3.79346,9.53868 0.38499,-0.38496 3.86376,-16.96558 3.86376,-18.41553 0,-1.90966 -1.06077,-1.38906 -1.517,0.7445 -0.53795,2.51578 -1.31875,3.44157 -2.89304,3.43024 -1.94421,-0.014 -2.8483,-0.84043 -3.29186,-3.00912 -0.35151,-1.7186 -1.86897,-3.32101 -1.86897,-1.97358 z m 6.5092,8.13217 c -0.21902,6.01595 -1.89087,7.49989 -2.9114,2.58417 -0.78459,-3.77919 -0.53284,-4.52817 1.52203,-4.52817 1.26307,0 1.45059,0.26237 1.38937,1.944 z m 6.05257,1.38971 c 0,8.92816 0.099,9.89421 0.9962,9.72003 0.62904,-0.12212 1.47456,-1.62636 2.29411,-4.08141 0.72948,-2.18526 1.64624,-3.88801 2.0933,-3.88801 0.44703,0 1.36402,1.70291 2.09363,3.88801 0.78186,2.34157 1.63485,3.88802 2.14456,3.88802 0.69384,0 0.84634,-1.69751 0.84634,-9.42096 0,-11.09697 -1.03498,-13.27033 -1.49545,-3.14031 l -0.29909,6.57971 -1.70608,-3.58894 c -1.85869,-3.90996 -1.62807,-3.97898 -3.64159,1.08983 -1.44102,3.62758 -2.12957,2.10338 -2.12957,-4.71406 0,-3.76479 -0.23759,-6.24534 -0.59818,-6.24534 -0.37473,0 -0.59818,3.70325 -0.59818,9.91343 z m 14.02174,-9.13945 c -0.16335,0.42569 -0.2222,4.7997 -0.13077,9.72003 l 0.16624,8.94606 2.5354,0.18359 c 2.05469,0.14879 2.82023,-0.10123 4.03771,-1.31866 1.72477,-1.7247 2.05081,-5.14205 0.60505,-6.34188 -1.17965,-0.97898 -1.1361,-2.33362 0.11963,-3.72113 1.62581,-1.79641 1.3155,-5.14941 -0.63153,-6.82411 -1.84251,-1.5848 -6.18071,-2.00161 -6.70173,-0.6439 z m 5.33842,1.66206 c 2.73652,2.15246 1.34617,6.79906 -1.92125,6.42091 -1.44486,-0.16722 -1.60377,-0.44502 -1.77248,-3.09846 -0.3053,-4.80184 0.68288,-5.69069 3.69373,-3.32245 z m -0.11598,9.32071 c 1.65936,1.50163 1.44333,4.7351 -0.39691,5.94083 -2.38609,1.56336 -3.29461,0.75696 -3.29461,-2.92429 0,-1.76492 0.17946,-3.38839 0.39879,-3.60771 0.69562,-0.69559 2.16167,-0.43239 3.29273,0.59117 z m 6.18136,-11.08279 c -0.59103,1.54012 -0.0454,18.47007 0.59526,18.46998 0.80951,-1.1e-4 1.13015,-17.95402 0.33484,-18.7493 -0.39416,-0.39414 -0.70781,-0.29995 -0.9301,0.27932 z m 5.08161,9.19561 0,9.86957 2.9909,0 c 1.64499,0 2.9909,-0.26917 2.9909,-0.59815 0,-0.32899 -0.75371,-0.59816 -1.67491,-0.59816 -2.29994,0 -3.11214,-1.01037 -3.10137,-3.8581 0.0115,-3.04006 0.46835,-3.75809 2.55364,-4.01349 0.91391,-0.11193 1.66165,-0.47268 1.66165,-0.80167 0,-0.32898 -0.74774,-0.68973 -1.66165,-0.80166 -2.08529,-0.2554 -2.54214,-0.97343 -2.55364,-4.01349 -0.0111,-2.93672 0.80099,-3.8581 3.40046,-3.8581 1.0857,0 1.974,-0.26917 1.974,-0.59816 0,-0.32898 -1.4805,-0.59816 -3.28999,-0.59816 l -3.28999,0 0,9.86957 z m 9.57087,0 c 0,12.31874 0.43393,12.69305 3.892,3.3573 1.03548,-2.7955 2.1885,-5.18466 2.56225,-5.30924 0.46914,-0.15637 0.73273,1.59248 0.85128,5.64796 0.10327,3.53293 0.41015,5.81544 0.7699,5.72637 0.81655,-0.20217 1.12452,-18.10766 0.32519,-18.90696 -0.86281,-0.86278 -1.0286,-0.58138 -3.49087,5.92512 -3.02214,7.98599 -3.71339,7.98977 -3.71339,0.0204 0,-3.82155 -0.23707,-6.33048 -0.59818,-6.33048 -0.37461,0 -0.59818,3.68863 -0.59818,9.86957 z m 14.22276,-1.04677 c -0.15948,8.49994 -0.21479,8.8444 -1.51144,9.41326 -2.27006,0.99588 -1.51313,1.50308 2.24317,1.50308 3.45306,0 5.01837,-0.91012 2.24317,-1.30424 -1.32012,-0.18748 -1.34906,-0.36589 -1.51103,-9.31302 -0.0946,-5.22742 -0.40702,-9.12188 -0.73173,-9.12188 -0.3236,0 -0.6376,3.78395 -0.73214,8.8228 z m 5.04733,-7.55501 c 0.16371,0.78315 1.05263,5.15006 1.97539,9.70425 1.06068,5.23462 1.98188,8.39703 2.50458,8.59761 0.4548,0.17451 0.9493,0.19493 1.0988,0.0454 0.385,-0.38497 3.8638,-16.96558 3.8638,-18.41553 0,-1.90966 -1.0608,-1.38906 -1.517,0.7445 -0.538,2.51578 -1.3188,3.44156 -2.8931,3.43023 -1.9442,-0.014 -2.84828,-0.84043 -3.29184,-3.00911 -0.22235,-1.08713 -0.77193,-2.09915 -1.22128,-2.24893 -0.58633,-0.19544 -0.73297,0.12971 -0.51935,1.15159 z m 6.38087,7.25593 c -0.219,6.01595 -1.8909,7.49989 -2.9114,2.58417 -0.78461,-3.77919 -0.5329,-4.52817 1.522,-4.52817 1.2631,0 1.4506,0.26237 1.3894,1.944 z m 6.0526,1.3957 c 0,7.66903 0.1696,9.86315 0.7477,9.67141 0.5352,-0.17751 0.8327,-2.78457 1.0468,-9.17172 l 0.2991,-8.92372 1.9441,-0.18743 c 3.0718,-0.29617 2.262,-1.30796 -1.0468,-1.30796 l -2.9909,0 0,9.91942 z m -387.98884,7.87586 c -1.68316,0.90463 -3.70106,2.08073 -4.48421,2.61356 l -1.42392,0.96877 3.88603,2.46494 c 4.93915,3.13294 6.66721,3.18214 9.33852,0.26587 1.11361,-1.21574 2.02476,-2.53026 2.02476,-2.92117 0,-0.9038 -4.54194,-5.03709 -5.53489,-5.0369 -0.4103,7e-5 -2.12313,0.74029 -3.80629,1.64493 z m -38.39584,0.92557 c -1.05153,1.08486 -1.91188,2.40283 -1.91188,2.92882 0,1.26411 3.91788,4.66919 5.37238,4.66919 1.17775,0 8.06499,-3.78236 8.67017,-4.76151 0.49675,-0.80374 -6.64395,-4.80898 -8.57364,-4.80898 -1.07563,0 -2.30701,0.68283 -3.55703,1.97248 z m 187.11284,4.16167 c 0,0.49348 0.40377,1.23232 0.89727,1.64187 0.72975,0.60561 0.89727,0.57712 0.89727,-0.1526 0,-0.49347 -0.40377,-1.23232 -0.89727,-1.64187 -0.72975,-0.60561 -0.89727,-0.57712 -0.89727,0.1526 z m 134.82547,0.1954 c 0.19971,0.52039 0.36309,1.05873 0.36309,1.19632 0,0.13758 0.41324,0.25015 0.91832,0.25015 0.73295,0 0.78907,-0.24148 0.27804,-1.19631 -0.75562,-1.41183 -2.08721,-1.62544 -1.55945,-0.25016 z m -301.14244,1.91651 c -7.39896,3.81711 -18.64903,10.57711 -19.40962,11.66296 -1.27626,1.82205 -1.19231,2.72207 1.48221,15.88944 2.80485,13.80901 5.23812,29.75482 5.77455,37.84194 0.35357,5.33032 0.27752,5.93454 -1.04261,8.2833 -0.82286,1.46403 -2.44715,3.13314 -3.84771,3.95389 -1.46613,0.85918 -11.79832,3.89461 -26.15184,7.68298 -13.05047,3.44446 -24.21042,6.52258 -24.79989,6.84027 -3.0315,1.63384 -5.5581,6.21952 -5.5581,10.08774 0,2.6332 3.0071,11.97735 4.94514,15.36634 2.05982,3.60193 5.24661,5.85965 8.74546,6.19583 2.66835,0.25639 5.8639,-0.72572 31.41847,-9.65603 16.18078,-5.65454 29.36461,-9.94145 30.57364,-9.94145 1.21668,0 14.20203,4.24891 30.36711,9.93636 29.56311,10.40135 31.7618,10.9612 35.4621,9.02969 2.21788,-1.15772 4.60559,-3.71781 5.95156,-6.38124 1.92041,-3.80016 4.47427,-12.18197 4.46098,-14.64102 -0.0171,-3.15525 -1.72731,-6.8591 -4.08205,-8.84041 -2.16085,-1.81816 -1.57386,-1.63928 -29.10378,-8.86928 -11.51496,-3.0241 -21.60923,-5.8462 -22.43173,-6.27134 -1.72954,-0.89396 -4.33855,-3.58435 -5.31052,-5.47615 -0.36921,-0.71859 -0.67128,-2.65143 -0.67128,-4.2952 0,-6.48112 3.81924,-31.52852 6.89783,-45.23746 1.92466,-8.57048 1.90293,-10.14364 -0.16831,-12.1853 -1.59352,-1.57076 -19.74317,-12.04406 -20.8717,-12.04406 -0.30764,0 -1.4911,0.48069 -2.62991,1.0682 z m 370.77423,9.75297 c -17.16277,2.27761 -29.80691,16.23243 -29.95705,33.06237 -0.12141,13.6088 6.77051,24.71182 19.15236,30.85485 5.77031,2.86283 10.73752,3.79404 18.40206,3.44982 10.19014,-0.45763 17.27286,-3.4939 23.92721,-10.25726 6.3498,-6.45391 9.4674,-14.14887 9.4674,-23.36834 0,-9.38899 -3.1466,-17.00323 -9.7665,-23.63327 -7.93692,-7.94908 -19.43862,-11.67236 -31.22548,-10.10817 z m 9.75128,19.76738 c 5.58912,1.87124 9.09129,7.14606 9.07938,13.67498 -0.009,4.69845 -1.23124,7.86392 -4.22345,10.93448 -2.12797,2.18368 -6.41784,4.02401 -9.36158,4.01607 -4.44453,-0.012 -9.77893,-3.66535 -11.78584,-8.07176 -1.23355,-2.7084 -1.50059,-9.36454 -0.48439,-12.07371 2.62212,-6.99057 10.03404,-10.73722 16.77588,-8.48006 z m -245.4564,4.5531 -0.15657,23.17854 -9.24652,0.16579 c -6.47848,0.11616 -9.38564,0.38475 -9.71126,0.89723 -0.54653,0.86018 -0.65051,15.4502 -0.11996,16.83273 0.32436,0.84524 3.53952,0.94615 30.14407,0.94615 26.60454,0 29.8197,-0.10091 30.14406,-0.94615 0.53055,-1.38253 0.42657,-15.97255 -0.11996,-16.83273 -0.32562,-0.51248 -3.23278,-0.78107 -9.71126,-0.89723 l -9.24652,-0.16579 -0.15657,-23.17854 -0.15658,-23.17853 -10.75317,0 -10.75318,0 -0.15658,23.17853 z m 33.40612,-22.68495 c -0.26807,0.43372 25.4957,62.63462 26.7392,64.55586 0.35646,0.55074 3.21274,0.74769 10.84353,0.74769 7.57608,0 10.51719,-0.2009 10.94612,-0.74769 1.34008,-1.7083 27.03519,-64.13343 26.58399,-64.5846 -0.27062,-0.27061 -5.56776,-0.41861 -11.77142,-0.32889 l -11.27939,0.16313 -1.58052,3.88801 -1.58051,3.88801 -11.3978,0.1622 -11.3978,0.16219 -1.36878,-3.45205 c -0.75282,-1.89863 -1.62689,-3.78851 -1.94239,-4.19975 -0.66194,-0.86282 -22.26913,-1.1037 -22.79423,-0.25411 z m 42.67628,24.7785 c -0.0554,1.43181 -4.55221,12.64271 -5.15122,12.84237 -0.6436,0.21453 -5.60357,-12.38483 -5.17338,-13.14145 0.14029,-0.24674 2.52723,-0.44862 5.3043,-0.44862 3.65601,0 5.04124,0.20631 5.0203,0.7477 z m 36.19937,-24.53825 c -0.16036,0.41886 -0.2216,15.02757 -0.13608,32.46381 l 0.15549,31.70226 10.76723,0 10.76723,0 0,-32.30041 0,-32.30041 -10.63114,-0.1634 c -8.17747,-0.12569 -10.69844,0.0124 -10.92273,0.59815 z m 25.21189,-0.24722 c -0.26468,0.42824 25.50232,62.65017 26.7364,64.56283 0.35539,0.5508 3.21043,0.74769 10.84202,0.74769 7.5713,0 10.51988,-0.20124 10.95509,-0.74769 1.32434,-1.66285 27.02593,-64.13372 26.57232,-64.58731 -0.26913,-0.26912 -5.56505,-0.4159 -11.76872,-0.32618 l -11.27939,0.16313 -1.58052,3.88801 -1.58051,3.88801 -11.3978,0.1622 -11.3978,0.16219 -1.36877,-3.45205 c -0.75282,-1.89863 -1.6269,-3.78851 -1.94239,-4.19975 -0.65855,-0.85838 -22.26776,-1.10594 -22.78993,-0.26108 z m 42.67197,24.78547 c -0.0554,1.43181 -4.55221,12.64271 -5.15122,12.84237 -0.6436,0.21453 -5.60357,-12.38483 -5.17338,-13.14145 0.1403,-0.24674 2.52723,-0.44862 5.3043,-0.44862 3.65601,0 5.04124,0.20631 5.0203,0.7477 z m -381.95635,18.90126 c -3.09986,1.92669 -3.57163,3.99582 -2.76057,12.10752 0.38742,3.87473 1.02829,7.75578 1.42414,8.62455 0.75815,1.6639 3.27873,3.28725 5.09301,3.2801 0.59208,-0.002 9.1303,-2.14152 18.97379,-4.75375 12.34047,-3.27487 18.26301,-5.11523 19.07522,-5.9274 2.6372,-2.6371 1.58016,-11.58624 -1.58244,-13.3972 -0.93334,-0.53445 -6.46038,-0.78795 -19.83738,-0.90985 -17.3926,-0.15849 -18.65791,-0.0979 -20.38577,0.97603 z m 98.57535,-0.20494 c -2.4586,1.06817 -3.71624,3.88299 -3.71624,8.31766 0,5.7254 0.0194,5.73597 20.56725,11.17956 9.80763,2.59828 18.35773,4.72413 19.00022,4.72413 1.97985,0 4.49638,-1.65448 5.18854,-3.41118 0.79475,-2.01709 1.902,-9.99788 1.902,-13.70924 0,-3.34741 -1.29314,-5.91765 -3.5695,-7.09476 -2.50444,-1.29504 -36.39347,-1.30035 -39.37227,-0.006 z"
         id="path5429"
         inkscape:connector-curvature="0" /><path
         style="fill:#b0d133"
         d="m 594.87815,516.59465 c -10.31957,10.4206 -10.58182,10.7474 -10.58182,13.18661 0,1.79818 0.37831,2.87772 1.34591,3.84074 1.58788,1.58037 19.60164,11.76552 20.80884,11.76552 1.41934,0 20.57316,-11.2217 21.36281,-12.51589 1.29628,-2.1245 0.88817,-4.62169 -1.15263,-7.0529 -4.15918,-4.95482 -19.37763,-19.90949 -20.26067,-19.90949 -0.51734,0 -5.70244,4.80843 -11.52244,10.68541 z m 189.86684,13.92823 c -0.82474,2.36575 -0.83126,2.30337 0.24057,2.30337 0.62666,0 0.89726,-0.63139 0.89726,-2.09355 0,-2.58894 -0.28981,-2.64238 -1.13783,-0.20982 z m 53.23797,0 c -0.86505,2.48139 -0.83022,2.90152 0.24057,2.90152 0.64803,0 0.89727,-0.66461 0.89727,-2.39262 0,-2.88439 -0.26793,-3.00423 -1.13784,-0.5089 z m 146.65199,0.20924 c -0.63622,2.07293 -0.17174,3.14196 1.03983,2.3932 0.71927,-0.44451 0.80969,-4.48616 0.10036,-4.48616 -0.2738,0 -0.78688,0.94183 -1.14019,2.09296 z m -91.07982,5.41929 c 0,0.51289 0.27358,0.76346 0.60794,0.55682 0.33436,-0.20664 0.45307,-0.62628 0.26378,-0.93254 -0.51277,-0.82966 -0.87172,-0.67496 -0.87172,0.37572 z m 3.28999,-0.33438 c 0.20333,0.32898 0.4884,0.59815 0.63349,0.59815 0.14508,0 0.26378,-0.26917 0.26378,-0.59815 0,-0.32899 -0.28507,-0.59816 -0.63348,-0.59816 -0.34842,0 -0.46712,0.26917 -0.26379,0.59816 z m 45.76073,0.89723 c 0,0.49348 0.26918,0.89723 0.59818,0.89723 0.329,0 0.59818,-0.40375 0.59818,-0.89723 0,-0.49348 -0.26918,-0.89723 -0.59818,-0.89723 -0.329,0 -0.59818,0.40375 -0.59818,0.89723 z M 733.56767,536.972 c -0.18929,0.30626 -0.0706,0.7259 0.26378,0.93254 0.33437,0.20664 0.60794,-0.0439 0.60794,-0.55682 0,-1.05068 -0.35895,-1.20538 -0.87172,-0.37572 z m 64.27874,0.34041 c 0,0.49348 0.26919,0.89724 0.59818,0.89724 0.329,0 0.59818,-0.40376 0.59818,-0.89724 0,-0.49347 -0.26918,-0.89723 -0.59818,-0.89723 -0.32899,0 -0.59818,0.40376 -0.59818,0.89723 z m 154.97572,0.0498 c 0.0287,0.69682 0.17045,0.83856 0.3614,0.36139 0.17279,-0.43179 0.15155,-0.94771 -0.0472,-1.14647 -0.19877,-0.19876 -0.34015,0.15453 -0.31418,0.78508 z m 16.10362,-0.0145 c 0,0.51289 0.27357,0.76346 0.60794,0.55682 0.33436,-0.20664 0.45307,-0.62628 0.26378,-0.93254 -0.51278,-0.82966 -0.87172,-0.67496 -0.87172,0.37572 z m -190.4105,4.83966 c -0.63139,0.63136 -0.48295,3.79829 0.17803,3.79829 0.82878,0 1.47538,-2.96242 0.79508,-3.64269 -0.3104,-0.31039 -0.74829,-0.3804 -0.97311,-0.1556 z m 53.47598,1.85429 0.0486,2.24308 0.79084,-1.79447 c 0.80168,-1.8191 0.69628,-2.6917 -0.32513,-2.6917 -0.30958,0 -0.54101,1.00939 -0.51429,2.24309 z m 114.52582,-1.6822 c -0.47716,0.77204 0.26199,3.6262 0.93909,3.6262 0.70909,0 0.68826,-3.42258 -0.0235,-3.86246 -0.30627,-0.18928 -0.71828,-0.083 -0.91557,0.23626 z m 31.97957,1.65229 c 0,2.45171 0.85076,2.13324 1.51797,-0.56825 0.31639,-1.28105 0.19344,-1.64493 -0.55585,-1.64493 -0.71068,0 -0.96212,0.57838 -0.96212,2.21318 z m -39.67924,-1.21625 c -0.21933,0.21932 -0.39878,1.21525 -0.39878,2.21318 0,2.11063 0.89935,1.53769 1.51797,-0.96702 0.37903,-1.53468 -0.19334,-2.17198 -1.11919,-1.24616 z m -26.1205,1.95855 c 0,0.63855 0.24097,1.30994 0.5355,1.49195 0.6428,0.39726 1.40432,-1.33583 0.92659,-2.10878 -0.58935,-0.95354 -1.46209,-0.58534 -1.46209,0.61683 z m 16.74902,-0.0498 c 0,0.66597 0.26918,1.37721 0.59818,1.58054 0.329,0.20332 0.59818,-0.0499 0.59818,-0.56285 0,-0.5129 0.0202,-1.12769 0.0449,-1.3662 0.0246,-0.23852 -0.24451,-0.53012 -0.59818,-0.648 -0.35368,-0.11789 -0.64305,0.33054 -0.64305,0.99651 z m 71.7815,0 c 0,0.66597 0.2692,1.37721 0.5982,1.58054 0.329,0.20332 0.5982,-0.0499 0.5982,-0.56285 0,-0.5129 0.02,-1.12769 0.045,-1.3662 0.025,-0.23852 -0.2445,-0.53012 -0.5982,-0.648 -0.3537,-0.11789 -0.6431,0.33054 -0.6431,0.99651 z m -417.20934,1.34341 c -1.16294,1.02104 -2.11444,2.1795 -2.11444,2.57436 0,0.95606 3.73441,4.54154 4.73018,4.54154 1.34678,0 7.88002,-3.74274 7.66406,-4.39057 -0.20088,-0.60261 -6.89541,-4.5606 -7.73754,-4.57463 -0.2353,-0.004 -1.37932,0.82826 -2.54226,1.8493 z m 36.31859,0.59876 c -1.72724,1.00685 -3.13725,2.0103 -3.13334,2.22988 0.0115,0.64583 6.98282,4.28726 8.20774,4.28726 0.61674,0 2.0345,-0.94209 3.15057,-2.09354 l 2.02922,-2.09355 -2.02922,-2.09354 c -2.52116,-2.60107 -4.09116,-2.64621 -8.22497,-0.23651 z m 133.54357,-0.66073 c -0.20333,0.32899 -0.0846,0.59816 0.26379,0.59816 0.34841,0 0.63348,-0.26917 0.63348,-0.59816 0,-0.32898 -0.1187,-0.59815 -0.26378,-0.59815 -0.14509,0 -0.43015,0.26917 -0.63349,0.59815 z m 120.83226,0 c -0.20333,0.32899 -0.0846,0.59816 0.26379,0.59816 0.34841,0 0.63348,-0.26917 0.63348,-0.59816 0,-0.32898 -0.1187,-0.59815 -0.26379,-0.59815 -0.14508,0 -0.43015,0.26917 -0.63348,0.59815 z m -270.81477,7.1056 c -7.18996,3.7007 -18.55482,10.59946 -19.08104,11.58268 -0.84778,1.58404 -0.51531,4.27508 2.05127,16.60291 2.42586,11.65185 5.00049,28.64128 5.58214,36.83524 0.33695,4.74681 0.23405,5.65544 -0.88995,7.85858 -1.43181,2.80648 -4.15784,5.08287 -7.2638,6.0657 -1.15149,0.36437 -12.32249,3.36193 -24.82444,6.66124 -12.50196,3.29931 -23.40378,6.48217 -24.22627,7.07304 -2.10463,1.5119 -4.18726,5.88623 -4.18726,8.79481 0,2.62513 2.58935,10.934 4.69145,15.05425 1.78444,3.4976 4.84686,5.6826 8.44974,6.02878 2.60471,0.25026 6.0082,-0.79788 31.3697,-9.66072 18.093,-6.32279 29.30086,-9.94145 30.79104,-9.94145 1.49206,0 12.57738,3.58456 30.5218,9.86957 18.9976,6.65388 28.98827,9.86957 30.66332,9.86957 3.40299,0 7.26325,-2.35803 9.08381,-5.54884 0.79278,-1.38945 2.31049,-5.07877 3.37271,-8.19852 1.53656,-4.51288 1.86128,-6.26349 1.58869,-8.56495 -0.38875,-3.28229 -2.10063,-6.41335 -4.29111,-7.84855 -0.81847,-0.53626 -12.18662,-3.78794 -25.26255,-7.22595 -13.07594,-3.43802 -24.62912,-6.69244 -25.67375,-7.23206 -5.54404,-2.8639 -6.89013,-6.73643 -5.81245,-16.72171 1.16054,-10.75308 3.12779,-23.02188 5.46219,-34.06526 2.6057,-12.32674 2.8721,-14.63837 1.84033,-15.96907 -0.89116,-1.14937 -18.70668,-11.46426 -20.70171,-11.98596 -0.71433,-0.18679 -2.17857,0.11321 -3.25386,0.66667 z m 370.88971,9.09897 c -17.16277,2.27761 -29.80691,16.23243 -29.95705,33.06237 -0.12141,13.6088 6.77051,24.71182 19.15236,30.85485 5.77031,2.86283 10.73752,3.79404 18.40206,3.44982 10.19014,-0.45763 17.27286,-3.4939 23.92721,-10.25726 6.3498,-6.45391 9.4674,-14.14887 9.4674,-23.36834 0,-9.38899 -3.1466,-17.00323 -9.7665,-23.63327 -7.93692,-7.94908 -19.43862,-11.67236 -31.22548,-10.10817 z m 9.75128,19.76738 c 5.58912,1.87124 9.09129,7.14606 9.07938,13.67498 -0.009,4.69845 -1.23124,7.86392 -4.22345,10.93448 -2.12797,2.18368 -6.41784,4.02401 -9.36158,4.01607 -4.44453,-0.012 -9.77893,-3.66535 -11.78584,-8.07176 -1.23355,-2.7084 -1.50059,-9.36454 -0.48439,-12.07371 2.62212,-6.99057 10.03404,-10.73722 16.77588,-8.48006 z m -245.4564,4.5531 -0.15657,23.17854 -9.24652,0.16579 c -6.47848,0.11616 -9.38564,0.38475 -9.71126,0.89723 -0.54653,0.86018 -0.65051,15.4502 -0.11996,16.83273 0.32436,0.84524 3.53952,0.94615 30.14407,0.94615 26.60454,0 29.8197,-0.10091 30.14406,-0.94615 0.53055,-1.38253 0.42657,-15.97255 -0.11996,-16.83273 -0.32562,-0.51248 -3.23278,-0.78107 -9.71126,-0.89723 l -9.24652,-0.16579 -0.15657,-23.17854 -0.15658,-23.17853 -10.75317,0 -10.75318,0 -0.15658,23.17853 z m 33.40612,-22.68495 c -0.26807,0.43372 25.4957,62.63462 26.7392,64.55586 0.35646,0.55074 3.21274,0.74769 10.84353,0.74769 7.57608,0 10.51719,-0.2009 10.94612,-0.74769 1.34008,-1.7083 27.03519,-64.13343 26.58399,-64.5846 -0.27062,-0.27061 -5.56776,-0.41861 -11.77142,-0.32889 l -11.27939,0.16313 -1.58052,3.88801 -1.58051,3.88801 -11.3978,0.1622 -11.3978,0.16219 -1.36878,-3.45205 c -0.75282,-1.89863 -1.62689,-3.78851 -1.94239,-4.19975 -0.66194,-0.86282 -22.26913,-1.1037 -22.79423,-0.25411 z m 42.67628,24.7785 c -0.0554,1.43181 -4.55221,12.64271 -5.15122,12.84237 -0.6436,0.21453 -5.60357,-12.38483 -5.17338,-13.14145 0.14029,-0.24674 2.52723,-0.44862 5.3043,-0.44862 3.65601,0 5.04124,0.20631 5.0203,0.7477 z m 36.19937,-24.53825 c -0.16036,0.41886 -0.2216,15.02757 -0.13608,32.46381 l 0.15549,31.70226 10.76723,0 10.76723,0 0,-32.30041 0,-32.30041 -10.63114,-0.1634 c -8.17747,-0.12569 -10.69844,0.0124 -10.92273,0.59815 z m 25.21189,-0.24722 c -0.26468,0.42824 25.50232,62.65017 26.7364,64.56283 0.35539,0.5508 3.21043,0.74769 10.84202,0.74769 7.5713,0 10.51988,-0.20124 10.95509,-0.74769 1.32434,-1.66285 27.02593,-64.13372 26.57232,-64.58731 -0.26913,-0.26912 -5.56505,-0.4159 -11.76872,-0.32618 l -11.27939,0.16313 -1.58052,3.88801 -1.58051,3.88801 -11.3978,0.1622 -11.3978,0.16219 -1.36877,-3.45205 c -0.75282,-1.89863 -1.6269,-3.78851 -1.94239,-4.19975 -0.65855,-0.85838 -22.26776,-1.10594 -22.78993,-0.26108 z m 42.67197,24.78547 c -0.0554,1.43181 -4.55221,12.64271 -5.15122,12.84237 -0.6436,0.21453 -5.60357,-12.38483 -5.17338,-13.14145 0.1403,-0.24674 2.52723,-0.44862 5.3043,-0.44862 3.65601,0 5.04124,0.20631 5.0203,0.7477 z M 537.57137,607.8946 c -2.50259,1.36008 -3.14176,3.75578 -2.67824,10.03856 0.22373,3.03254 0.64965,6.59038 0.9465,7.90632 0.60292,2.67283 2.96366,5.08555 4.9725,5.08201 2.53395,-0.004 37.08476,-9.49235 38.03791,-10.44546 0.6954,-0.69537 0.95995,-2.09582 0.95995,-5.08177 0,-4.58103 -1.2752,-7.1282 -3.94209,-7.8742 -0.79284,-0.22178 -9.38236,-0.41929 -19.08782,-0.43891 -14.16029,-0.0287 -17.95495,0.13207 -19.20871,0.81345 z m 106.90484,-0.34131 c -8.79021,0.33693 -8.92588,0.36301 -10.10303,1.94189 -1.47992,1.98497 -2.03578,7.02808 -1.0397,9.43274 0.935,2.25719 1.66941,2.52053 21.79334,7.81437 10.88782,2.86416 16.64444,4.11428 17.78855,3.86301 2.95477,-0.64895 3.86736,-2.57838 4.67389,-9.88183 0.857,-7.76035 0.56988,-10.01235 -1.52811,-11.9853 -1.49643,-1.40725 -1.78417,-1.44252 -12.10398,-1.48396 -5.8141,-0.0233 -14.58054,0.11125 -19.48096,0.29908 z"
         id="path5427"
         inkscape:connector-curvature="0" /><path
         style="fill:#91c83b"
         d="m 606.42898,525.71237 c 0,18.61414 0.0629,19.77906 1.04681,19.40209 2.76875,-1.06072 19.11788,-10.77989 20.02571,-11.9048 1.64404,-2.03716 1.3292,-4.80647 -0.84024,-7.39093 -2.85732,-3.40391 -19.25236,-19.90949 -19.77617,-19.90949 -0.25086,0 -0.45611,8.91141 -0.45611,19.80313 z m 178.31601,4.81051 c -0.82474,2.36575 -0.83126,2.30337 0.24057,2.30337 0.62666,0 0.89726,-0.63139 0.89726,-2.09355 0,-2.58894 -0.28981,-2.64238 -1.13783,-0.20982 z m 53.23797,0 c -0.86505,2.48139 -0.83022,2.90152 0.24057,2.90152 0.64803,0 0.89727,-0.66461 0.89727,-2.39262 0,-2.88439 -0.26793,-3.00423 -1.13784,-0.5089 z m 146.65199,0.20924 c -0.63622,2.07293 -0.17174,3.14196 1.03983,2.3932 0.71927,-0.44451 0.80969,-4.48616 0.10036,-4.48616 -0.2738,0 -0.78688,0.94183 -1.14019,2.09296 z m -91.07982,5.41929 c 0,0.51289 0.27358,0.76346 0.60794,0.55682 0.33436,-0.20664 0.45307,-0.62628 0.26378,-0.93254 -0.51277,-0.82966 -0.87172,-0.67496 -0.87172,0.37572 z m 3.28999,-0.33438 c 0.20333,0.32898 0.4884,0.59815 0.63349,0.59815 0.14508,0 0.26378,-0.26917 0.26378,-0.59815 0,-0.32899 -0.28507,-0.59816 -0.63348,-0.59816 -0.34842,0 -0.46712,0.26917 -0.26379,0.59816 z m 45.76073,0.89723 c 0,0.49348 0.26918,0.89723 0.59818,0.89723 0.329,0 0.59818,-0.40375 0.59818,-0.89723 0,-0.49348 -0.26918,-0.89723 -0.59818,-0.89723 -0.329,0 -0.59818,0.40375 -0.59818,0.89723 z M 733.56767,536.972 c -0.18929,0.30626 -0.0706,0.7259 0.26378,0.93254 0.33437,0.20664 0.60794,-0.0439 0.60794,-0.55682 0,-1.05068 -0.35895,-1.20538 -0.87172,-0.37572 z m 64.27874,0.34041 c 0,0.49348 0.26919,0.89724 0.59818,0.89724 0.329,0 0.59818,-0.40376 0.59818,-0.89724 0,-0.49347 -0.26918,-0.89723 -0.59818,-0.89723 -0.32899,0 -0.59818,0.40376 -0.59818,0.89723 z m 154.97572,0.0498 c 0.0287,0.69682 0.17045,0.83856 0.3614,0.36139 0.17279,-0.43179 0.15155,-0.94771 -0.0472,-1.14647 -0.19877,-0.19876 -0.34015,0.15453 -0.31418,0.78508 z m 16.10362,-0.0145 c 0,0.51289 0.27357,0.76346 0.60794,0.55682 0.33436,-0.20664 0.45307,-0.62628 0.26378,-0.93254 -0.51278,-0.82966 -0.87172,-0.67496 -0.87172,0.37572 z m -190.4105,4.83966 c -0.63139,0.63136 -0.48295,3.79829 0.17803,3.79829 0.82878,0 1.47538,-2.96242 0.79508,-3.64269 -0.3104,-0.31039 -0.74829,-0.3804 -0.97311,-0.1556 z m 53.47598,1.85429 0.0486,2.24308 0.79084,-1.79447 c 0.80168,-1.8191 0.69628,-2.6917 -0.32513,-2.6917 -0.30958,0 -0.54101,1.00939 -0.51429,2.24309 z m 114.52582,-1.6822 c -0.47716,0.77204 0.26199,3.6262 0.93909,3.6262 0.70909,0 0.68826,-3.42258 -0.0235,-3.86246 -0.30627,-0.18928 -0.71828,-0.083 -0.91557,0.23626 z m 31.97957,1.65229 c 0,2.45171 0.85076,2.13324 1.51797,-0.56825 0.31639,-1.28105 0.19344,-1.64493 -0.55585,-1.64493 -0.71068,0 -0.96212,0.57838 -0.96212,2.21318 z m -39.67924,-1.21625 c -0.21933,0.21932 -0.39878,1.21525 -0.39878,2.21318 0,2.11063 0.89935,1.53769 1.51797,-0.96702 0.37903,-1.53468 -0.19334,-2.17198 -1.11919,-1.24616 z m -26.1205,1.95855 c 0,0.63855 0.24097,1.30994 0.5355,1.49195 0.6428,0.39726 1.40432,-1.33583 0.92659,-2.10878 -0.58935,-0.95354 -1.46209,-0.58534 -1.46209,0.61683 z m 16.74902,-0.0498 c 0,0.66597 0.26918,1.37721 0.59818,1.58054 0.329,0.20332 0.59818,-0.0499 0.59818,-0.56285 0,-0.5129 0.0202,-1.12769 0.0449,-1.3662 0.0246,-0.23852 -0.24451,-0.53012 -0.59818,-0.648 -0.35368,-0.11789 -0.64305,0.33054 -0.64305,0.99651 z m 71.7815,0 c 0,0.66597 0.2692,1.37721 0.5982,1.58054 0.329,0.20332 0.5982,-0.0499 0.5982,-0.56285 0,-0.5129 0.02,-1.12769 0.045,-1.3662 0.025,-0.23852 -0.2445,-0.53012 -0.5982,-0.648 -0.3537,-0.11789 -0.6431,0.33054 -0.6431,0.99651 z m -380.89075,1.94217 c -1.72724,1.00685 -3.13725,2.0103 -3.13334,2.22988 0.0115,0.64583 6.98282,4.28726 8.20774,4.28726 0.61674,0 2.0345,-0.94209 3.15057,-2.09354 l 2.02922,-2.09355 -2.02922,-2.09354 c -2.52116,-2.60107 -4.09116,-2.64621 -8.22497,-0.23651 z m 133.54357,-0.66073 c -0.20333,0.32899 -0.0846,0.59816 0.26379,0.59816 0.34841,0 0.63348,-0.26917 0.63348,-0.59816 0,-0.32898 -0.1187,-0.59815 -0.26378,-0.59815 -0.14509,0 -0.43015,0.26917 -0.63349,0.59815 z m 120.83226,0 c -0.20333,0.32899 -0.0846,0.59816 0.26379,0.59816 0.34841,0 0.63348,-0.26917 0.63348,-0.59816 0,-0.32898 -0.1187,-0.59815 -0.26379,-0.59815 -0.14508,0 -0.43015,0.26917 -0.63348,0.59815 z m -268.2835,58.32019 c 0,50.4441 0.0285,51.74047 1.13717,51.74047 0.62545,0 13.81762,4.4413 29.31594,9.86957 18.9976,6.65388 28.98827,9.86957 30.66332,9.86957 3.40299,0 7.26325,-2.35803 9.08381,-5.54884 0.79278,-1.38945 2.31049,-5.07877 3.37271,-8.19852 1.53656,-4.51288 1.86128,-6.26349 1.58869,-8.56495 -0.38875,-3.28229 -2.10063,-6.41335 -4.29111,-7.84855 -0.81847,-0.53626 -12.18662,-3.78794 -25.26255,-7.22595 -13.07594,-3.43802 -24.62912,-6.69244 -25.67375,-7.23206 -5.54404,-2.8639 -6.89013,-6.73643 -5.81245,-16.72171 1.16054,-10.75308 3.12779,-23.02188 5.46219,-34.06526 2.6057,-12.32674 2.8721,-14.63837 1.84033,-15.96907 -0.95287,-1.22895 -19.40401,-11.84517 -20.58707,-11.84517 -0.71107,0 -0.83723,7.7967 -0.83723,51.74047 z m 368.35844,-42.11562 c -17.16277,2.27761 -29.80691,16.23243 -29.95705,33.06237 -0.12141,13.6088 6.77051,24.71182 19.15236,30.85485 5.77031,2.86283 10.73752,3.79404 18.40206,3.44982 10.19014,-0.45763 17.27286,-3.4939 23.92721,-10.25726 6.3498,-6.45391 9.4674,-14.14887 9.4674,-23.36834 0,-9.38899 -3.1466,-17.00323 -9.7665,-23.63327 -7.93692,-7.94908 -19.43862,-11.67236 -31.22548,-10.10817 z m 9.75128,19.76738 c 5.58912,1.87124 9.09129,7.14606 9.07938,13.67498 -0.009,4.69845 -1.23124,7.86392 -4.22345,10.93448 -2.12797,2.18368 -6.41784,4.02401 -9.36158,4.01607 -4.44453,-0.012 -9.77893,-3.66535 -11.78584,-8.07176 -1.23355,-2.7084 -1.50059,-9.36454 -0.48439,-12.07371 2.62212,-6.99057 10.03404,-10.73722 16.77588,-8.48006 z m -245.4564,4.5531 -0.15657,23.17854 -9.24652,0.16579 c -6.47848,0.11616 -9.38564,0.38475 -9.71126,0.89723 -0.54653,0.86018 -0.65051,15.4502 -0.11996,16.83273 0.32436,0.84524 3.53952,0.94615 30.14407,0.94615 26.60454,0 29.8197,-0.10091 30.14406,-0.94615 0.53055,-1.38253 0.42657,-15.97255 -0.11996,-16.83273 -0.32562,-0.51248 -3.23278,-0.78107 -9.71126,-0.89723 l -9.24652,-0.16579 -0.15657,-23.17854 -0.15658,-23.17853 -10.75317,0 -10.75318,0 -0.15658,23.17853 z m 33.40612,-22.68495 c -0.26807,0.43372 25.4957,62.63462 26.7392,64.55586 0.35646,0.55074 3.21274,0.74769 10.84353,0.74769 7.57608,0 10.51719,-0.2009 10.94612,-0.74769 1.34008,-1.7083 27.03519,-64.13343 26.58399,-64.5846 -0.27062,-0.27061 -5.56776,-0.41861 -11.77142,-0.32889 l -11.27939,0.16313 -1.58052,3.88801 -1.58051,3.88801 -11.3978,0.1622 -11.3978,0.16219 -1.36878,-3.45205 c -0.75282,-1.89863 -1.62689,-3.78851 -1.94239,-4.19975 -0.66194,-0.86282 -22.26913,-1.1037 -22.79423,-0.25411 z m 42.67628,24.7785 c -0.0554,1.43181 -4.55221,12.64271 -5.15122,12.84237 -0.6436,0.21453 -5.60357,-12.38483 -5.17338,-13.14145 0.14029,-0.24674 2.52723,-0.44862 5.3043,-0.44862 3.65601,0 5.04124,0.20631 5.0203,0.7477 z m 36.19937,-24.53825 c -0.16036,0.41886 -0.2216,15.02757 -0.13608,32.46381 l 0.15549,31.70226 10.76723,0 10.76723,0 0,-32.30041 0,-32.30041 -10.63114,-0.1634 c -8.17747,-0.12569 -10.69844,0.0124 -10.92273,0.59815 z m 25.21189,-0.24722 c -0.26468,0.42824 25.50232,62.65017 26.7364,64.56283 0.35539,0.5508 3.21043,0.74769 10.84202,0.74769 7.5713,0 10.51988,-0.20124 10.95509,-0.74769 1.32434,-1.66285 27.02593,-64.13372 26.57232,-64.58731 -0.26913,-0.26912 -5.56505,-0.4159 -11.76872,-0.32618 l -11.27939,0.16313 -1.58052,3.88801 -1.58051,3.88801 -11.3978,0.1622 -11.3978,0.16219 -1.36877,-3.45205 c -0.75282,-1.89863 -1.6269,-3.78851 -1.94239,-4.19975 -0.65855,-0.85838 -22.26776,-1.10594 -22.78993,-0.26108 z m 42.67197,24.78547 c -0.0554,1.43181 -4.55221,12.64271 -5.15122,12.84237 -0.6436,0.21453 -5.60357,-12.38483 -5.17338,-13.14145 0.1403,-0.24674 2.52723,-0.44862 5.3043,-0.44862 3.65601,0 5.04124,0.20631 5.0203,0.7477 z m -274.77172,18.949 c -8.79021,0.33693 -8.92588,0.36301 -10.10303,1.94189 -1.47992,1.98497 -2.03578,7.02808 -1.0397,9.43274 0.935,2.25719 1.66941,2.52053 21.79334,7.81437 10.88782,2.86416 16.64444,4.11428 17.78855,3.86301 2.95477,-0.64895 3.86736,-2.57838 4.67389,-9.88183 0.857,-7.76035 0.56988,-10.01235 -1.52811,-11.9853 -1.49643,-1.40725 -1.78417,-1.44252 -12.10398,-1.48396 -5.8141,-0.0233 -14.58054,0.11125 -19.48096,0.29908 z"
         id="path5425"
         inkscape:connector-curvature="0" /><path
         style="fill:#5d5d5d"
         d="m 974.78742,562.19024 c -17.16277,2.27761 -29.80691,16.23243 -29.95705,33.06237 -0.12141,13.6088 6.77051,24.71182 19.15236,30.85485 5.77031,2.86283 10.73752,3.79404 18.40206,3.44982 10.19014,-0.45763 17.27286,-3.4939 23.92721,-10.25726 6.3498,-6.45391 9.4674,-14.14887 9.4674,-23.36834 0,-9.38899 -3.1466,-17.00323 -9.7665,-23.63327 -7.93692,-7.94908 -19.43862,-11.67236 -31.22548,-10.10817 z m 9.75128,19.76738 c 5.58912,1.87124 9.09129,7.14606 9.07938,13.67498 -0.009,4.69845 -1.23124,7.86392 -4.22345,10.93448 -2.12797,2.18368 -6.41784,4.02401 -9.36158,4.01607 -4.44453,-0.012 -9.77893,-3.66535 -11.78584,-8.07176 -1.23355,-2.7084 -1.50059,-9.36454 -0.48439,-12.07371 2.62212,-6.99057 10.03404,-10.73722 16.77588,-8.48006 z m -245.4564,4.5531 -0.15657,23.17854 -9.24652,0.16579 c -6.47848,0.11616 -9.38564,0.38475 -9.71126,0.89723 -0.54653,0.86018 -0.65051,15.4502 -0.11996,16.83273 0.32436,0.84524 3.53952,0.94615 30.14407,0.94615 26.60454,0 29.8197,-0.10091 30.14406,-0.94615 0.53055,-1.38253 0.42657,-15.97255 -0.11996,-16.83273 -0.32562,-0.51248 -3.23278,-0.78107 -9.71126,-0.89723 l -9.24652,-0.16579 -0.15657,-23.17854 -0.15658,-23.17853 -10.75317,0 -10.75318,0 -0.15658,23.17853 z m 33.40612,-22.68495 c -0.26807,0.43372 25.4957,62.63462 26.7392,64.55586 0.35646,0.55074 3.21274,0.74769 10.84353,0.74769 7.57608,0 10.51719,-0.2009 10.94612,-0.74769 1.34008,-1.7083 27.03519,-64.13343 26.58399,-64.5846 -0.27062,-0.27061 -5.56776,-0.41861 -11.77142,-0.32889 l -11.27939,0.16313 -1.58052,3.88801 -1.58051,3.88801 -11.3978,0.1622 -11.3978,0.16219 -1.36878,-3.45205 c -0.75282,-1.89863 -1.62689,-3.78851 -1.94239,-4.19975 -0.66194,-0.86282 -22.26913,-1.1037 -22.79423,-0.25411 z m 42.67628,24.7785 c -0.0554,1.43181 -4.55221,12.64271 -5.15122,12.84237 -0.6436,0.21453 -5.60357,-12.38483 -5.17338,-13.14145 0.14029,-0.24674 2.52723,-0.44862 5.3043,-0.44862 3.65601,0 5.04124,0.20631 5.0203,0.7477 z m 36.19937,-24.53825 c -0.16036,0.41886 -0.2216,15.02757 -0.13608,32.46381 l 0.15549,31.70226 10.76723,0 10.76723,0 0,-32.30041 0,-32.30041 -10.63114,-0.1634 c -8.17747,-0.12569 -10.69844,0.0124 -10.92273,0.59815 z m 25.21189,-0.24722 c -0.26468,0.42824 25.50232,62.65017 26.7364,64.56283 0.35539,0.5508 3.21043,0.74769 10.84202,0.74769 7.5713,0 10.51988,-0.20124 10.95509,-0.74769 1.32434,-1.66285 27.02593,-64.13372 26.57232,-64.58731 -0.26913,-0.26912 -5.56505,-0.4159 -11.76872,-0.32618 l -11.27939,0.16313 -1.58052,3.88801 -1.58051,3.88801 -11.3978,0.1622 -11.3978,0.16219 -1.36877,-3.45205 c -0.75282,-1.89863 -1.6269,-3.78851 -1.94239,-4.19975 -0.65855,-0.85838 -22.26776,-1.10594 -22.78993,-0.26108 z m 42.67197,24.78547 c -0.0554,1.43181 -4.55221,12.64271 -5.15122,12.84237 -0.6436,0.21453 -5.60357,-12.38483 -5.17338,-13.14145 0.1403,-0.24674 2.52723,-0.44862 5.3043,-0.44862 3.65601,0 5.04124,0.20631 5.0203,0.7477 z"
         id="path5423"
         inkscape:connector-curvature="0" /><path
         style="fill:#020202"
         d="m 970.85008,563.60093 c -11.57296,2.8021 -21.44781,12.28981 -24.3374,23.38326 -1.39407,5.352 -1.18545,14.04791 0.45227,18.85164 5.78956,16.98182 23.24583,26.36036 41.76008,22.43598 12.13517,-2.57223 22.98157,-12.85406 25.61487,-24.28167 0.7939,-3.44518 0.7939,-12.67175 0,-16.11693 -1.2453,-5.40405 -4.1291,-10.28902 -8.8681,-15.02202 -4.913,-4.90676 -9.53567,-7.58607 -15.88499,-9.20699 -4.31124,-1.10062 -14.27471,-1.12363 -18.73673,-0.0432 z m 15.12379,18.19373 c 5.56401,2.53394 9.21037,9.44888 8.40049,15.93064 -1.2108,9.69054 -10.97666,15.94782 -19.20773,12.30697 -5.90582,-2.61232 -8.86143,-7.32052 -8.85178,-14.10059 0.009,-6.58162 3.3416,-12.00813 8.84529,-14.40453 2.64812,-1.15304 7.98436,-1.02102 10.81373,0.26751 z m -246.15087,4.5176 c 0,12.31006 -0.16338,22.80769 -0.36309,23.32808 -0.30933,0.80606 -1.72639,0.94615 -9.57087,0.94615 l -9.20778,0 0,8.67326 0,8.67326 29.3108,0 29.31079,0 0,-8.67326 0,-8.67326 -9.20778,0 c -7.84448,0 -9.26154,-0.14009 -9.57087,-0.94615 -0.19971,-0.52039 -0.36309,-11.01802 -0.36309,-23.32808 l 0,-22.38192 -10.16905,0 -10.16906,0 0,22.38192 z m 33.49806,-21.70657 c 0,0.90977 25.67324,62.2293 26.45125,63.17778 0.88783,1.08236 19.80015,1.0611 20.70013,-0.0233 0.78687,-0.94808 25.86879,-60.60438 26.27659,-62.49778 l 0.29284,-1.35962 -10.97085,0.16331 -10.97086,0.16331 -1.58756,3.80592 c -0.87315,2.09325 -1.95811,4.04061 -2.41101,4.32746 -0.99497,0.6302 -21.47139,0.70509 -22.45016,0.0821 -0.37973,-0.24171 -1.41779,-2.25636 -2.30678,-4.47701 l -1.61635,-4.03756 -10.70362,0 c -7.55257,0 -10.70362,0.19882 -10.70362,0.67535 z m 41.52455,22.41765 c 1.38838,0.53275 1.19876,1.66906 -1.42906,8.56342 -2.50764,6.57907 -3.26178,7.83866 -4.12802,6.89472 -0.62153,-0.67727 -5.46032,-13.48327 -5.46032,-14.45087 0,-0.36988 0.33648,-0.80827 0.74772,-0.9742 1.08053,-0.43598 9.15193,-0.46197 10.26968,-0.0331 z m 37.11128,-22.3453 c -0.15748,0.41123 -0.21632,14.74454 -0.13078,31.85179 l 0.15555,31.1041 10.16905,0 10.16905,0 0.15479,-31.85179 0.15479,-31.8518 -10.19307,0 c -7.60297,0 -10.26582,0.19 -10.47938,0.7477 z m 25.4474,-0.0842 c 0,0.896 25.68383,62.24329 26.45514,63.18961 0.89214,1.09456 19.79723,1.05993 20.70842,-0.0379 0.84667,-1.02016 26.41252,-62.07813 26.41252,-63.08008 0,-0.59546 -2.3832,-0.72646 -10.89849,-0.59908 l -10.89849,0.16303 -1.58755,3.80592 c -0.87316,2.09325 -1.95811,4.04061 -2.41101,4.32746 -0.4529,0.28686 -5.55969,0.52569 -11.34843,0.53072 -12.01209,0.0105 -11.38284,0.26463 -13.67477,-5.52378 l -1.36183,-3.4394 -10.69775,0 c -7.43552,0 -10.69776,0.20234 -10.69776,0.66352 z m 41.52455,22.42948 c 0.52041,0.19969 0.93213,0.9399 0.91493,1.64493 -0.0542,2.22147 -4.99279,13.84312 -5.88263,13.84312 -0.50777,0 -1.84074,-2.66739 -3.43752,-6.87879 -2.84052,-7.49165 -2.97856,-8.12665 -1.86445,-8.57619 1.08052,-0.43598 9.15192,-0.46197 10.26967,-0.0331 z"
         id="path5421"
         inkscape:connector-curvature="0" /></g></g></svg>