<?xml version="1.0" encoding="UTF-8" standalone="no"?>
<!-- Created with Inkscape (http://www.inkscape.org/) -->

<svg
   xmlns:dc="http://purl.org/dc/elements/1.1/"
   xmlns:cc="http://creativecommons.org/ns#"
   xmlns:rdf="http://www.w3.org/1999/02/22-rdf-syntax-ns#"
   xmlns:svg="http://www.w3.org/2000/svg"
   xmlns="http://www.w3.org/2000/svg"
   xmlns:sodipodi="http://sodipodi.sourceforge.net/DTD/sodipodi-0.dtd"
   xmlns:inkscape="http://www.inkscape.org/namespaces/inkscape"
   id="svg5871"
   version="1.1"
   inkscape:version="0.91 r13725"
   xml:space="preserve"
   width="300"
   height="300"
   viewBox="0 0 300 300"
   sodipodi:docname="areasVerdes.svg"><metadata
     id="metadata5877"><rdf:RDF><cc:Work
         rdf:about=""><dc:format>image/svg+xml</dc:format><dc:type
           rdf:resource="http://purl.org/dc/dcmitype/StillImage" /><dc:title /></cc:Work></rdf:RDF></metadata><defs
     id="defs5875"><clipPath
       clipPathUnits="userSpaceOnUse"
       id="clipPath5885"><path
         d="m 70.003,297.137 c 0,-117.649 95.373,-213.022 213.02,-213.022 l 0,0 c 117.649,0 213.022,95.373 213.022,213.022 l 0,0 c 0,117.649 -95.373,213.021 -213.022,213.021 l 0,0 c -117.647,0 -213.02,-95.372 -213.02,-213.021"
         id="path5887"
         inkscape:connector-curvature="0" /></clipPath><clipPath
       id="clipPath16"
       clipPathUnits="userSpaceOnUse"><path
         inkscape:connector-curvature="0"
         id="path18"
         d="m 0,566.93 566.93,0 L 566.93,0 0,0 0,566.93 Z" /></clipPath></defs><sodipodi:namedview
     pagecolor="#ffffff"
     bordercolor="#666666"
     borderopacity="1"
     objecttolerance="10"
     gridtolerance="10"
     guidetolerance="10"
     inkscape:pageopacity="0"
     inkscape:pageshadow="2"
     inkscape:window-width="1360"
     inkscape:window-height="704"
     id="namedview5873"
     showgrid="false"
     inkscape:zoom="1.8838554"
     inkscape:cx="219.67648"
     inkscape:cy="159.46019"
     inkscape:window-x="0"
     inkscape:window-y="27"
     inkscape:window-maximized="1"
     inkscape:current-layer="g5879" /><g
     id="g5879"
     inkscape:groupmode="layer"
     inkscape:label="Iconos (1)"
     transform="matrix(1.25,0,0,-1.25,0,300.00002)"><path
       inkscape:connector-curvature="0"
       id="path5891"
       style="fill:#257d59;fill-opacity:1;fill-rule:nonzero;stroke:none"
       d="m 22.372278,84.439682 70.26448,-70.265069 70.263892,70.265069 c 0,0 -12.28928,49.595858 -30.42195,88.069708 -11.48715,24.38067 -25.31884,44.28544 -39.841942,44.28544 -15.636773,0 -30.470242,-23.06852 -42.442083,-49.95275 C 33.501355,129.34469 22.372278,84.439682 22.372278,84.439682" /><path
       inkscape:connector-curvature="0"
       id="path5895"
       style="fill:#90c73a;fill-opacity:1;fill-rule:nonzero;stroke:none"
       d="m 50.194793,166.84202 c 0.207305,-0.0159 0.422265,-0.0159 0.636637,-0.0159 36.837203,0 32.369553,21.74872 46.677693,21.74872 14.309317,0 8.705027,-10.35816 25.398937,-15.92181 3.79155,-1.26385 6.94765,-1.12133 9.57076,-0.1437 -11.48715,24.38067 -25.31884,44.28544 -39.842533,44.28544 -15.636185,0 -30.469653,-23.06852 -42.441494,-49.95275" /><path
       inkscape:connector-curvature="0"
       id="path5899"
       style="fill:#52c73a;fill-opacity:1;fill-rule:nonzero;stroke:none"
       d="M 117.51207,137.35512 C 48.018504,137.35512 0.59898874,66.129074 0.59898874,-3.3639033 L 240.79151,-2.9113575 c 0,69.4929775 -53.78646,140.2664775 -123.27944,140.2664775"
       sodipodi:nodetypes="cccc" /><path
       d="m 158.24725,137.0788 9.28807,0 0,-19.26932 -9.28807,0 0,19.26932 z"
       style="fill:#614836;fill-opacity:1;fill-rule:nonzero;stroke:none"
       id="path5901"
       inkscape:connector-curvature="0" /><path
       inkscape:connector-curvature="0"
       id="path5905"
       style="fill:#aecf32;fill-opacity:1;fill-rule:nonzero;stroke:#90c73a;stroke-opacity:1"
       d="m 131.86326,165.70903 c -0.0548,-15.64679 8.59784,-33.60278 30.56153,-33.60278 0.15665,0 0.31095,0 0.4682,0.004 23.12271,0.24029 31.02502,18.34587 31.02502,35.91258 0,23.64097 -23.54085,59.47757 -31.02502,60.9982 -0.16608,0.0371 -0.3192,0.0542 -0.4682,0.0542 -7.18146,0 -30.46259,-36.5869 -30.56153,-63.36571" /><path
       inkscape:connector-curvature="0"
       id="path5909"
       style="fill:#aecf32;fill-opacity:1;fill-rule:nonzero;stroke:#90c73a;stroke-opacity:1"
       d="m 162.8927,229.02056 0,-96.91078 c 23.1233,0.24029 31.02561,18.34587 31.02561,35.91258 0,23.64097 -23.54144,59.47757 -31.02561,60.9982" /><path
       d="m 127.70928,99.496592 7.36933,0 0,-15.290481 -7.36933,0 0,15.290481 z"
       style="fill:#614836;fill-opacity:1;fill-rule:nonzero;stroke:none"
       id="path5911"
       inkscape:connector-curvature="0" /><g
       id="g4295"
       style="fill:#90c73a;fill-opacity:1"><path
         d="m 106.77152,122.21535 c -0.0424,-12.41707 6.82279,-26.665143 24.25228,-26.665143 0.12427,0 0.24618,0 0.37103,0.0035 18.34822,0.190814 24.61919,14.557259 24.61919,28.496139 0,18.75989 -18.68097,47.19772 -24.61919,48.40503 -0.13133,0.0289 -0.25324,0.0424 -0.37103,0.0424 -5.69911,0 -24.17395,-29.03207 -24.25228,-50.28197"
         style="fill:#90c73a;fill-opacity:1;fill-rule:nonzero;stroke:none"
         id="path5915"
         inkscape:connector-curvature="0" /><path
         d="m 131.39453,172.45474 0,-76.901172 c 18.34822,0.190814 24.61978,14.557852 24.61978,28.496722 0,18.7593 -18.68156,47.19714 -24.61978,48.40445"
         style="fill:#90c73a;fill-opacity:1;fill-rule:nonzero;stroke:none"
         id="path5919"
         inkscape:connector-curvature="0" /></g><path
       d="m 192.21694,113.27881 7.36991,0 0,-15.289299 -7.36991,0 0,15.289299 z"
       style="fill:#614836;fill-opacity:1;fill-rule:nonzero;stroke:none"
       id="path5921"
       inkscape:connector-curvature="0" /><g
       id="g4291"
       style="fill:#90c73a;fill-opacity:1"><path
         d="m 195.9023,186.2389 0,-76.90294 c 11.3299,0.1172 21.12092,5.32926 24.60741,12.81519 l -0.006,0.005 -8.61315,16.63208 8.61668,0 0,0.023 -14.06432,22.35651 7.81633,0 c -0.79742,0 -18.35706,25.0709 -18.35706,25.0709"
         style="fill:#90c73a;fill-opacity:1;fill-rule:nonzero;stroke:none"
         id="path5925"
         inkscape:connector-curvature="0" /><path
         d="m 195.9023,186.2389 0,-76.90294 c -11.33108,0.1172 -21.1221,5.32926 -24.60859,12.81519 l 0.006,0.005 8.61315,16.63208 -8.61668,0 0,0.023 14.06432,22.35651 -7.81515,0 c 0.79742,0 18.35706,25.0709 18.35706,25.0709"
         style="fill:#90c73a;fill-opacity:1;fill-rule:nonzero;stroke:none"
         id="path5929"
         inkscape:connector-curvature="0" /></g><g
       id="g4299"
       style="stroke:#90c73a;stroke-opacity:1"><path
         d="m 27.071673,85.468549 c 0,0 3.496498,12.063125 8.051899,14.41297 4.55599,2.349251 6.991819,0.171381 7.248594,-1.662559 0.287399,-1.833939 -9.999502,-9.312806 -9.999502,-9.312806 0,0 -0.458191,-0.62957 -0.114253,-0.887523 0.343348,-0.230273 14.527812,5.300991 16.675652,4.326895 2.121339,-0.945828 1.747366,-3.295672 0.544764,-4.584848 -1.203192,-1.261495 -15.129114,-3.181419 -15.129114,-3.181419 l -2.091302,-0.543585 -5.186738,1.432875 z"
         style="fill:#aecf32;fill-opacity:1;fill-rule:evenodd;stroke:#90c73a;stroke-opacity:1"
         id="path5933"
         inkscape:connector-curvature="0" /><path
         d="m 72.458659,70.568649 c 0,0 3.123703,3.781542 4.899927,4.126068 1.747366,0.31508 4.785674,-0.515906 4.871069,-4.011815 0.0854,-3.495909 -4.871069,-4.24091 -6.67615,-3.696147 -1.805082,0.573033 -3.094846,3.581894 -3.094846,3.581894"
         style="fill:#aecf32;fill-opacity:1;fill-rule:evenodd;stroke:#90c73a;stroke-opacity:1"
         id="path5937"
         inkscape:connector-curvature="0" /><path
         d="m 81.284593,34.235926 c 0,0 -4.441737,33.467325 -7.364614,36.90493 -2.922877,3.467641 -6.418197,4.269768 -13.266316,2.292718 -6.848119,-1.97705 -13.581985,-3.180241 -17.736322,-0.401063 -4.154337,2.750908 -9.111979,11.83403 -11.719777,13.983048 -2.635478,2.177287 -4.871069,0.143111 -8.023041,-1.518859 -3.123115,-1.69024 -12.14911,-9.541312 -12.034268,-10.229187 0.115431,-0.716732 0.544175,-1.747954 2.149607,-1.862208 1.575986,-0.143699 15.930652,-0.172557 15.930652,-0.172557 3.581894,-5.329259 4.040673,-6.045992 5.932327,-8.424105 1.346302,-1.633113 2.262683,-2.177287 3.295083,-3.695558 1.345714,-2.034765 -1.089527,-26.963143 -1.089527,-26.963143 0,0 -0.114253,-0.888701 0.601891,-1.34748 0.716143,-0.487048 2.005907,1.34748 2.320398,2.951735 0.315668,1.633701 5.530085,20.430692 5.530085,20.430692 0,0 0.172558,0.859254 0.975274,0.515317 0.80095,-0.315668 0.80095,-1.805081 0.830397,-2.120749 0.05772,-0.286222 -1.547129,-22.92306 -1.547129,-22.92306 0,0 0.08598,-0.77327 1.030634,-0.830396 0.946416,-0.02886 5.75977,24.584441 5.75977,24.584441 0,0 8.252136,-0.544764 10.458281,-0.31508 2.206734,0.200827 4.155515,-0.315079 4.155515,-0.315079 0,0 -0.573621,-8.36639 -1.002954,-9.685012 -0.401063,-1.346302 -4.040673,-11.489504 -3.896973,-12.636746 0.171969,-1.117207 0.830985,-1.432287 1.661971,-1.002954 0.859254,0.43051 1.547128,5.501817 2.349255,6.705597 0.802128,1.20378 2.607798,6.389929 3.238546,7.59312 0.62957,1.204369 2.664335,8.682058 2.664335,8.682058 0,0 0.659017,0.372795 1.289175,0.02886 0.630159,-0.315668 0.888701,-1.260906 0.888701,-1.260906 0,0 4.269179,-16.418878 4.412879,-17.736911 0.142522,-1.317444 0.286222,-1.890477 0.630159,-2.234414 0.343348,-0.344526 1.575986,1.002954 1.575986,1.002954"
         style="fill:#aecf32;fill-opacity:1;fill-rule:evenodd;stroke:#90c73a;stroke-opacity:1"
         id="path5941"
         inkscape:connector-curvature="0" /></g><path
       inkscape:connector-curvature="0"
       id="path5945"
       style="fill:#257d59;fill-opacity:1;fill-rule:nonzero;stroke:none"
       d="m 37.968651,217.75662 c 2.053611,-0.57774 3.422882,-2.78389 4.101333,-5.05128 0.01472,0.47586 0.0106,0.93876 0.1437,1.39282 0.0012,0.0848 0.0065,0.17021 0.01649,0.25619 0.0035,0.033 0.01001,0.0854 0.02238,0.13958 0.01414,0.12426 0.04358,0.23616 0.09659,0.36043 0,0.005 -0.0018,0.008 -0.0018,0.0129 -5.89e-4,0.0183 0.02591,0.0177 0.02709,0 0.0018,-0.0218 0.0077,-0.0454 0.01237,-0.0683 0.0035,-0.005 0.0071,-0.01 0.01119,-0.0171 5.89e-4,-0.001 5.89e-4,-0.001 0.0012,-0.002 0.0018,-0.003 0.0053,-0.008 0.0077,-0.0118 0.0041,0 0.0077,-0.006 0.0088,-0.0153 0.0029,-0.005 0.0053,-0.008 0.0082,-0.0141 0.0065,-0.0112 0.01413,-0.0247 0.0212,-0.0365 0.122498,-0.11248 0.194348,-0.28328 0.270909,-0.42697 0.0041,-0.009 0.0082,-0.0188 0.01355,-0.0283 0.498237,-0.68434 0.906957,-2.87341 0.93876,-3.22324 0.01943,-0.2179 0.03887,-0.44111 0.05772,-0.66667 0.219672,0.66137 0.498238,1.18317 0.81155,1.32922 0.08481,0.0883 0.198471,0.19023 0.328625,0.19317 0.0106,5.9e-4 0.01885,-0.0153 0.0094,-0.023 -0.01413,-0.0112 -0.02356,-0.0259 -0.03416,-0.0412 0.02532,-0.15312 0.01708,-0.32097 -0.0159,-0.4841 0.08952,-1.09895 0.0318,-2.11958 -0.126032,-3.12194 0.152534,0.2503 0.382807,0.67551 0.667262,0.87751 0.096,0.12485 0.233218,0.2291 0.355127,0.26679 0.03769,0.0112 0.06537,-0.0253 0.05948,-0.0595 -0.0053,-0.0271 -0.01708,-0.0542 -0.02768,-0.0813 0.03357,-0.19847 0.01885,-0.39046 -0.02179,-0.58069 0.06537,-0.6172 0.130154,-1.24029 0.08245,-1.85926 0.01178,0.0153 0.02415,0.0289 0.03534,0.0448 0.19906,0.2768 0.528274,0.55183 0.792116,0.76797 0.05242,0.0442 0.09659,0.0789 0.1437,0.10247 0.0047,0.006 0.0082,0.0112 0.01237,0.0171 0.0047,0.0312 0.02415,0.0542 0.04947,0.0642 0.05771,0.0724 0.119553,0.13781 0.210838,0.18433 0.01767,0.009 0.03828,-0.01 0.02768,-0.0271 -0.03946,-0.0683 -0.05536,-0.14605 -0.08481,-0.2179 -0.01178,-0.0271 -0.02886,-0.053 -0.04652,-0.0789 -0.02709,-0.27444 0.129565,-0.97645 0.141344,-1.09188 0.04005,-0.37751 0.08893,-0.79447 0.02532,-1.17316 -0.01531,-0.0931 -0.03769,-0.18492 -0.05595,-0.27798 0.199649,0.21143 0.424032,0.40283 0.627803,0.60602 0.160779,0.16019 0.304479,0.3245 0.467025,0.46349 0.05065,0.066 0.108363,0.12662 0.183747,0.18021 0.115431,0.0819 0.240874,0.21908 0.405775,0.15901 0.0047,-0.002 0.0065,-0.009 0.0018,-0.0124 -0.01001,-0.004 -0.02061,-0.0159 -0.03121,-0.0289 -0.02297,-0.0813 0.0106,-0.17727 -0.01943,-0.25265 -0.04299,-0.10483 -0.07244,-0.21555 -0.118965,-0.31744 -0.01472,-0.0318 -0.02473,-0.063 -0.03651,-0.0936 -0.08068,-0.78328 -0.313901,-1.52298 -0.60189,-2.26916 -0.02415,-0.0589 -0.04476,-0.11543 -0.06655,-0.17315 0.118964,0.1384 0.23734,0.27386 0.34747,0.40342 0.07185,0.0848 0.649005,0.73676 0.997654,0.99235 0.100707,0.10719 0.218494,0.25325 0.367494,0.26503 0.01767,5.8e-4 0.02709,-0.0236 0.01414,-0.0348 -0.0106,-0.009 -0.01708,-0.0212 -0.02474,-0.0324 -0.0053,-0.0595 0.0047,-0.11661 -0.0077,-0.17433 -0.01531,-0.0807 -0.04888,-0.15665 -0.06596,-0.23793 -0.01296,-0.0613 -0.02061,-0.11661 -0.03534,-0.17197 0.05241,-0.84394 0.0071,-1.72852 -0.145467,-2.58777 0.157834,0.25206 0.351593,0.4841 0.551242,0.68846 0.371617,0.37987 0.753835,0.91874 1.306843,1.04359 0.0024,5.9e-4 0.0024,-0.004 0.0047,-0.005 0.01767,0.0106 0.04299,0.007 0.04888,-0.0171 0.144289,-0.58657 0.163724,-1.0801 0.07951,-1.68317 -0.03475,-0.2503 -0.118964,-0.60896 -0.234395,-0.93581 0.473502,0.798 1.409318,1.99413 1.671982,1.68729 0.01237,-0.0153 0.01649,-0.0342 0.0059,-0.0524 -0.0018,-0.003 -0.0035,-0.006 -0.0053,-0.009 -5.89e-4,-0.002 -0.0029,0 -0.0041,-0.002 0.128388,-0.53299 0.181392,-1.00001 0.096,-1.51945 0.0082,-0.0565 0.01531,-0.11249 0.01472,-0.16844 -5.89e-4,-0.19081 -0.06007,-0.33333 -0.109542,-0.51473 -0.01531,-0.0512 -0.03298,-0.0989 -0.04947,-0.14723 0.273854,0.33098 0.643115,0.53888 1.054191,0.73499 0.02473,0.0118 0.42521,0.12898 0.573032,0.11308 0.02415,0.0259 0.07008,0.0265 0.0801,-0.0141 0.08716,-0.37397 -0.08068,-0.77268 -0.222617,-1.11544 -0.06007,-0.14488 -0.146055,-0.29152 -0.254419,-0.41343 -0.02238,-0.0989 -0.05536,-0.19612 -0.09717,-0.28858 0.145467,0.14606 0.304479,0.28387 0.462902,0.42403 0.356893,0.31744 0.733222,0.61838 1.185523,0.7774 0.0024,0.0112 0.0053,0.0224 0.0077,0.0341 0.0018,0.008 0.01355,0.006 0.01355,-0.002 0,-0.007 -0.0012,-0.0159 -0.0012,-0.0236 0.0071,0.002 0.01296,0.006 0.02002,0.008 0.01472,0.005 0.02238,-0.0171 0.01001,-0.0247 -0.01001,-0.008 -0.02061,-0.0159 -0.03062,-0.023 -0.0059,-0.57009 -0.106008,-1.37045 -0.389285,-2.02063 0.60189,0.36691 1.351013,0.52239 1.973516,0.85513 0.997653,0.5324 1.947014,1.11426 2.906976,1.71615 1.210258,0.75796 2.232058,1.96999 3.167284,3.03007 2.362213,2.67729 2.583652,6.04363 3.315696,9.37052 0.0047,0.0512 0.0077,0.10306 0.01296,0.1543 0.0035,0.0477 0.01472,0.0948 0.02473,0.14134 -0.0053,0.0277 -0.0088,0.0554 -0.0018,0.0819 0.01885,0.076 0.03121,0.15194 0.03475,0.22968 0.0053,0.0883 0.06891,0.19494 0.09011,0.29152 -0.0029,0.0224 -0.0029,0.0453 -0.0065,0.0677 -0.0018,0.0106 0.0018,0.0194 0.0077,0.0259 -0.0018,0.005 0,0.009 -0.0012,0.0135 -0.0041,0.0135 0.0053,0.0194 0.0159,0.0194 0.0082,0.004 0.02002,0.003 0.02474,-0.009 0.01472,-0.0383 0.03239,-0.0671 0.05006,-0.0948 0.01531,-5.9e-4 0.0318,-0.005 0.04653,-0.0206 0.564788,-0.58658 0.603657,-1.52181 0.599535,-2.36751 0.195526,0.37986 0.414609,0.78681 0.780337,1.01002 0.0024,0.002 0.0041,0.004 0.0065,0.006 0.04829,0.0495 0.115431,0.0624 0.174913,0.0901 0.02061,0.0218 0.04122,0.0436 0.05595,0.0671 0.0059,0.009 0.01649,0.005 0.02061,-0.002 0.0029,0.0106 0.01944,0.0118 0.02415,0.002 l 0.0024,-0.005 c 0.0018,-0.001 0.0012,-0.002 0.0029,-0.004 0.07067,-0.12309 0.120143,-0.21555 0.124854,-0.35572 0.157834,-0.52945 0.08598,-1.12781 0.06066,-1.68906 0.105419,0.1596 0.21555,0.31155 0.313313,0.44995 0.109541,0.15606 0.234395,0.29858 0.365139,0.43581 0.05889,0.0613 0.142522,0.14723 0.216138,0.19022 0.0053,0.002 0.0094,0.004 0.01472,0.006 0.04299,0.0318 0.08598,0.0642 0.126031,0.10012 0.02002,0.0171 0.07244,0.0618 0.114842,0.10306 0.02356,0.0277 0.04829,0.0554 0.06302,0.0901 0.0071,0.0171 0.02945,0.008 0.03063,-0.008 0.0053,-0.002 0.01001,-0.003 0.0106,-0.009 0.0024,-0.002 0.0077,-0.002 0.0077,-0.007 5.89e-4,-0.0165 -0.0012,-0.033 -0.0012,-0.05 5.89e-4,-0.002 5.89e-4,-0.005 0.0012,-0.008 5.89e-4,-0.002 0.0059,-0.002 0.0041,-0.006 l -0.0012,-0.0118 c 5.89e-4,-0.004 0.0018,-0.008 0.0024,-0.0118 0.0053,-0.0171 0.01119,-0.0347 0.01649,-0.0518 0.01414,-0.0271 0.02768,-0.0536 0.03769,-0.0824 0.02473,-0.0771 0.03298,-0.15489 0.0371,-0.23558 0.223795,-0.4576 -0.0035,-1.20024 -0.157834,-1.6443 0.282099,0.20436 0.596,0.37986 0.855131,0.60542 0.03357,0.0294 0.07067,0.0548 0.107775,0.0772 0.01237,0.0306 0.0371,0.0536 0.07185,0.0565 0.08834,0.006 0.212605,0.0418 0.301534,0.0666 l 0.0018,0.008 c 0.0012,0.008 0.01354,0.006 0.01354,-0.002 l 0,-0.0212 c 0.01237,-0.006 0.02179,-0.0171 0.0018,-0.0265 0,0 -0.0012,-0.001 -0.0018,-0.002 0,-0.0507 -5.89e-4,-0.1066 -0.0059,-0.16372 0.05713,-0.5165 -0.05359,-0.85572 -0.306246,-1.30979 0.211427,0.12426 0.446412,0.25383 0.674918,0.33569 0.25972,0.0931 0.7344,0.12544 0.935815,0.32745 0.0035,0.003 0.0065,0.002 0.01001,5.9e-4 0.0029,0.002 0.0059,0.005 0.0082,0.007 0.02709,0.0612 0.053,0.12309 0.08363,0.18257 0.0106,0.0194 0.03828,0.006 0.03592,-0.0135 0.0047,-0.006 0.0071,-0.0136 -5.89e-4,-0.0194 -5.89e-4,-5.9e-4 -5.89e-4,-0.002 -0.0012,-0.002 -0.0106,-0.053 -0.01767,-0.10896 -0.02532,-0.16549 0.0012,-0.001 0.0041,5.9e-4 0.0035,-0.001 -0.0035,-0.0253 -0.01178,-0.0501 -0.0159,-0.0748 -0.0024,-0.0129 -0.0053,-0.0241 -0.0082,-0.0359 -0.141933,-0.67963 -0.654305,-1.34571 -1.051246,-1.87693 -0.06773,-0.0907 -0.137222,-0.18198 -0.207894,-0.27268 0.02061,0.0147 0.0424,0.0312 0.06243,0.0459 0.373384,0.27856 0.796239,0.59011 1.244417,0.73852 0.2927,0.0966 0.658428,0.15018 0.967029,0.25737 0.03769,0.0689 0.08952,0.13015 0.150178,0.15017 5.89e-4,0 5.89e-4,5.9e-4 0.0012,5.9e-4 0.01355,0.004 0.0265,0.008 0.04064,0.007 0.0082,0 0.0106,-0.007 0.01237,-0.013 0.0012,-0.004 0.0024,-0.004 0.0018,-0.006 0.0065,-0.0224 0.0094,-0.0448 0.01355,-0.0671 0,-0.001 0.0035,-5.9e-4 0.0024,-0.002 0,-5.9e-4 -0.0012,-0.001 -0.0012,-0.002 0.02945,-0.16961 -0.01885,-0.3298 -0.110131,-0.47056 -0.13251,-0.56007 -0.498238,-1.15136 -0.773269,-1.56008 -0.02061,-0.0306 -0.04358,-0.0601 -0.06478,-0.0901 0.751479,0.56832 1.580108,0.97822 2.582473,0.9264 0.01413,-5.9e-4 0.01885,-0.0241 0.0035,-0.0271 0,0 -5.89e-4,0 -0.0012,0 -0.0077,-0.008 -0.01355,-0.0129 -0.02002,-0.0182 -0.0012,-0.002 -0.0018,-0.005 -0.0029,-0.006 -5.89e-4,-0.002 -0.0012,-0.002 -0.0024,-0.004 -0.724977,-1.07127 -1.126041,-2.18023 -2.092481,-3.08836 -0.962906,-0.9046 -2.296841,-1.56657 -3.431127,-2.22146 -1.067736,-0.61544 -2.138417,-1.33158 -3.358098,-1.60425 -0.920504,-0.20613 -1.940536,-0.41579 -2.853972,-0.75148 -0.234396,-1.4105 -0.90578,-2.93172 -1.464089,-4.17201 -0.244407,-0.543 -0.477625,-1.08423 -0.753246,-1.59424 0.344526,0.20848 0.713198,0.35454 1.073626,0.30801 0.01237,0.0118 0.02709,0.0106 0.03593,-0.004 0.04888,-0.008 0.09717,-0.0194 0.146055,-0.0353 0.0053,-0.002 0.0077,-0.009 0.0018,-0.0124 -0.04888,-0.0224 -0.09305,-0.0465 -0.140755,-0.0689 0.01413,-0.80331 -0.505305,-1.71144 -0.946416,-2.35868 0.06773,0.0453 0.134866,0.0895 0.204949,0.13487 0.481747,0.31095 0.964084,0.59187 1.477634,0.84629 0.317435,0.15725 0.603657,0.39341 0.949361,0.26443 0.01178,-0.005 0.02415,-0.0182 0.01885,-0.0324 l -0.01237,-0.0294 c -0.0059,-0.0124 -0.0212,-0.0124 -0.0265,0 0.0065,-0.0153 -0.01943,-0.0471 -0.06949,-0.0901 -0.126032,-0.29506 -0.183747,-0.67492 -0.256186,-0.97351 -0.100119,-0.41225 -0.495293,-0.9629 -0.753246,-1.29742 -0.09305,-0.12132 -0.202004,-0.26855 -0.32038,-0.41932 0.02473,0.0212 0.04888,0.0436 0.07597,0.0642 0.07951,0.0589 0.155479,-0.0106 0.163135,-0.0889 0.424621,0.33157 0.906958,0.59246 1.497658,0.85807 0.547708,0.245 1.542417,1.16609 2.158441,0.84394 0.02591,-0.0135 0.03239,-0.0542 0.01001,-0.0736 -0.04005,-0.0348 -0.08363,-0.0666 -0.125443,-0.10012 -0.200826,-0.78623 -0.755601,-1.54477 -1.218503,-2.18436 -0.01178,-0.0159 -0.02415,-0.0318 -0.03651,-0.0477 0.07421,0.0206 0.159601,0.0295 0.226739,0.005 0.352771,0.27091 0.74029,0.49883 1.18729,0.65902 0.61308,0.22026 1.261496,0.51826 1.886354,0.68316 0.308601,0.0824 0.593645,0.23793 0.911669,0.17786 0.04299,-0.008 0.04181,-0.066 0.0106,-0.086 -0.0012,-0.001 -0.0024,-0.002 -0.0035,-0.003 l 0,-0.002 c 0.0094,0.01 0.01826,0.0212 0.02709,0.0312 0.0094,0.0112 0.02002,0.01 0.02945,0.004 0.0024,0.005 0.0047,0.01 0.0053,0.0153 0.0071,0.033 0.0583,-0.008 0.02179,-0.0212 -0.0053,-0.002 -0.01001,-0.007 -0.01472,-0.009 0.0018,-0.007 0.0018,-0.0135 -0.0012,-0.02 -0.0065,-0.0141 -0.01531,-0.0294 -0.02297,-0.0442 0.01708,-0.0112 0.02768,-0.0318 0.01884,-0.0554 -0.01943,-0.0506 -0.04358,-0.0772 -0.08598,-0.11484 -0.07067,-0.27739 -0.297411,-0.51178 -0.4417,-0.76738 -0.250297,-0.44641 -0.577155,-0.82568 -0.908724,-1.21438 0.23734,0.16255 0.471146,0.32274 0.689641,0.48587 0.386929,0.2874 0.942882,0.39223 1.392828,0.52003 0.61838,0.17609 1.216147,0.45466 1.861029,0.46643 0.05242,0.001 0.06537,-0.0671 0.02533,-0.0936 -0.01237,-0.008 -0.02533,-0.0141 -0.03828,-0.0218 0.01178,-0.0206 0.01708,-0.0448 0.0053,-0.0671 -0.287988,-0.54535 -0.621913,-1.07774 -1.032989,-1.5377 0.154889,0.0554 0.306834,0.10954 0.453479,0.16019 0.972918,0.34099 2.77211,0.23557 3.739139,-0.14193 0.01472,-0.006 0.02297,-0.03 0.0053,-0.0377 -0.01649,-0.007 -0.03593,-0.0106 -0.053,-0.0177 0.02061,-0.0171 0.02827,-0.0512 -0.0024,-0.066 -0.569498,-0.27798 -1.073626,-0.75502 -1.607199,-1.1549 0.574799,0.0942 1.170211,0.14959 1.816271,0.15253 0.571854,0.004 2.200844,-0.0559 2.342188,-0.8675 0.871033,-0.23969 1.711441,-0.69906 2.501201,-1.47999 0.02591,-0.0259 -0.0018,-0.0613 -0.03298,-0.0565 -0.349238,0.0518 -0.451712,0.15784 -0.777393,0.37044 -0.770325,0.50708 -1.989417,0.61249 -2.865161,0.84336 -1.306844,0.34452 -3.120759,-0.12486 -4.341029,-0.62604 -2.06009,-0.84571 -4.142558,-1.46527 -6.367549,-1.62192 -2.169042,-0.15254 -4.265057,-0.32333 -5.89817,1.39754 -1.035345,1.09011 -2.025931,2.41345 -2.730884,3.83278 -2.005908,-2.20262 -5.904648,-2.04537 -8.292184,-0.31685 -0.373384,-0.0748 -0.855721,0.096 -1.186701,0.15607 -0.333337,0.0607 -0.640171,0.096 -0.964084,0.2073 -0.257953,0.0883 -0.539464,0.0783 -0.78446,0.19435 -0.06066,0.0283 -0.08952,0.12721 -0.0477,0.18139 0.275032,0.35925 0.63546,0.64606 0.919326,0.99824 0.06773,0.0848 0.22085,0.38163 0.36985,0.56479 -0.257364,1.08717 0.02768,2.27328 0.692586,3.23325 0.226739,0.32803 0.551242,0.74087 0.932282,1.11249 -0.273855,0.0477 -0.54712,0.0989 -0.818618,0.16844 -1.166677,0.29446 -2.338655,0.74441 -3.512988,0.97056 -2.068335,0.39812 -3.513578,2.57894 -3.702037,4.52419 -0.112486,1.16019 -0.405775,2.19083 -0.441111,3.3687 -0.03828,1.27563 0.246174,2.55126 0.253242,3.82217 0.0088,1.5436 -0.07303,2.97 -0.441112,4.47825 -0.220261,0.90637 -0.417553,1.71203 -0.969384,2.49885 -0.444645,0.63605 -1.057725,1.14489 -1.458789,1.80155 -0.02002,0.0336 -0.02356,0.0648 -0.02002,0.0936 -0.01237,0.0182 -0.0212,0.04 -0.02297,0.0677 -5.89e-4,0.0141 -0.0018,0.0283 -0.0018,0.043 -0.0047,0.0854 0.08598,0.14782 0.164312,0.12544" /><path
       inkscape:connector-curvature="0"
       id="path5949"
       style="fill:#257d59;fill-opacity:1;fill-rule:evenodd;stroke:none"
       d="m 181.26701,101.7396 c 0,0 -0.32274,2.53771 0.78623,4.61076 1.10778,2.07305 1.53652,3.82336 1.60778,5.43232 0.10719,1.60779 0,3.71676 0,3.71676 0,0 0.42875,0.75089 0.85749,0.53711 0.46585,-0.17845 0.78623,-0.96526 0.78623,-0.96526 0,0 0.17903,-5.07484 0.0365,-5.57544 -0.10836,-0.50059 -0.32214,-1.21555 -0.32214,-1.21555 0,0 4.28861,2.42994 4.75328,3.0383 0.46526,0.60719 2.43112,3.78802 3.18201,5.897 0.74971,2.10897 0.14252,4.07365 0.14252,4.07365 0,0 -2.43053,0.10836 -3.32453,1.21615 -0.89341,1.1437 -0.96468,2.57364 -0.78564,3.25268 0.17845,0.6437 0.7503,1.78623 0.7503,1.78623 0,0 0.92934,0.35807 1.10779,0.14311 0.21496,-0.21437 0.0724,-0.89341 0.0724,-0.89341 0,0 -0.67962,-2.35868 -0.3934,-3.07364 0.24912,-0.74972 2.57305,-1.03653 2.57305,-1.03653 0,0 0.35748,3.00239 0.35748,3.36046 0,0.39282 0.85808,0.71437 1.42993,0.14311 0.53593,-0.60837 0.0713,-2.53831 0.0713,-2.53831 0,0 -0.14311,-5.86224 -0.28563,-7.25625 -0.14311,-1.42875 -2.39519,-4.71676 -2.39519,-4.71676 0,0 5.54068,2.85927 6.75506,4.93173 1.21497,2.07363 2.18024,7.18381 2.18024,7.86344 0,0.71555 -2.28742,4.21794 -2.28742,4.21794 0,0 0.24971,0.71437 0.60896,0.82097 0.35571,0.0719 0.78445,-0.28622 0.78445,-0.28622 0,0 0.89401,-1.57186 1.50237,-2.46528 0.60719,-0.92933 0.74972,-1.75207 0.74972,-1.75207 0,0 1.35867,0.39399 1.78741,1.25207 0.42933,0.85749 0.2503,1.92876 -0.46467,2.82276 -0.71555,0.92933 -1.394,1.39459 -1.394,1.39459 0,0 0.0353,0.99942 0.60719,0.99942 0.53651,0 1.03711,-0.4629 1.03711,-0.4629 0,0 1.28564,-1.57363 1.67964,-3.11016 0.42874,-1.53652 -0.14311,-2.5383 -0.71438,-3.3952 -0.57244,-0.85808 -2.46586,-1.788 -2.46586,-1.788 0,0 -1.03771,-4.10899 -1.57422,-6.00359 -0.49942,-1.85926 -4.85988,-5.32573 -6.50477,-6.11136 -1.64313,-0.82274 -4.36047,-0.75148 -5.53892,-1.64489 -1.14371,-0.89401 -4.14669,-2.60898 -5.11077,-4.21677 -0.92993,-1.64489 -1.42993,-3.00297 -1.42993,-3.00297 l -1.21497,0 z" /><path
       inkscape:connector-curvature="0"
       id="path5953"
       style="fill:#257d59;fill-opacity:1;fill-rule:evenodd;stroke:none"
       d="m 178.22859,101.7396 c 0,0 0.32215,2.53771 -0.78682,4.61076 -1.14253,2.07305 -1.53652,3.82336 -1.64312,5.43232 -0.0719,1.60779 0.0348,3.71676 0.0348,3.71676 0,0 -0.42934,0.75089 -0.89341,0.53711 -0.42816,-0.17845 -0.74972,-0.96526 -0.74972,-0.96526 0,0 -0.17962,-5.07484 -0.0719,-5.57544 0.10719,-0.50059 0.32097,-1.21555 0.32097,-1.21555 0,0 -4.2892,2.42994 -4.75269,3.0383 -0.46467,0.60719 -2.43053,3.78802 -3.18142,5.897 -0.7503,2.10897 -0.14252,4.07365 -0.14252,4.07365 0,0 2.43053,0.10836 3.32394,1.21615 0.89282,1.1437 1.0006,2.57364 0.82156,3.25268 -0.21496,0.6437 -0.7503,1.78623 -0.7503,1.78623 0,0 -0.96467,0.35807 -1.14312,0.14311 -0.17963,-0.21437 -0.0713,-0.89341 -0.0713,-0.89341 0,0 0.67845,-2.35868 0.42756,-3.07364 -0.2497,-0.74972 -2.57246,-1.03653 -2.57246,-1.03653 0,0 -0.35748,3.00239 -0.35748,3.36046 0,0.39282 -0.894,0.71437 -1.43111,0.14311 -0.53475,-0.60837 -0.0707,-2.53831 -0.0707,-2.53831 0,0 0.1437,-5.86224 0.28563,-7.25625 0.14311,-1.42875 2.39578,-4.71676 2.39578,-4.71676 0,0 -5.54009,2.85927 -6.75565,4.93173 -1.21556,2.07363 -2.21675,7.18381 -2.21675,7.86344 0,0.71555 2.32452,4.21794 2.32452,4.21794 0,0 -0.28622,0.71437 -0.60778,0.82097 -0.35748,0.0719 -0.82156,-0.28622 -0.82156,-0.28622 0,0 -0.89518,-1.57186 -1.50178,-2.46528 -0.60837,-0.92933 -0.75089,-1.75207 -0.75089,-1.75207 0,0 -1.35808,0.39399 -1.75149,1.25207 -0.42933,0.85749 -0.2503,1.92876 0.46526,2.82276 0.67904,0.92933 1.39342,1.39459 1.39342,1.39459 0,0 -0.0353,0.99942 -0.60719,0.99942 -0.57186,0 -1.07186,-0.4629 -1.07186,-0.4629 0,0 -1.25149,-1.57363 -1.68082,-3.11016 -0.42815,-1.53652 0.17845,-2.5383 0.75089,-3.3952 0.53593,-0.85808 2.46645,-1.788 2.46645,-1.788 0,0 1.03653,-4.10899 1.53535,-6.00359 0.5377,-1.85926 4.89816,-5.32573 6.54188,-6.11136 1.60896,-0.82274 4.32512,-0.75148 5.50358,-1.64489 1.17963,-0.89401 4.18202,-2.60898 5.11135,-4.21677 0.96586,-1.64489 1.46527,-3.00297 1.46527,-3.00297 l 1.21556,0 z" /><path
       inkscape:connector-curvature="0"
       id="path5957"
       style="fill:#9dca3d;fill-opacity:1;fill-rule:evenodd;stroke:none"
       d="m 142.30765,81.331055 c 0,0 -2.71439,-2.42994 -3.96647,-2.42994 -1.28741,0 -2.21557,1.358081 -1.78741,1.96586 0.42992,0.606602 8.29336,4.646686 13.76161,5.074841 5.50358,0.429332 19.40713,0.429332 19.40713,0.429332 0,0 3.71558,6.076027 4.50298,7.576041 0.78564,1.502369 3.03772,7.470621 3.03772,7.470621 0,0 -2.85927,-0.17786 -3.39402,0.60778 -0.53711,0.82215 -1.07304,2.21557 -1.07304,2.21557 0,0 2.10838,0.35807 3.10839,0.0353 1.00178,-0.32038 1.8946,-1.85749 1.8946,-1.85749 0,0 2.18023,0.0713 2.93053,0.14311 0.75148,0.0713 1.35926,-0.14311 1.35926,-0.14311 0,0 2.10838,1.82216 3.14432,1.82216 1.07303,0 2.03771,-0.32215 2.03771,-0.32215 0,0 -0.64371,-1.32274 -1.53712,-1.64371 -0.89282,-0.32156 -1.71497,-0.57068 -1.71497,-0.57068 0,0 7.39877,-4.075419 9.00656,-6.076615 1.57245,-2.037121 2.07304,-4.753871 2.10838,-5.111354 0.0365,-0.392819 -3.2515,-1.322156 -3.75269,-1.21497 -0.49941,0.07126 -5.39757,0.786227 -6.11195,0.535341 -0.67845,-0.214372 -1.3569,-1.107195 -1.46585,-2.894608 -0.14194,-1.786825 -2.32217,-16.405333 -2.03595,-19.586162 0.28564,-3.180242 -0.35748,-34.489714 -0.35748,-34.489714 0,0 -0.75089,-0.357483 -1.21556,-0.322147 -0.46467,0.03593 -0.894,0.429333 -0.894,0.429333 l 0.53652,32.917261 -1.21556,-0.07126 -1.24972,-0.214372 -0.57244,-32.953775 c 0,0 -0.5,-0.571854 -1.39401,-0.465257 -0.85807,0.107774 -1.17963,0.28681 -1.17963,0.28681 l 0.0359,33.525041 c 0,0 -9.72212,-1.107784 -15.65503,-0.929337 -5.897,0.179036 -9.36464,0.179036 -9.36464,0.179036 0,0 -0.32155,-26.270558 -0.64252,-28.592723 -0.32274,-2.287418 -0.57186,-3.93172 -0.57186,-3.93172 0,0 -0.60719,-0.143111 -1.21615,0.07126 -0.6066,0.179036 -1.07185,0.535929 -1.07185,0.535929 0,0 1.82333,20.265792 1.50178,24.732852 -0.32156,4.504164 -0.39282,8.185587 -0.39282,8.185587 l -1.68082,0.142522 -1.03652,-0.286221 c 0,0 -0.21496,-21.480173 -0.21496,-24.66218 0,-3.180241 -1.03594,-8.898786 -1.03594,-8.898786 0,0 -1.03652,-0.07126 -1.57245,-0.07126 -0.53475,0 -1.32157,0.321558 -1.32157,0.321558 0,0 1.49943,16.833487 1.57246,21.444836 0.10659,4.575425 0,7.791591 -0.28681,9.828712 -0.28505,2.073046 -1.21438,9.293371 1.03593,17.262819" /><g
       inkscape:label="Iconos (1)"
       id="g10"
       transform="translate(288.75643,-27.726962)"><g
         transform="matrix(0.92331574,0,0,0.92331574,-0.8288073,21.918927)"
         id="g4208"><g
           id="g20"
           transform="matrix(0.6693068,0,0,0.6693068,104.21782,201.51099)"
           style="fill:#ffffff;fill-opacity:1;stroke:#000000;stroke-opacity:1"><path
             d="m 0,0 c -0.169,0 -0.337,0.006 -0.507,0.006 -77.124,0 -139.646,-62.465 -139.646,-139.521 0,-77.056 62.522,-139.521 139.646,-139.521 0.17,0 0.338,0.004 0.507,0.006 76.892,0.274 139.142,62.629 139.142,139.515 C 139.142,-62.629 76.892,-0.274 0,0"
             style="fill:#ffffff;fill-opacity:1;fill-rule:nonzero;stroke:#000000;stroke-opacity:1"
             id="path22"
             inkscape:connector-curvature="0" /></g><g
           id="g24"
           transform="matrix(0.6693068,0,0,0.6693068,95.406522,68.41576)"><path
             d="m 0,0 0.007,-0.031 0,0.043 L 0,0 Z"
             style="fill:#014347;fill-opacity:1;fill-rule:nonzero;stroke:none"
             id="path26"
             inkscape:connector-curvature="0" /></g><path
           inkscape:connector-curvature="0"
           id="path30"
           style="fill:#90c73a;fill-opacity:1;fill-rule:nonzero;stroke:none"
           d="m 97.603683,154.278 -1.33125,-0.11512 -0.2704,-1.28708 -1.02538,-0.63718 -1.6398,-0.13721 c -0.0555,0.38486 -0.0957,0.67935 -0.0957,0.67935 l -0.635172,0 0,1.38212 2.677222,0 0.5562,1.42763 1.0642,0.0221 1.21947,-0.25233 -0.51938,-1.08227 z m -6.832952,-2.39076 -1.945675,-0.16331 0.103073,1.35266 0.874115,1.08629 1.167271,-0.91762 -0.198784,-1.35802 z m 50.825819,11.50471 1.87004,2.99247 2.51927,0.58431 1.79575,-0.77908 -0.16331,-2.0193 -3.84516,-2.7214 -2.17659,0 0,1.943 z m 5.05193,5.83435 0.85872,1.3192 3.06944,0.62112 0.77573,-3.73339 1.63578,-2.64176 1.08495,-1.24692 1.98182,-0.77238 -1.86268,-2.22009 -3.6156,-0.34804 -2.72006,0 0.30587,3.22539 2.26025,0.46919 -0.19075,1.51464 -2.10564,1.32322 -1.47783,1.00864 0,1.48118 z m 44.17692,-26.6257 -4.87723,-0.0817 -2.44699,2.68325 -0.46851,4.31368 -2.50321,-1.36672 -1.34598,-5.27481 -3.61425,3.84851 -0.14658,3.63702 -3.49178,3.00452 -1.29042,1.28105 -4.05265,0 1.28373,-3.60823 4.87322,-2.71739 0.846,-0.89754 -1.05282,-0.52808 0.0402,-2.85794 -2.37001,-0.99125 -2.03135,0.44509 -1.26298,1.79508 3.29433,-0.17602 0.88884,1.19806 -7.30415,4.92877 -0.55619,2.09828 -2.96704,-2.68258 -3.01121,0.61777 -4.58074,-5.95282 -0.89754,-2.33119 -2.92754,-0.26572 -4.33176,-0.0281 -2.59022,1.21211 -0.76301,5.14497 0.92967,2.45301 4.40806,0.96514 4.81097,-0.96514 0.58431,2.66116 -2.04206,0.48257 0.69943,4.14234 4.83775,0.75699 3.38268,4.78018 3.49645,0.58632 3.15445,-0.46718 1.15857,0 -0.63517,4.48904 -3.83647,-1.5481 -1.34665,3.35456 -2.2241,0.31056 -0.41631,2.29974 1.81784,1.97579 4.31435,1.69201 1.11238,1.98382 c -16.44352,14.48648 -37.98449,23.31865 -61.55481,23.37086 -0.0696,0 -0.13921,0.002 -0.20949,0.002 -20.527636,0 -39.517877,-6.66295 -54.964809,-17.91467 l 4.717944,0.0368 2.100954,-1.16325 3.960288,-0.85404 0.310558,-1.55681 6.298847,-0.23225 -0.853367,2.0193 -5.597412,0.15662 1.319203,1.24157 -0.460483,1.47983 -5.060628,0 5.521111,4.12026 5.286855,0 2.485805,-3.42351 4.126946,-0.23225 2.482459,2.41285 1.871382,-0.93301 -3.424174,-3.34453 c 0,0 -4.742708,-0.0796 -4.507781,-0.0796 0.234257,0 0.393552,-3.26288 0.393552,-3.26288 l 5.743322,0.15863 0.62781,1.55145 3.960288,0.23426 0.468515,2.32986 -2.332535,0.39288 0.779074,2.09694 1.787049,0.54214 6.220537,-0.30788 -3.432205,-3.11161 0.555525,-2.40683 3.575436,-0.54615 -0.234257,4.35317 3.420158,1.78906 6.069276,0.69942 6.994247,-3.09889 1.78304,-0.78978 0,-3.34319 2.80506,-0.69809 -1.40153,-2.64376 -3.18657,0 -0.7784,0 -1.17129,-3.03062 -9.064417,2.13911 7.12209,3.79296 -2.71738,2.30777 -6.144237,-0.7764 -0.536115,-0.55619 -0.02008,0.01 -0.09906,-0.13319 -1.76764,-1.83725 -2.920185,-0.24564 0.234926,-1.45842 1.016677,-0.42032 -0.03949,-0.48123 -2.37537,-0.33934 -0.174689,-1.38011 -2.276312,-0.11914 -0.408946,2.74014 -4.083441,-1.24089 -8.336216,-4.88126 0.93636,-3.43622 2.331195,-1.51865 4.66373,-0.64388 0,-5.30091 2.152491,0.34804 1.986502,4.14033 4.956887,1.57087 0,6.35707 2.756874,2.08155 6.668299,-1.57287 -0.46851,-4.1999 1.7924,0 4.895977,2.40883 0.2356,-5.51709 1.63177,-0.99593 1.9343,-1.17865 -0.15127,-3.27157 -1.78303,-0.60707 0,-2.27564 2.71738,-1.23755 -0.079,-2.25288 -1.19739,-0.10107 c -0.003,0.0382 -0.007,0.0616 -0.007,0.0616 l -1.43365,0.44174 -3.76619,1.16125 -0.217517,1.6659 -0.008,0 1.517977,1.04479 0,1.51933 -1.634437,0.40894 -0.4036,-1.40219 -2.86329,-0.44242 -0.28646,0.095 0,-0.14323 -0.99325,-0.15059 -0.80987,1.63445 -0.93769,0.40894 -2.042059,0 -0.928329,-0.75832 0,-1.69067 1.746891,-0.58163 1.724137,-0.24229 -0.38552,-0.16866 -1.572875,-1.74355 -0.695409,0.87211 -1.517319,0.40091 -4.14234,-3.89871 0.5408,-0.44442 -6.118133,-3.38669 -5.7547,-5.98494 -0.388867,-2.66518 -5.771433,-3.78962 -2.856601,-2.87601 0.314574,-5.75068 -3.96832,1.84662 0.03213,3.36393 -11.034862,-0.004 -5.711864,-2.89342 -2.486475,-4.57404 -0.981203,-3.62831 1.609013,-3.51721 4.501088,-0.54816 7.152882,4.7842 0.62781,-2.37068 -2.184617,-4.12494 5.449496,-0.92967 0.539461,-8.41051 7.467456,-1.26766 4.738692,5.48095 5.7547,-1.16928 2.022645,-2.81109 5.517096,0.32395 0.15461,1.63378 3.03129,-1.47783 3.422835,-5.36182 5.90329,-0.081 2.1806,-3.81036 0.30989,-4.66172 4.201897,-1.60031 2.33187,-0.8875 8.23783,-0.0796 2.41553,-3.95828 3.6504,-1.16995 -0.70411,-3.26823 -4.0038,-5.088735 -1.16727,-11.255733 -3.61024,-2.858609 -5.36717,0.160634 -1.78304,-3.096883 0,-0.02878 1.32389,-5.816945 -1.32389,-1.690669 -4.511787,-5.772771 -1.86268,-3.420828 -5.561273,-2.673211 -3.657762,-0.554186 -0.151263,-1.552122 2.566122,-0.735569 -0.309889,-1.670589 -2.299738,-2.214737 1.398182,-1.755591 2.764237,-0.07831 -0.153941,-2.136427 -0.736237,-2.097608 -0.237604,-1.70874 4.091476,-3.446261 -0.54549,-1.789057 -5.563277,0.104412 -5.541191,4.836411 -4.318367,7.584584 0.604384,7.322217 -3.265548,4.355848 1.32255,7.381785 -1.942328,0.546154 0,16.012496 c 0,0 -5.442134,4.125607 -5.751354,4.125607 -0.310558,0 -2.875342,0.696749 -2.875342,0.696749 l -0.548162,3.03196 -7.070557,8.861624 0.699426,3.18724 0.230241,5.21055 4.893302,3.41949 -0.698087,5.83301 -7.150204,0.53879 -5.596074,6.37782 -3.964974,1.08495 -2.561437,0.47052 0.305873,2.3312 -3.264878,0.4645 0,-1.31988 -8.162197,2.0193 -3.284958,5.02717 1.337945,2.43627 -5.171734,7.54376 -0.888839,5.51843 -2.097608,0 0.698756,-5.36181 3.574768,-5.51978 -0.388867,-2.1806 -3.030621,0.46651 -3.729378,6.35975 0,7.39986 -3.885326,1.8687 0,5.32501 c -4.805654,-11.25097 -7.470833,-23.62645 -7.470833,-36.61234 0,-51.583474 41.968213,-93.552357 93.553023,-93.552357 0.0703,0 0.13989,0.002 0.20949,0.002 29.16037,0.06559 55.22116,13.547439 72.34538,34.578397 l -3.08551,0 0,6.219868 -3.56606,4.807631 0,7.478834 -2.72944,2.715378 -0.23492,3.112276 3.46098,6.609405 -6.56657,11.585028 0.77841,7.85632 -5.90998,0.61443 -2.17324,2.17792 -3.96832,0 -2.01662,-1.86536 -6.99894,0 -0.23493,-0.62112 -3.888,0 -8.93726,10.18016 0.0716,7.93196 1.47649,0.54213 0.54883,3.03464 -2.09694,0 -0.85738,3.18523 10.34347,7.46077 0,5.28752 5.05795,2.81042 2.04741,-0.20481 4.16644,0 3.25684,1.74957 10.49741,0.81789 0,-5.36583 8.28267,-2.09895 1.63244,-1.16593 1.51665,0 0,2.91952 4.77818,0.46383 4.55263,-3.38335 7.45942,0 0.5234,0.47855 c -0.73892,2.51794 -1.58492,4.98835 -2.52597,7.41592" /><g
           id="g32"
           transform="matrix(0.6693068,0,0,0.6693068,93.778969,167.45095)"><path
             d="m 0,0 0.344,-1.614 2.094,-0.955 0,3.4 L 0,0 Z"
             style="fill:#014347;fill-opacity:1;fill-rule:nonzero;stroke:none"
             id="path34"
             inkscape:connector-curvature="0" /></g></g><g
         style="fill:#aecf32;fill-opacity:0.99901961"
         transform="matrix(0.6693068,0,0,0.6693068,217.77087,84.530281)"
         id="g36"><path
           inkscape:connector-curvature="0"
           id="path38"
           style="fill:#aecf32;fill-opacity:0.99901961;fill-rule:nonzero;stroke:none"
           d="m 0,0 0.48,70.458 c 0.03,4.155 -2.699,6.917 -6.852,6.945 -4.151,0.028 -6.921,-3.421 -6.945,-6.852 L -13.796,0.129 c -8.324,-2.727 -13.866,-10.272 -13.928,-19.229 -0.079,-11.736 8.851,-20.791 20.588,-20.869 11.738,-0.08 20.792,8.852 20.871,20.588 C 13.761,-10.461 8.288,-2.838 0,0" /></g><path
         d="m 212.93867,53.113354 c -10.1748,0.06827 -18.43338,8.439289 -18.36444,18.616099 0.0482,6.936696 3.78694,12.905574 9.34352,16.108207 l 0.58364,85.5441 c 0.0348,5.07602 4.22065,9.20632 9.29533,9.17218 5.07669,-0.0348 9.20632,-4.22065 9.17218,-9.29734 l -0.58296,-85.520005 c 5.53717,-3.275588 9.17017,-9.295333 9.12265,-16.234037 -0.0201,-10.17614 -8.39244,-18.459481 -18.56992,-18.389204 m 14.12706,36.888844 0.56757,83.222942 c 0.0536,7.85566 -5.92403,13.91623 -13.78036,13.96911 -7.85565,0.0522 -13.91823,-6.38452 -13.9691,-13.7817 l -0.5669,-83.198181 c -5.58738,-4.120922 -9.30939,-11.033523 -9.35959,-18.430033 -0.0883,-12.932345 10.01952,-23.175417 22.94986,-23.264435 12.93302,-0.08634 23.17944,10.019523 23.26645,22.952539 0.0509,7.39584 -3.60088,14.333874 -9.10793,18.529758"
         style="fill:#90c73a;fill-opacity:1;fill-rule:nonzero;stroke:none"
         id="path42"
         inkscape:connector-curvature="0" /></g></g></svg>