<?xml version="1.0" encoding="UTF-8" standalone="no"?>
<svg
   xmlns:dc="http://purl.org/dc/elements/1.1/"
   xmlns:cc="http://creativecommons.org/ns#"
   xmlns:rdf="http://www.w3.org/1999/02/22-rdf-syntax-ns#"
   xmlns:svg="http://www.w3.org/2000/svg"
   xmlns="http://www.w3.org/2000/svg"
   viewBox="0 0 708.66248 708.66248"
   height="708.66248"
   width="708.66248"
   xml:space="preserve"
   version="1.1"
   id="svg2"><metadata
     id="metadata8"><rdf:RDF><cc:Work
         rdf:about=""><dc:format>image/svg+xml</dc:format><dc:type
           rdf:resource="http://purl.org/dc/dcmitype/StillImage" /><dc:title></dc:title></cc:Work></rdf:RDF></metadata><defs
     id="defs6"><clipPath
       id="clipPath16"
       clipPathUnits="userSpaceOnUse"><path
         id="path18"
         d="m 70.003,297.137 c 0,-117.649 95.373,-213.022 213.02,-213.022 l 0,0 c 117.649,0 213.022,95.373 213.022,213.022 l 0,0 c 0,117.649 -95.373,213.021 -213.022,213.021 l 0,0 c -117.647,0 -213.02,-95.372 -213.02,-213.021" /></clipPath></defs><g
     transform="matrix(1.25,0,0,-1.25,0,708.6625)"
     id="g10"><g
       id="g12"><g
         clip-path="url(#clipPath16)"
         id="g14"><g
           transform="translate(115.5674,226.6016)"
           id="g20"><path
             id="path22"
             style="fill:#257d59;fill-opacity:1;fill-rule:nonzero;stroke:none"
             d="M 0,0 119.308,-119.309 238.615,0 c 0,0 -20.867,84.213 -51.656,149.541 -19.505,41.398 -42.991,75.196 -67.651,75.196 -26.551,0 -51.738,-39.17 -72.066,-84.819 C 18.897,76.248 0,0 0,0" /></g><g
           transform="translate(162.8096,366.5195)"
           id="g24"><path
             id="path26"
             style="fill:#4eb26e;fill-opacity:1;fill-rule:nonzero;stroke:none"
             d="m 0,0 c 0.352,-0.027 0.717,-0.027 1.081,-0.027 62.549,0 54.963,36.929 79.258,36.929 24.297,0 14.781,-17.588 43.127,-27.035 6.438,-2.146 11.797,-1.904 16.251,-0.244 C 120.212,51.021 96.726,84.819 72.065,84.819 45.515,84.819 20.328,45.649 0,0" /></g><g
           transform="translate(277.1133,316.4512)"
           id="g28"><path
             id="path30"
             style="fill:#91c6a5;fill-opacity:1;fill-rule:nonzero;stroke:none"
             d="m 0,0 c -117.999,0 -277.113,-166.368 -277.113,-284.366 l 490.766,70.712 C 213.653,-95.656 117.998,0 0,0" /></g><path
           id="path32"
           style="fill:#614836;fill-opacity:1;fill-rule:nonzero;stroke:none"
           d="m 346.281,315.982 15.771,0 0,-32.719 -15.771,0 0,32.719 z" /><g
           transform="translate(301.4814,364.5957)"
           id="g34"><path
             id="path36"
             style="fill:#257d59;fill-opacity:1;fill-rule:nonzero;stroke:none"
             d="m 0,0 c -0.093,-26.568 14.599,-57.057 51.893,-57.057 0.266,0 0.528,0 0.795,0.006 39.262,0.408 52.68,31.151 52.68,60.979 0,40.142 -39.972,100.992 -52.68,103.574 -0.282,0.063 -0.542,0.092 -0.795,0.092 C 39.699,107.594 0.168,45.47 0,0" /></g><g
           transform="translate(354.1689,472.0977)"
           id="g38"><path
             id="path40"
             style="fill:#257d59;fill-opacity:1;fill-rule:nonzero;stroke:none"
             d="m 0,0 0,-164.553 c 39.263,0.408 52.681,31.151 52.681,60.979 C 52.681,-63.432 12.708,-2.582 0,0" /></g><path
           id="path42"
           style="fill:#614836;fill-opacity:1;fill-rule:nonzero;stroke:none"
           d="m 294.428,252.168 12.513,0 0,-25.963 -12.513,0 0,25.963 z" /><g
           transform="translate(258.876,290.7441)"
           id="g44"><path
             id="path46"
             style="fill:#4eb26e;fill-opacity:1;fill-rule:nonzero;stroke:none"
             d="m 0,0 c -0.072,-21.084 11.585,-45.277 41.18,-45.277 0.211,0 0.418,0 0.63,0.006 31.155,0.324 41.803,24.718 41.803,48.386 0,31.854 -31.72,80.141 -41.803,82.191 -0.223,0.049 -0.43,0.072 -0.63,0.072 C 31.503,85.378 0.133,36.082 0,0" /></g><g
           transform="translate(300.6855,376.0498)"
           id="g48"><path
             id="path50"
             style="fill:#4eb26e;fill-opacity:1;fill-rule:nonzero;stroke:none"
             d="m 0,0 0,-130.577 c 31.155,0.324 41.804,24.719 41.804,48.387 C 41.804,-50.337 10.083,-2.05 0,0" /></g><path
           id="path52"
           style="fill:#614836;fill-opacity:1;fill-rule:nonzero;stroke:none"
           d="m 403.961,275.57 12.514,0 0,-25.961 -12.514,0 0,25.961 z" /><g
           transform="translate(410.2187,399.4551)"
           id="g54"><path
             id="path56"
             style="fill:#4eb26e;fill-opacity:1;fill-rule:nonzero;stroke:none"
             d="m 0,0 0,-130.58 c 19.238,0.199 35.863,9.049 41.783,21.76 l -0.01,0.009 -14.625,28.241 14.631,0 0,0.039 -23.881,37.961 13.272,0 C 29.816,-42.57 0,0 0,0" /></g><g
           transform="translate(410.2187,399.4551)"
           id="g58"><path
             id="path60"
             style="fill:#4eb26e;fill-opacity:1;fill-rule:nonzero;stroke:none"
             d="m 0,0 0,-130.58 c -19.24,0.199 -35.865,9.049 -41.785,21.76 l 0.01,0.009 14.625,28.241 -14.631,0 0,0.039 23.881,37.961 -13.27,0 C -29.816,-42.57 0,0 0,0" /></g><g
           transform="translate(123.5469,228.3486)"
           id="g62"><path
             id="path64"
             style="fill:#4eb26e;fill-opacity:1;fill-rule:evenodd;stroke:none"
             d="M 0,0 C 0,0 5.937,20.483 13.672,24.473 21.408,28.462 25.544,24.764 25.98,21.65 26.468,18.536 9.001,5.837 9.001,5.837 9.001,5.837 8.223,4.768 8.807,4.33 9.39,3.939 33.475,13.331 37.122,11.677 40.724,10.071 40.089,6.081 38.047,3.892 36.004,1.75 12.358,-1.51 12.358,-1.51 L 8.807,-2.433 0,0 Z" /></g><g
           transform="translate(200.6133,203.0488)"
           id="g66"><path
             id="path68"
             style="fill:#4eb26e;fill-opacity:1;fill-rule:evenodd;stroke:none"
             d="M 0,0 C 0,0 5.304,6.421 8.32,7.006 11.287,7.541 16.446,6.13 16.591,0.194 16.736,-5.742 8.32,-7.007 5.255,-6.082 2.19,-5.109 0,0 0,0" /></g><g
           transform="translate(215.5996,141.3564)"
           id="g70"><path
             id="path72"
             style="fill:#4eb26e;fill-opacity:1;fill-rule:evenodd;stroke:none"
             d="m 0,0 c 0,0 -7.542,56.827 -12.505,62.664 -4.963,5.888 -10.898,7.25 -22.526,3.893 -11.628,-3.357 -23.062,-5.4 -30.116,-0.681 -7.054,4.671 -15.472,20.094 -19.9,23.743 -4.475,3.697 -8.271,0.243 -13.623,-2.579 -5.303,-2.87 -20.629,-16.201 -20.434,-17.369 0.196,-1.217 0.924,-2.968 3.65,-3.162 2.676,-0.244 27.05,-0.293 27.05,-0.293 6.082,-9.049 6.861,-10.266 10.073,-14.304 2.286,-2.773 3.842,-3.697 5.595,-6.275 2.285,-3.455 -1.85,-45.783 -1.85,-45.783 0,0 -0.194,-1.509 1.022,-2.288 1.216,-0.827 3.406,2.288 3.94,5.012 0.536,2.774 9.39,34.691 9.39,34.691 0,0 0.293,1.459 1.656,0.875 1.36,-0.536 1.36,-3.065 1.41,-3.601 0.098,-0.486 -2.627,-38.923 -2.627,-38.923 0,0 0.146,-1.313 1.75,-1.41 1.607,-0.049 9.78,41.744 9.78,41.744 0,0 14.012,-0.925 17.758,-0.535 3.747,0.341 7.056,-0.535 7.056,-0.535 0,0 -0.974,-14.206 -1.703,-16.445 -0.681,-2.286 -6.861,-19.509 -6.617,-21.457 0.292,-1.897 1.411,-2.432 2.822,-1.703 1.459,0.731 2.627,9.342 3.989,11.386 1.362,2.044 4.428,10.85 5.499,12.893 1.069,2.045 4.524,14.742 4.524,14.742 0,0 1.119,0.633 2.189,0.049 1.07,-0.536 1.509,-2.141 1.509,-2.141 0,0 7.249,-27.879 7.493,-30.117 0.242,-2.237 0.486,-3.21 1.07,-3.794 C -2.093,-2.288 0,0 0,0" /></g><g
           transform="translate(142.0498,452.9717)"
           id="g74"><path
             id="path76"
             style="fill:#257d59;fill-opacity:1;fill-rule:nonzero;stroke:none"
             d="m 0,0 c 3.487,-0.981 5.812,-4.727 6.964,-8.577 0.025,0.808 0.018,1.594 0.244,2.365 0.002,0.144 0.011,0.289 0.028,0.435 0.006,0.056 0.017,0.145 0.038,0.237 0.024,0.211 0.074,0.401 0.164,0.612 0,0.008 -0.003,0.014 -0.003,0.022 -10e-4,0.031 0.044,0.03 0.046,0 0.003,-0.037 0.013,-0.077 0.021,-0.116 0.006,-0.008 0.012,-0.017 0.019,-0.029 0.001,-0.002 0.001,-0.002 0.002,-0.004 0.003,-0.005 0.009,-0.013 0.013,-0.02 0.007,0 0.013,-0.01 0.015,-0.026 0.005,-0.008 0.009,-0.014 0.014,-0.024 0.011,-0.019 0.024,-0.042 0.036,-0.062 0.208,-0.191 0.33,-0.481 0.46,-0.725 0.007,-0.016 0.014,-0.032 0.023,-0.048 0.846,-1.162 1.54,-4.879 1.594,-5.473 0.033,-0.37 0.066,-0.749 0.098,-1.132 0.373,1.123 0.846,2.009 1.378,2.257 0.144,0.15 0.337,0.323 0.558,0.328 0.018,0.001 0.032,-0.026 0.016,-0.039 -0.024,-0.019 -0.04,-0.044 -0.058,-0.07 0.043,-0.26 0.029,-0.545 -0.027,-0.822 0.152,-1.866 0.054,-3.599 -0.214,-5.301 0.259,0.425 0.65,1.147 1.133,1.49 0.163,0.212 0.396,0.389 0.603,0.453 0.064,0.019 0.111,-0.043 0.101,-0.101 -0.009,-0.046 -0.029,-0.092 -0.047,-0.138 0.057,-0.337 0.032,-0.663 -0.037,-0.986 0.111,-1.048 0.221,-2.106 0.14,-3.157 0.02,0.026 0.041,0.049 0.06,0.076 0.338,0.47 0.897,0.937 1.345,1.304 0.089,0.075 0.164,0.134 0.244,0.174 0.008,0.011 0.014,0.019 0.021,0.029 0.008,0.053 0.041,0.092 0.084,0.109 0.098,0.123 0.203,0.234 0.358,0.313 0.03,0.015 0.065,-0.017 0.047,-0.046 -0.067,-0.116 -0.094,-0.248 -0.144,-0.37 -0.02,-0.046 -0.049,-0.09 -0.079,-0.134 -0.046,-0.466 0.22,-1.658 0.24,-1.854 0.068,-0.641 0.151,-1.349 0.043,-1.992 -0.026,-0.158 -0.064,-0.314 -0.095,-0.472 0.339,0.359 0.72,0.684 1.066,1.029 0.273,0.272 0.517,0.551 0.793,0.787 0.086,0.112 0.184,0.215 0.312,0.306 0.196,0.139 0.409,0.372 0.689,0.27 0.008,-0.003 0.011,-0.015 0.003,-0.021 -0.017,-0.007 -0.035,-0.027 -0.053,-0.049 -0.039,-0.138 0.018,-0.301 -0.033,-0.429 -0.073,-0.178 -0.123,-0.366 -0.202,-0.539 -0.025,-0.054 -0.042,-0.107 -0.062,-0.159 -0.137,-1.33 -0.533,-2.586 -1.022,-3.853 -0.041,-0.1 -0.076,-0.196 -0.113,-0.294 0.202,0.235 0.403,0.465 0.59,0.685 0.122,0.144 1.102,1.251 1.694,1.685 0.171,0.182 0.371,0.43 0.624,0.45 0.03,0.001 0.046,-0.04 0.024,-0.059 -0.018,-0.016 -0.029,-0.036 -0.042,-0.055 -0.009,-0.101 0.008,-0.198 -0.013,-0.296 -0.026,-0.137 -0.083,-0.266 -0.112,-0.404 -0.022,-0.104 -0.035,-0.198 -0.06,-0.292 0.089,-1.433 0.012,-2.935 -0.247,-4.394 0.268,0.428 0.597,0.822 0.936,1.169 0.631,0.645 1.28,1.56 2.219,1.772 0.004,10e-4 0.004,-0.007 0.008,-0.008 0.03,0.018 0.073,0.012 0.083,-0.029 0.245,-0.996 0.278,-1.834 0.135,-2.858 -0.059,-0.425 -0.202,-1.034 -0.398,-1.589 0.804,1.355 2.393,3.386 2.839,2.865 0.021,-0.026 0.028,-0.058 0.01,-0.089 -0.003,-0.005 -0.006,-0.011 -0.009,-0.016 -0.001,-0.003 -0.005,0 -0.007,-0.003 0.218,-0.905 0.308,-1.698 0.163,-2.58 0.014,-0.096 0.026,-0.191 0.025,-0.286 -0.001,-0.324 -0.102,-0.566 -0.186,-0.874 -0.026,-0.087 -0.056,-0.168 -0.084,-0.25 0.465,0.562 1.092,0.915 1.79,1.248 0.042,0.02 0.722,0.219 0.973,0.192 0.041,0.044 0.119,0.045 0.136,-0.024 0.148,-0.635 -0.137,-1.312 -0.378,-1.894 -0.102,-0.246 -0.248,-0.495 -0.432,-0.702 -0.038,-0.168 -0.094,-0.333 -0.165,-0.49 0.247,0.248 0.517,0.482 0.786,0.72 0.606,0.539 1.245,1.05 2.013,1.32 0.004,0.019 0.009,0.038 0.013,0.058 0.003,0.013 0.023,0.01 0.023,-0.003 0,-0.012 -0.002,-0.027 -0.002,-0.04 0.012,0.004 0.022,0.011 0.034,0.014 0.025,0.008 0.038,-0.029 0.017,-0.042 -0.017,-0.013 -0.035,-0.027 -0.052,-0.039 -0.01,-0.968 -0.18,-2.327 -0.661,-3.431 1.022,0.623 2.294,0.887 3.351,1.452 1.694,0.904 3.306,1.892 4.936,2.914 2.055,1.287 3.79,3.345 5.378,5.145 4.011,4.546 4.387,10.262 5.63,15.911 0.008,0.087 0.013,0.175 0.022,0.262 0.006,0.081 0.025,0.161 0.042,0.24 -0.009,0.047 -0.015,0.094 -0.003,0.139 0.032,0.129 0.053,0.258 0.059,0.39 0.009,0.15 0.117,0.331 0.153,0.495 -0.005,0.038 -0.005,0.077 -0.011,0.115 -0.003,0.018 0.003,0.033 0.013,0.044 -0.003,0.008 0,0.016 -0.002,0.023 -0.007,0.023 0.009,0.033 0.027,0.033 0.014,0.007 0.034,0.005 0.042,-0.016 0.025,-0.065 0.055,-0.114 0.085,-0.161 0.026,-10e-4 0.054,-0.009 0.079,-0.035 0.959,-0.996 1.025,-2.584 1.018,-4.02 0.332,0.645 0.704,1.336 1.325,1.715 0.004,0.003 0.007,0.006 0.011,0.01 0.082,0.084 0.196,0.106 0.297,0.153 0.035,0.037 0.07,0.074 0.095,0.114 0.01,0.016 0.028,0.009 0.035,-0.004 0.005,0.018 0.033,0.02 0.041,0.004 l 0.004,-0.009 c 0.003,-0.002 0.002,-0.004 0.005,-0.006 0.12,-0.209 0.204,-0.366 0.212,-0.604 0.268,-0.899 0.146,-1.915 0.103,-2.868 0.179,0.271 0.366,0.529 0.532,0.764 0.186,0.265 0.398,0.507 0.62,0.74 0.1,0.104 0.242,0.25 0.367,0.323 0.009,0.004 0.016,0.006 0.025,0.01 0.073,0.054 0.146,0.109 0.214,0.17 0.034,0.029 0.123,0.105 0.195,0.175 0.04,0.047 0.082,0.094 0.107,0.153 0.012,0.029 0.05,0.013 0.052,-0.014 0.009,-0.003 0.017,-0.005 0.018,-0.016 0.004,-0.004 0.013,-0.003 0.013,-0.012 10e-4,-0.028 -0.002,-0.056 -0.002,-0.085 0.001,-0.004 0.001,-0.008 0.002,-0.014 10e-4,-0.004 0.01,-0.003 0.007,-0.01 l -0.002,-0.02 c 10e-4,-0.007 0.003,-0.013 0.004,-0.02 0.009,-0.029 0.019,-0.059 0.028,-0.088 0.024,-0.046 0.047,-0.091 0.064,-0.14 0.042,-0.131 0.056,-0.263 0.063,-0.4 0.38,-0.777 -0.006,-2.038 -0.268,-2.792 0.479,0.347 1.012,0.645 1.452,1.028 0.057,0.05 0.12,0.093 0.183,0.131 0.021,0.052 0.063,0.091 0.122,0.096 0.15,0.01 0.361,0.071 0.512,0.113 l 0.003,0.013 c 0.002,0.014 0.023,0.01 0.023,-0.003 l 0,-0.036 c 0.021,-0.01 0.037,-0.029 0.003,-0.045 0,0 -0.002,-0.002 -0.003,-0.003 0,-0.086 -0.001,-0.181 -0.01,-0.278 0.097,-0.877 -0.091,-1.453 -0.52,-2.224 0.359,0.211 0.758,0.431 1.146,0.57 0.441,0.158 1.247,0.213 1.589,0.556 0.006,0.005 0.011,0.003 0.017,0.001 0.005,0.004 0.01,0.008 0.014,0.012 0.046,0.104 0.09,0.209 0.142,0.31 0.018,0.033 0.065,0.01 0.061,-0.023 0.008,-0.01 0.012,-0.023 -0.001,-0.033 -10e-4,-0.001 -10e-4,-0.003 -0.002,-0.003 -0.018,-0.09 -0.03,-0.185 -0.043,-0.281 0.002,-0.002 0.007,10e-4 0.006,-0.002 -0.006,-0.043 -0.02,-0.085 -0.027,-0.127 -0.004,-0.022 -0.009,-0.041 -0.014,-0.061 -0.241,-1.154 -1.111,-2.285 -1.785,-3.187 -0.115,-0.154 -0.233,-0.309 -0.353,-0.463 0.035,0.025 0.072,0.053 0.106,0.078 0.634,0.473 1.352,1.002 2.113,1.254 0.497,0.164 1.118,0.255 1.642,0.437 0.064,0.117 0.152,0.221 0.255,0.255 10e-4,0 10e-4,10e-4 0.002,10e-4 0.023,0.007 0.045,0.014 0.069,0.012 0.014,0 0.018,-0.012 0.021,-0.022 0.002,-0.006 0.004,-0.006 0.003,-0.011 0.011,-0.038 0.016,-0.076 0.023,-0.114 0,-0.002 0.006,-0.001 0.004,-0.003 0,-0.001 -0.002,-0.002 -0.002,-0.003 0.05,-0.288 -0.032,-0.56 -0.187,-0.799 -0.225,-0.951 -0.846,-1.955 -1.313,-2.649 -0.035,-0.052 -0.074,-0.102 -0.11,-0.153 1.276,0.965 2.683,1.661 4.385,1.573 0.024,-0.001 0.032,-0.041 0.006,-0.046 0,0 -10e-4,0 -0.002,0 -0.013,-0.013 -0.023,-0.022 -0.034,-0.031 -0.002,-0.004 -0.003,-0.009 -0.005,-0.01 -10e-4,-0.003 -0.002,-0.004 -0.004,-0.006 -1.231,-1.819 -1.912,-3.702 -3.553,-5.244 -1.635,-1.536 -3.9,-2.66 -5.826,-3.772 -1.813,-1.045 -3.631,-2.261 -5.702,-2.724 -1.563,-0.35 -3.295,-0.706 -4.846,-1.276 -0.398,-2.395 -1.538,-4.978 -2.486,-7.084 -0.415,-0.922 -0.811,-1.841 -1.279,-2.707 0.585,0.354 1.211,0.602 1.823,0.523 0.021,0.02 0.046,0.018 0.061,-0.007 0.083,-0.013 0.165,-0.033 0.248,-0.06 0.009,-0.003 0.013,-0.015 0.003,-0.021 -0.083,-0.038 -0.158,-0.079 -0.239,-0.117 0.024,-1.364 -0.858,-2.906 -1.607,-4.005 0.115,0.077 0.229,0.152 0.348,0.229 0.818,0.528 1.637,1.005 2.509,1.437 0.539,0.267 1.025,0.668 1.612,0.449 0.02,-0.008 0.041,-0.031 0.032,-0.055 l -0.021,-0.05 c -0.01,-0.021 -0.036,-0.021 -0.045,0 0.011,-0.026 -0.033,-0.08 -0.118,-0.153 -0.214,-0.501 -0.312,-1.146 -0.435,-1.653 -0.17,-0.7 -0.841,-1.635 -1.279,-2.203 -0.158,-0.206 -0.343,-0.456 -0.544,-0.712 0.042,0.036 0.083,0.074 0.129,0.109 0.135,0.1 0.264,-0.018 0.277,-0.151 0.721,0.563 1.54,1.006 2.543,1.457 0.93,0.416 2.619,1.98 3.665,1.433 0.044,-0.023 0.055,-0.092 0.017,-0.125 -0.068,-0.059 -0.142,-0.113 -0.213,-0.17 -0.341,-1.335 -1.283,-2.623 -2.069,-3.709 -0.02,-0.027 -0.041,-0.054 -0.062,-0.081 0.126,0.035 0.271,0.05 0.385,0.009 0.599,0.46 1.257,0.847 2.016,1.119 1.041,0.374 2.142,0.88 3.203,1.16 0.524,0.14 1.008,0.404 1.548,0.302 0.073,-0.013 0.071,-0.112 0.018,-0.146 -0.002,-0.002 -0.004,-0.003 -0.006,-0.005 l 0,-0.004 c 0.016,0.017 0.031,0.036 0.046,0.053 0.016,0.019 0.034,0.017 0.05,0.007 0.004,0.008 0.008,0.017 0.009,0.026 0.012,0.056 0.099,-0.013 0.037,-0.036 -0.009,-0.003 -0.017,-0.012 -0.025,-0.016 0.003,-0.012 0.003,-0.023 -0.002,-0.034 -0.011,-0.024 -0.026,-0.05 -0.039,-0.075 0.029,-0.019 0.047,-0.054 0.032,-0.094 -0.033,-0.086 -0.074,-0.131 -0.146,-0.195 -0.12,-0.471 -0.505,-0.869 -0.75,-1.303 -0.425,-0.758 -0.98,-1.402 -1.543,-2.062 0.403,0.276 0.8,0.548 1.171,0.825 0.657,0.488 1.601,0.666 2.365,0.883 1.05,0.299 2.065,0.772 3.16,0.792 0.089,0.002 0.111,-0.114 0.043,-0.159 -0.021,-0.013 -0.043,-0.024 -0.065,-0.037 0.02,-0.035 0.029,-0.076 0.009,-0.114 -0.489,-0.926 -1.056,-1.83 -1.754,-2.611 0.263,0.094 0.521,0.186 0.77,0.272 1.652,0.579 4.707,0.4 6.349,-0.241 0.025,-0.011 0.039,-0.051 0.009,-0.064 -0.028,-0.012 -0.061,-0.018 -0.09,-0.03 0.035,-0.029 0.048,-0.087 -0.004,-0.112 -0.967,-0.472 -1.823,-1.282 -2.729,-1.961 0.976,0.16 1.987,0.254 3.084,0.259 0.971,0.006 3.737,-0.095 3.977,-1.473 1.479,-0.407 2.906,-1.187 4.247,-2.513 0.044,-0.044 -0.003,-0.104 -0.056,-0.096 -0.593,0.088 -0.767,0.268 -1.32,0.629 -1.308,0.861 -3.378,1.04 -4.865,1.432 -2.219,0.585 -5.299,-0.212 -7.371,-1.063 -3.498,-1.436 -7.034,-2.488 -10.812,-2.754 -3.683,-0.259 -7.242,-0.549 -10.015,2.373 -1.758,1.851 -3.44,4.098 -4.637,6.508 -3.406,-3.74 -10.026,-3.473 -14.08,-0.538 -0.634,-0.127 -1.453,0.163 -2.015,0.265 -0.566,0.103 -1.087,0.163 -1.637,0.352 -0.438,0.15 -0.916,0.133 -1.332,0.33 -0.103,0.048 -0.152,0.216 -0.081,0.308 0.467,0.61 1.079,1.097 1.561,1.695 0.115,0.144 0.375,0.648 0.628,0.959 -0.437,1.846 0.047,3.86 1.176,5.49 0.385,0.557 0.936,1.258 1.583,1.889 -0.465,0.081 -0.929,0.168 -1.39,0.286 -1.981,0.5 -3.971,1.264 -5.965,1.648 -3.512,0.676 -5.966,4.379 -6.286,7.682 -0.191,1.97 -0.689,3.72 -0.749,5.72 -0.065,2.166 0.418,4.332 0.43,6.49 0.015,2.621 -0.124,5.043 -0.749,7.604 -0.374,1.539 -0.709,2.907 -1.646,4.243 -0.755,1.08 -1.796,1.944 -2.477,3.059 -0.034,0.057 -0.04,0.11 -0.034,0.159 -0.021,0.031 -0.036,0.068 -0.039,0.115 -0.001,0.024 -0.003,0.048 -0.003,0.073 C -0.287,-0.068 -0.133,0.038 0,0" /></g><g
           transform="translate(385.3682,255.9766)"
           id="g78"><path
             id="path80"
             style="fill:#257d59;fill-opacity:1;fill-rule:evenodd;stroke:none"
             d="m 0,0 c 0,0 -0.548,4.309 1.335,7.829 1.881,3.52 2.609,6.492 2.73,9.224 0.182,2.73 0,6.311 0,6.311 0,0 0.728,1.275 1.456,0.912 0.791,-0.303 1.335,-1.639 1.335,-1.639 0,0 0.304,-8.617 0.062,-9.467 -0.184,-0.85 -0.547,-2.064 -0.547,-2.064 0,0 7.282,4.126 8.071,5.159 0.79,1.031 4.128,6.432 5.403,10.013 1.273,3.581 0.242,6.917 0.242,6.917 0,0 -4.127,0.184 -5.645,2.065 -1.517,1.942 -1.638,4.37 -1.334,5.523 0.303,1.093 1.274,3.033 1.274,3.033 0,0 1.578,0.608 1.881,0.243 0.365,-0.364 0.123,-1.517 0.123,-1.517 0,0 -1.154,-4.005 -0.668,-5.219 0.423,-1.273 4.369,-1.76 4.369,-1.76 0,0 0.607,5.098 0.607,5.706 0,0.667 1.457,1.213 2.428,0.243 0.91,-1.033 0.121,-4.31 0.121,-4.31 0,0 -0.243,-9.954 -0.485,-12.321 -0.243,-2.426 -4.067,-8.009 -4.067,-8.009 0,0 9.408,4.855 11.47,8.374 2.063,3.521 3.702,12.198 3.702,13.352 0,1.215 -3.884,7.162 -3.884,7.162 0,0 0.424,1.213 1.034,1.394 0.604,0.122 1.332,-0.486 1.332,-0.486 0,0 1.518,-2.669 2.551,-4.186 1.031,-1.578 1.273,-2.975 1.273,-2.975 0,0 2.307,0.669 3.035,2.126 0.729,1.456 0.425,3.275 -0.789,4.793 -1.215,1.578 -2.367,2.368 -2.367,2.368 0,0 0.06,1.697 1.031,1.697 0.911,0 1.761,-0.786 1.761,-0.786 0,0 2.183,-2.672 2.852,-5.281 0.728,-2.609 -0.243,-4.31 -1.213,-5.765 -0.972,-1.457 -4.187,-3.036 -4.187,-3.036 0,0 -1.762,-6.977 -2.673,-10.194 C 32.771,22.272 25.367,16.386 22.574,15.052 19.784,13.655 15.17,13.776 13.169,12.259 11.227,10.741 6.128,7.829 4.491,5.099 2.912,2.306 2.063,0 2.063,0 L 0,0 Z" /></g><g
           transform="translate(380.209,255.9766)"
           id="g82"><path
             id="path84"
             style="fill:#257d59;fill-opacity:1;fill-rule:evenodd;stroke:none"
             d="m 0,0 c 0,0 0.547,4.309 -1.336,7.829 -1.94,3.52 -2.609,6.492 -2.79,9.224 -0.122,2.73 0.059,6.311 0.059,6.311 0,0 -0.729,1.275 -1.517,0.912 -0.727,-0.303 -1.273,-1.639 -1.273,-1.639 0,0 -0.305,-8.617 -0.122,-9.467 0.182,-0.85 0.545,-2.064 0.545,-2.064 0,0 -7.283,4.126 -8.07,5.159 -0.789,1.031 -4.127,6.432 -5.402,10.013 -1.274,3.581 -0.242,6.917 -0.242,6.917 0,0 4.127,0.184 5.644,2.065 1.516,1.942 1.699,4.37 1.395,5.523 -0.365,1.093 -1.274,3.033 -1.274,3.033 0,0 -1.638,0.608 -1.941,0.243 -0.305,-0.364 -0.121,-1.517 -0.121,-1.517 0,0 1.152,-4.005 0.726,-5.219 -0.424,-1.273 -4.368,-1.76 -4.368,-1.76 0,0 -0.607,5.098 -0.607,5.706 0,0.667 -1.518,1.213 -2.43,0.243 -0.908,-1.033 -0.12,-4.31 -0.12,-4.31 0,0 0.244,-9.954 0.485,-12.321 0.243,-2.426 4.068,-8.009 4.068,-8.009 0,0 -9.407,4.855 -11.471,8.374 -2.064,3.521 -3.764,12.198 -3.764,13.352 0,1.215 3.947,7.162 3.947,7.162 0,0 -0.486,1.213 -1.032,1.394 -0.607,0.122 -1.395,-0.486 -1.395,-0.486 0,0 -1.52,-2.669 -2.55,-4.186 -1.033,-1.578 -1.275,-2.975 -1.275,-2.975 0,0 -2.306,0.669 -2.974,2.126 -0.729,1.456 -0.425,3.275 0.79,4.793 1.153,1.578 2.366,2.368 2.366,2.368 0,0 -0.06,1.697 -1.031,1.697 -0.971,0 -1.82,-0.786 -1.82,-0.786 0,0 -2.125,-2.672 -2.854,-5.281 -0.727,-2.609 0.303,-4.31 1.275,-5.765 0.91,-1.457 4.188,-3.036 4.188,-3.036 0,0 1.76,-6.977 2.607,-10.194 0.913,-3.157 8.317,-9.043 11.108,-10.377 2.732,-1.397 7.344,-1.276 9.345,-2.793 2.003,-1.518 7.101,-4.43 8.679,-7.16 C -2.912,2.306 -2.064,0 -2.064,0 L 0,0 Z" /></g><g
           transform="translate(319.2158,221.3232)"
           id="g86"><path
             id="path88"
             style="fill:#257d59;fill-opacity:1;fill-rule:evenodd;stroke:none"
             d="m 0,0 c 0,0 -4.609,-4.126 -6.735,-4.126 -2.186,0 -3.762,2.306 -3.035,3.338 0.73,1.03 14.082,7.89 23.367,8.617 9.345,0.729 32.953,0.729 32.953,0.729 0,0 6.309,10.317 7.646,12.864 1.334,2.551 5.158,12.685 5.158,12.685 0,0 -4.855,-0.302 -5.763,1.032 -0.912,1.396 -1.822,3.762 -1.822,3.762 0,0 3.58,0.608 5.278,0.06 1.701,-0.544 3.217,-3.154 3.217,-3.154 0,0 3.702,0.121 4.976,0.243 1.276,0.121 2.308,-0.243 2.308,-0.243 0,0 3.58,3.094 5.339,3.094 1.822,0 3.46,-0.547 3.46,-0.547 0,0 -1.093,-2.246 -2.61,-2.791 -1.516,-0.546 -2.912,-0.969 -2.912,-0.969 0,0 12.563,-6.92 15.293,-10.318 2.67,-3.459 3.52,-8.072 3.58,-8.679 0.062,-0.667 -5.521,-2.245 -6.372,-2.063 -0.848,0.121 -9.165,1.335 -10.378,0.909 -1.152,-0.364 -2.304,-1.88 -2.489,-4.915 -0.241,-3.034 -3.943,-27.856 -3.457,-33.257 0.485,-5.4 -0.607,-58.563 -0.607,-58.563 0,0 -1.275,-0.607 -2.064,-0.547 -0.789,0.061 -1.518,0.729 -1.518,0.729 l 0.911,55.893 -2.064,-0.121 -2.122,-0.364 -0.972,-55.955 c 0,0 -0.849,-0.971 -2.367,-0.79 -1.457,0.183 -2.003,0.487 -2.003,0.487 l 0.061,56.925 c 0,0 -16.508,-1.881 -26.582,-1.578 -10.013,0.304 -15.901,0.304 -15.901,0.304 0,0 -0.546,-44.607 -1.091,-48.55 -0.548,-3.884 -0.971,-6.676 -0.971,-6.676 0,0 -1.031,-0.243 -2.065,0.121 -1.03,0.304 -1.82,0.91 -1.82,0.91 0,0 3.096,34.411 2.55,41.996 -0.546,7.648 -0.667,13.899 -0.667,13.899 l -2.854,0.242 -1.76,-0.486 c 0,0 -0.365,-36.473 -0.365,-41.876 0,-5.4 -1.759,-15.11 -1.759,-15.11 0,0 -1.76,-0.121 -2.67,-0.121 -0.908,0 -2.244,0.546 -2.244,0.546 0,0 2.546,28.583 2.67,36.413 0.181,7.769 0,13.23 -0.487,16.689 C -2.243,-25.792 -3.821,-13.532 0,0" /></g></g></g></g></svg>