<?xml version="1.0" encoding="iso-8859-1"?>
<!-- Generator: Adobe Illustrator 19.0.0, SVG Export Plug-In . SVG Version: 6.00 Build 0)  -->
<svg version="1.1" id="Layer_1" xmlns="http://www.w3.org/2000/svg" xmlns:xlink="http://www.w3.org/1999/xlink" x="0px" y="0px"
	 viewBox="0 0 342.284 342.284" style="enable-background:new 0 0 342.284 342.284;" xml:space="preserve">
<g id="XMLID_1031_">
	<g id="XMLID_1032_">
		<g id="XMLID_1033_">
			<g id="XMLID_1034_">
				<rect id="XMLID_1035_" x="256.318" y="217.674" style="fill:#9FCBA5;" width="23.69" height="102.331"/>
			</g>
			<path id="XMLID_1036_" style="fill:#2B7B57;" d="M268.145,53.338c-32.579-0.004-67.053,136.406-44.724,172.417
				c10.987,17.719,30.328,22.85,44.724,22.852c15.015-0.002,33.737-5.133,44.724-22.852
				C335.198,189.744,301.031,53.334,268.145,53.338z"/>
		</g>
		<g id="XMLID_1037_">
			<g id="XMLID_1038_">
				<rect id="XMLID_1039_" x="62.277" y="217.674" style="fill:#9FCBA5;" width="23.69" height="102.331"/>
			</g>
			<path id="XMLID_1040_" style="fill:#2B7B57;" d="M74.105,53.338c-32.58-0.004-67.053,136.406-44.724,172.417
				c10.987,17.719,30.328,22.85,44.724,22.852c15.015-0.002,33.737-5.133,44.724-22.852
				C141.158,189.744,106.991,53.334,74.105,53.338z"/>
		</g>
		<g id="XMLID_1041_">
			<rect id="XMLID_1042_" x="155.76" y="187.124" style="fill:#9FCBA5;" width="30.763" height="132.881"/>
		</g>
		<path id="XMLID_1043_" style="fill:#49B86E;" d="M171.12,0c-42.306-0.005-87.071,177.128-58.076,223.89
			c14.267,23.009,39.382,29.672,58.076,29.675c19.498-0.003,43.808-6.665,58.076-29.675C258.191,177.128,213.823-0.005,171.12,0z"/>
	</g>
	<g id="XMLID_1044_">
		<path id="XMLID_6_" style="fill:#2B7B57;" d="M14.33,325.558L14.33,325.558c0-9.237,7.488-16.726,16.726-16.726h280.173
			c9.237,0,16.726,7.488,16.726,16.726l0,0c0,9.237-7.488,16.726-16.726,16.726H31.056C21.819,342.284,14.33,334.795,14.33,325.558z
			"/>
	</g>
</g>
<g>
</g>
<g>
</g>
<g>
</g>
<g>
</g>
<g>
</g>
<g>
</g>
<g>
</g>
<g>
</g>
<g>
</g>
<g>
</g>
<g>
</g>
<g>
</g>
<g>
</g>
<g>
</g>
<g>
</g>
</svg>
