<?xml version="1.0" encoding="UTF-8" standalone="no"?>
<!-- Created with Inkscape (http://www.inkscape.org/) -->

<svg
   xmlns:dc="http://purl.org/dc/elements/1.1/"
   xmlns:cc="http://creativecommons.org/ns#"
   xmlns:rdf="http://www.w3.org/1999/02/22-rdf-syntax-ns#"
   xmlns:svg="http://www.w3.org/2000/svg"
   xmlns="http://www.w3.org/2000/svg"
   xmlns:sodipodi="http://sodipodi.sourceforge.net/DTD/sodipodi-0.dtd"
   xmlns:inkscape="http://www.inkscape.org/namespaces/inkscape"
   id="svg2"
   version="1.1"
   inkscape:version="0.91 r13725"
   xml:space="preserve"
   width="300"
   height="300"
   viewBox="0 0 300 300"
   sodipodi:docname="Iconos (1).ai"><metadata
     id="metadata8"><rdf:RDF><cc:Work
         rdf:about=""><dc:format>image/svg+xml</dc:format><dc:type
           rdf:resource="http://purl.org/dc/dcmitype/StillImage" /><dc:title></dc:title></cc:Work></rdf:RDF></metadata><defs
     id="defs6"><clipPath
       clipPathUnits="userSpaceOnUse"
       id="clipPath16"><path
         d="m 0,566.93 566.93,0 L 566.93,0 0,0 0,566.93 Z"
         id="path18"
         inkscape:connector-curvature="0" /></clipPath></defs><sodipodi:namedview
     pagecolor="#ffffff"
     bordercolor="#666666"
     borderopacity="1"
     objecttolerance="10"
     gridtolerance="10"
     guidetolerance="10"
     inkscape:pageopacity="0"
     inkscape:pageshadow="2"
     inkscape:window-width="1360"
     inkscape:window-height="704"
     id="namedview4"
     showgrid="false"
     inkscape:zoom="0.94192768"
     inkscape:cx="243.29714"
     inkscape:cy="153.1605"
     inkscape:window-x="0"
     inkscape:window-y="27"
     inkscape:window-maximized="1"
     inkscape:current-layer="g10" /><g
     id="g10"
     inkscape:groupmode="layer"
     inkscape:label="Iconos (1)"
     transform="matrix(1.25,0,0,-1.25,0,300.00002)"><g
       id="g4208"
       transform="matrix(0.92331574,0,0,0.92331574,-0.8288073,21.918927)"><g
         style="fill:#ffffff;fill-opacity:1;stroke:#000000;stroke-opacity:1"
         transform="matrix(0.6693068,0,0,0.6693068,104.21782,201.51099)"
         id="g20"><path
           inkscape:connector-curvature="0"
           id="path22"
           style="fill:#ffffff;fill-opacity:1;fill-rule:nonzero;stroke:#000000;stroke-opacity:1"
           d="m 0,0 c -0.169,0 -0.337,0.006 -0.507,0.006 -77.124,0 -139.646,-62.465 -139.646,-139.521 0,-77.056 62.522,-139.521 139.646,-139.521 0.17,0 0.338,0.004 0.507,0.006 76.892,0.274 139.142,62.629 139.142,139.515 C 139.142,-62.629 76.892,-0.274 0,0" /></g><g
         transform="matrix(0.6693068,0,0,0.6693068,95.406522,68.41576)"
         id="g24"><path
           inkscape:connector-curvature="0"
           id="path26"
           style="fill:#014347;fill-opacity:1;fill-rule:nonzero;stroke:none"
           d="m 0,0 0.007,-0.031 0,0.043 L 0,0 Z" /></g><path
         d="m 97.603683,154.278 -1.33125,-0.11512 -0.2704,-1.28708 -1.02538,-0.63718 -1.6398,-0.13721 c -0.0555,0.38486 -0.0957,0.67935 -0.0957,0.67935 l -0.635172,0 0,1.38212 2.677222,0 0.5562,1.42763 1.0642,0.0221 1.21947,-0.25233 -0.51938,-1.08227 z m -6.832952,-2.39076 -1.945675,-0.16331 0.103073,1.35266 0.874115,1.08629 1.167271,-0.91762 -0.198784,-1.35802 z m 50.825819,11.50471 1.87004,2.99247 2.51927,0.58431 1.79575,-0.77908 -0.16331,-2.0193 -3.84516,-2.7214 -2.17659,0 0,1.943 z m 5.05193,5.83435 0.85872,1.3192 3.06944,0.62112 0.77573,-3.73339 1.63578,-2.64176 1.08495,-1.24692 1.98182,-0.77238 -1.86268,-2.22009 -3.6156,-0.34804 -2.72006,0 0.30587,3.22539 2.26025,0.46919 -0.19075,1.51464 -2.10564,1.32322 -1.47783,1.00864 0,1.48118 z m 44.17692,-26.6257 -4.87723,-0.0817 -2.44699,2.68325 -0.46851,4.31368 -2.50321,-1.36672 -1.34598,-5.27481 -3.61425,3.84851 -0.14658,3.63702 -3.49178,3.00452 -1.29042,1.28105 -4.05265,0 1.28373,-3.60823 4.87322,-2.71739 0.846,-0.89754 -1.05282,-0.52808 0.0402,-2.85794 -2.37001,-0.99125 -2.03135,0.44509 -1.26298,1.79508 3.29433,-0.17602 0.88884,1.19806 -7.30415,4.92877 -0.55619,2.09828 -2.96704,-2.68258 -3.01121,0.61777 -4.58074,-5.95282 -0.89754,-2.33119 -2.92754,-0.26572 -4.33176,-0.0281 -2.59022,1.21211 -0.76301,5.14497 0.92967,2.45301 4.40806,0.96514 4.81097,-0.96514 0.58431,2.66116 -2.04206,0.48257 0.69943,4.14234 4.83775,0.75699 3.38268,4.78018 3.49645,0.58632 3.15445,-0.46718 1.15857,0 -0.63517,4.48904 -3.83647,-1.5481 -1.34665,3.35456 -2.2241,0.31056 -0.41631,2.29974 1.81784,1.97579 4.31435,1.69201 1.11238,1.98382 c -16.44352,14.48648 -37.98449,23.31865 -61.55481,23.37086 -0.0696,0 -0.13921,0.002 -0.20949,0.002 -20.527636,0 -39.517877,-6.66295 -54.964809,-17.91467 l 4.717944,0.0368 2.100954,-1.16325 3.960288,-0.85404 0.310558,-1.55681 6.298847,-0.23225 -0.853367,2.0193 -5.597412,0.15662 1.319203,1.24157 -0.460483,1.47983 -5.060628,0 5.521111,4.12026 5.286855,0 2.485805,-3.42351 4.126946,-0.23225 2.482459,2.41285 1.871382,-0.93301 -3.424174,-3.34453 c 0,0 -4.742708,-0.0796 -4.507781,-0.0796 0.234257,0 0.393552,-3.26288 0.393552,-3.26288 l 5.743322,0.15863 0.62781,1.55145 3.960288,0.23426 0.468515,2.32986 -2.332535,0.39288 0.779074,2.09694 1.787049,0.54214 6.220537,-0.30788 -3.432205,-3.11161 0.555525,-2.40683 3.575436,-0.54615 -0.234257,4.35317 3.420158,1.78906 6.069276,0.69942 6.994247,-3.09889 1.78304,-0.78978 0,-3.34319 2.80506,-0.69809 -1.40153,-2.64376 -3.18657,0 -0.7784,0 -1.17129,-3.03062 -9.064417,2.13911 7.12209,3.79296 -2.71738,2.30777 -6.144237,-0.7764 -0.536115,-0.55619 -0.02008,0.01 -0.09906,-0.13319 -1.76764,-1.83725 -2.920185,-0.24564 0.234926,-1.45842 1.016677,-0.42032 -0.03949,-0.48123 -2.37537,-0.33934 -0.174689,-1.38011 -2.276312,-0.11914 -0.408946,2.74014 -4.083441,-1.24089 -8.336216,-4.88126 0.93636,-3.43622 2.331195,-1.51865 4.66373,-0.64388 0,-5.30091 2.152491,0.34804 1.986502,4.14033 4.956887,1.57087 0,6.35707 2.756874,2.08155 6.668299,-1.57287 -0.46851,-4.1999 1.7924,0 4.895977,2.40883 0.2356,-5.51709 1.63177,-0.99593 1.9343,-1.17865 -0.15127,-3.27157 -1.78303,-0.60707 0,-2.27564 2.71738,-1.23755 -0.079,-2.25288 -1.19739,-0.10107 c -0.003,0.0382 -0.007,0.0616 -0.007,0.0616 l -1.43365,0.44174 -3.76619,1.16125 -0.217517,1.6659 -0.008,0 1.517977,1.04479 0,1.51933 -1.634437,0.40894 -0.4036,-1.40219 -2.86329,-0.44242 -0.28646,0.095 0,-0.14323 -0.99325,-0.15059 -0.80987,1.63445 -0.93769,0.40894 -2.042059,0 -0.928329,-0.75832 0,-1.69067 1.746891,-0.58163 1.724137,-0.24229 -0.38552,-0.16866 -1.572875,-1.74355 -0.695409,0.87211 -1.517319,0.40091 -4.14234,-3.89871 0.5408,-0.44442 -6.118133,-3.38669 -5.7547,-5.98494 -0.388867,-2.66518 -5.771433,-3.78962 -2.856601,-2.87601 0.314574,-5.75068 -3.96832,1.84662 0.03213,3.36393 -11.034862,-0.004 -5.711864,-2.89342 -2.486475,-4.57404 -0.981203,-3.62831 1.609013,-3.51721 4.501088,-0.54816 7.152882,4.7842 0.62781,-2.37068 -2.184617,-4.12494 5.449496,-0.92967 0.539461,-8.41051 7.467456,-1.26766 4.738692,5.48095 5.7547,-1.16928 2.022645,-2.81109 5.517096,0.32395 0.15461,1.63378 3.03129,-1.47783 3.422835,-5.36182 5.90329,-0.081 2.1806,-3.81036 0.30989,-4.66172 4.201897,-1.60031 2.33187,-0.8875 8.23783,-0.0796 2.41553,-3.95828 3.6504,-1.16995 -0.70411,-3.26823 -4.0038,-5.088735 -1.16727,-11.255733 -3.61024,-2.858609 -5.36717,0.160634 -1.78304,-3.096883 0,-0.02878 1.32389,-5.816945 -1.32389,-1.690669 -4.511787,-5.772771 -1.86268,-3.420828 -5.561273,-2.673211 -3.657762,-0.554186 -0.151263,-1.552122 2.566122,-0.735569 -0.309889,-1.670589 -2.299738,-2.214737 1.398182,-1.755591 2.764237,-0.07831 -0.153941,-2.136427 -0.736237,-2.097608 -0.237604,-1.70874 4.091476,-3.446261 -0.54549,-1.789057 -5.563277,0.104412 -5.541191,4.836411 -4.318367,7.584584 0.604384,7.322217 -3.265548,4.355848 1.32255,7.381785 -1.942328,0.546154 0,16.012496 c 0,0 -5.442134,4.125607 -5.751354,4.125607 -0.310558,0 -2.875342,0.696749 -2.875342,0.696749 l -0.548162,3.03196 -7.070557,8.861624 0.699426,3.18724 0.230241,5.21055 4.893302,3.41949 -0.698087,5.83301 -7.150204,0.53879 -5.596074,6.37782 -3.964974,1.08495 -2.561437,0.47052 0.305873,2.3312 -3.264878,0.4645 0,-1.31988 -8.162197,2.0193 -3.284958,5.02717 1.337945,2.43627 -5.171734,7.54376 -0.888839,5.51843 -2.097608,0 0.698756,-5.36181 3.574768,-5.51978 -0.388867,-2.1806 -3.030621,0.46651 -3.729378,6.35975 0,7.39986 -3.885326,1.8687 0,5.32501 c -4.805654,-11.25097 -7.470833,-23.62645 -7.470833,-36.61234 0,-51.583474 41.968213,-93.552357 93.553023,-93.552357 0.0703,0 0.13989,0.002 0.20949,0.002 29.16037,0.06559 55.22116,13.547439 72.34538,34.578397 l -3.08551,0 0,6.219868 -3.56606,4.807631 0,7.478834 -2.72944,2.715378 -0.23492,3.112276 3.46098,6.609405 -6.56657,11.585028 0.77841,7.85632 -5.90998,0.61443 -2.17324,2.17792 -3.96832,0 -2.01662,-1.86536 -6.99894,0 -0.23493,-0.62112 -3.888,0 -8.93726,10.18016 0.0716,7.93196 1.47649,0.54213 0.54883,3.03464 -2.09694,0 -0.85738,3.18523 10.34347,7.46077 0,5.28752 5.05795,2.81042 2.04741,-0.20481 4.16644,0 3.25684,1.74957 10.49741,0.81789 0,-5.36583 8.28267,-2.09895 1.63244,-1.16593 1.51665,0 0,2.91952 4.77818,0.46383 4.55263,-3.38335 7.45942,0 0.5234,0.47855 c -0.73892,2.51794 -1.58492,4.98835 -2.52597,7.41592"
         style="fill:#90c73a;fill-opacity:1;fill-rule:nonzero;stroke:none"
         id="path30"
         inkscape:connector-curvature="0" /><g
         transform="matrix(0.6693068,0,0,0.6693068,93.778969,167.45095)"
         id="g32"><path
           inkscape:connector-curvature="0"
           id="path34"
           style="fill:#014347;fill-opacity:1;fill-rule:nonzero;stroke:none"
           d="m 0,0 0.344,-1.614 2.094,-0.955 0,3.4 L 0,0 Z" /></g></g><g
       id="g36"
       transform="matrix(0.6693068,0,0,0.6693068,217.77087,84.530281)"
       style="fill:#aecf32;fill-opacity:0.99901961"><path
         d="m 0,0 0.48,70.458 c 0.03,4.155 -2.699,6.917 -6.852,6.945 -4.151,0.028 -6.921,-3.421 -6.945,-6.852 L -13.796,0.129 c -8.324,-2.727 -13.866,-10.272 -13.928,-19.229 -0.079,-11.736 8.851,-20.791 20.588,-20.869 11.738,-0.08 20.792,8.852 20.871,20.588 C 13.761,-10.461 8.288,-2.838 0,0"
         style="fill:#aecf32;fill-opacity:0.99901961;fill-rule:nonzero;stroke:none"
         id="path38"
         inkscape:connector-curvature="0" /></g><path
       inkscape:connector-curvature="0"
       id="path42"
       style="fill:#90c73a;fill-opacity:1;fill-rule:nonzero;stroke:none"
       d="m 212.93867,53.113354 c -10.1748,0.06827 -18.43338,8.439289 -18.36444,18.616099 0.0482,6.936696 3.78694,12.905574 9.34352,16.108207 l 0.58364,85.5441 c 0.0348,5.07602 4.22065,9.20632 9.29533,9.17218 5.07669,-0.0348 9.20632,-4.22065 9.17218,-9.29734 l -0.58296,-85.520005 c 5.53717,-3.275588 9.17017,-9.295333 9.12265,-16.234037 -0.0201,-10.17614 -8.39244,-18.459481 -18.56992,-18.389204 m 14.12706,36.888844 0.56757,83.222942 c 0.0536,7.85566 -5.92403,13.91623 -13.78036,13.96911 -7.85565,0.0522 -13.91823,-6.38452 -13.9691,-13.7817 l -0.5669,-83.198181 c -5.58738,-4.120922 -9.30939,-11.033523 -9.35959,-18.430033 -0.0883,-12.932345 10.01952,-23.175417 22.94986,-23.264435 12.93302,-0.08634 23.17944,10.019523 23.26645,22.952539 0.0509,7.39584 -3.60088,14.333874 -9.10793,18.529758" /></g></svg>