<?xml version="1.0" encoding="iso-8859-1"?>
<!-- Generator: Adobe Illustrator 19.0.0, SVG Export Plug-In . SVG Version: 6.00 Build 0)  -->
<svg version="1.1" id="Layer_1" xmlns="http://www.w3.org/2000/svg" xmlns:xlink="http://www.w3.org/1999/xlink" x="0px" y="0px"
	 viewBox="0 0 334.96 334.96" style="enable-background:new 0 0 334.96 334.96;" xml:space="preserve">
<g id="XMLID_827_">
	<g id="XMLID_828_">
		<path id="XMLID_37_" style="fill:#2B7B57;" d="M216.506,151.965c-6.914,6.914-17.648,8.534-25.704,8.63
			c-6.453,0.077-11.721-5.191-11.644-11.644c0.096-8.055,1.715-18.79,8.63-25.704c6.914-6.914,17.648-8.534,25.704-8.63
			c6.453-0.077,11.721,5.191,11.644,11.644C225.039,134.317,223.42,145.051,216.506,151.965z"/>
		<path id="XMLID_34_" style="fill:#2B7B57;" d="M147.172,188.972c-6.914,6.914-17.648,8.534-25.704,8.63
			c-6.453,0.077-11.721-5.191-11.644-11.644c0.096-8.055,1.715-18.79,8.63-25.704c6.914-6.914,17.648-8.534,25.704-8.63
			c6.453-0.077,11.721,5.191,11.644,11.644C155.706,171.324,154.087,182.058,147.172,188.972z"/>
	</g>
	<path id="XMLID_18_" style="fill:#49B86E;" d="M299.465,90.74c5.767-9.578,2.679-22.012-6.9-27.778c0,0-82.241-50.37-91.535-54.868
		c-9.292-4.497-17.69-8.068-26.083-8.068L107.94,0C97.554,0,91.151,0.166,77.505,8.995c-8.629,5.583-21.819,11.482-31.677,15.563
		C37.811,27.877,32.59,35.699,32.59,44.375v51.89c0,13.312,12.015,23.506,25.115,21.139c29.996-5.419,52.968-18.464,73.125-18.464
		h60.887c11.156,0,20.567-8.829,20.703-19.985c0.07-5.761-2.27-10.976-6.067-14.702l65.333,33.383
		C281.264,103.402,293.698,100.315,299.465,90.74L299.465,90.74z"/>
	<path id="XMLID_833_" style="fill:#49B86E;" d="M218.493,334.96H116.467c-16.796,0-31.199-11.988-34.247-28.504l-14.74-79.85h200
		l-14.74,79.85C249.691,322.972,235.289,334.96,218.493,334.96z"/>
	<path id="XMLID_3_" style="fill:#2B7B57;" d="M256.354,261.96H78.606c-12.91,0-23.376-10.466-23.376-23.376l0,0
		c0-12.91,10.466-23.376,23.376-23.376h177.748c12.91,0,23.376,10.466,23.376,23.376l0,0
		C279.73,251.494,269.264,261.96,256.354,261.96z"/>
</g>
<g>
</g>
<g>
</g>
<g>
</g>
<g>
</g>
<g>
</g>
<g>
</g>
<g>
</g>
<g>
</g>
<g>
</g>
<g>
</g>
<g>
</g>
<g>
</g>
<g>
</g>
<g>
</g>
<g>
</g>
</svg>
