<?xml version="1.0" encoding="UTF-8" standalone="no"?>
<svg
   xmlns:dc="http://purl.org/dc/elements/1.1/"
   xmlns:cc="http://creativecommons.org/ns#"
   xmlns:rdf="http://www.w3.org/1999/02/22-rdf-syntax-ns#"
   xmlns:svg="http://www.w3.org/2000/svg"
   xmlns="http://www.w3.org/2000/svg"
   xmlns:sodipodi="http://sodipodi.sourceforge.net/DTD/sodipodi-0.dtd"
   xmlns:inkscape="http://www.inkscape.org/namespaces/inkscape"
   viewBox="0 0 350 350"
   height="350"
   width="350"
   xml:space="preserve"
   version="1.1"
   id="svg2"
   inkscape:version="0.91 r13725"
   sodipodi:docname="capacitaciones.svg"><sodipodi:namedview
     pagecolor="#ffffff"
     bordercolor="#666666"
     borderopacity="1"
     objecttolerance="10"
     gridtolerance="10"
     guidetolerance="10"
     inkscape:pageopacity="0"
     inkscape:pageshadow="2"
     inkscape:window-width="640"
     inkscape:window-height="480"
     id="namedview33"
     showgrid="false"
     inkscape:zoom="0.66604345"
     inkscape:cx="175.05997"
     inkscape:cy="163.1302"
     inkscape:window-x="0"
     inkscape:window-y="27"
     inkscape:window-maximized="0"
     inkscape:current-layer="svg2" /><metadata
     id="metadata8"><rdf:RDF><cc:Work
         rdf:about=""><dc:format>image/svg+xml</dc:format><dc:type
           rdf:resource="http://purl.org/dc/dcmitype/StillImage" /><dc:title></dc:title></cc:Work></rdf:RDF></metadata><defs
     id="defs6"><clipPath
       id="clipPath16"
       clipPathUnits="userSpaceOnUse"><path
         id="path18"
         d="m 70.003,297.137 c 0,-117.649 95.373,-213.022 213.02,-213.022 l 0,0 c 117.649,0 213.022,95.373 213.022,213.022 l 0,0 c 0,117.649 -95.373,213.021 -213.022,213.021 l 0,0 c -117.647,0 -213.02,-95.372 -213.02,-213.021"
         inkscape:connector-curvature="0" /></clipPath></defs><g
     transform="matrix(0.8769642,0,0,-0.8769642,-71.052251,423.72037)"
     id="g10"><g
       id="g12"><g
         clip-path="url(#clipPath16)"
         id="g14"><g
           transform="translate(194.6992,432.7236)"
           id="g20"><path
             id="path22"
             style="fill:#4eb26e;fill-opacity:1;fill-rule:nonzero;stroke:none"
             d="M 0,0 C 13.762,0 24.924,11.162 24.924,24.925 24.924,38.691 13.762,49.849 0,49.849 -13.771,49.849 -24.926,38.691 -24.926,24.925 -24.926,11.162 -13.771,0 0,0"
             inkscape:connector-curvature="0" /></g><g
           transform="translate(188.8164,374.8687)"
           id="g24"><path
             id="path26"
             style="fill:#4eb26e;fill-opacity:1;fill-rule:nonzero;stroke:none"
             d="m 0,0 3.996,39.967 2.295,0 2.293,0 L 12.582,0 6.291,-5.111 0,0 Z m 6.076,52.74 0.43,0 5.549,0 -3.414,-8.828 -2.135,0 -0.43,0 -2.135,0 -3.416,8.828 5.551,0 z m 116.016,-4.051 c -1.883,4.98 -7.446,7.49 -12.426,5.605 L 68.148,38.59 67.646,38.402 47.287,49.248 38.771,53.79 c -0.578,0.305 -1.171,0.548 -1.777,0.728 -0.092,0.024 -0.18,0.046 -0.273,0.069 -0.217,0.056 -0.426,0.116 -0.641,0.157 -0.041,0.008 -0.078,0.01 -0.113,0.021 -3.059,0.625 -6.106,0.789 -9.061,0.477 -2.931,0.041 -5.871,0.054 -8.806,0.079 L -6.361,55.35 c -3.511,-0.016 -7.022,-0.029 -10.529,-0.06 -0.757,-0.011 -1.494,-0.055 -2.227,-0.103 -14.245,-0.939 -24.023,-9.485 -27.427,-23.767 -0.1,-0.412 -0.545,-52.577 -0.545,-78.284 1.694,-2.851 3.469,-5.59 7.013,-6.437 5.454,-1.307 10.02,0.952 11.901,5.554 0.421,1.026 0.71,2.164 0.84,3.41 0.158,1.536 0.09,3.098 0.09,4.652 0.004,18.492 0,36.993 0,55.49 l 0,3.766 1.001,0 3.503,0 0,-4.386 c 0,-55.279 -0.009,-110.55 0.02,-165.819 0.005,-2.424 0.076,-4.897 0.548,-7.258 0.986,-4.94 4.752,-7.397 8.987,-9.303 l 6.649,0 c 7.154,2.485 9.828,7.492 10.141,14.49 0.025,0.557 0.039,1.118 0.035,1.698 -0.213,31.234 -0.09,62.471 -0.09,93.706 l 0,4.097 0.451,0 4.084,0 0,-4.022 c 0,-31.125 0.158,-62.248 -0.104,-93.373 -0.068,-8 2.295,-13.746 10.084,-16.596 l 6.645,0 c 7.721,2.787 9.979,8.617 9.955,16.381 C 34.533,-95.558 34.6,-40.303 34.6,14.957 l 0,4.535 c 0.117,0.278 0.24,0.763 0.365,1.373 0.629,3.035 1.334,9.446 1.84,12.132 l 20.297,-10.82 1.462,-0.779 3.872,-2.059 c 1.412,-0.754 2.966,-1.132 4.531,-1.132 1.154,0 2.308,0.205 3.41,0.626 l 19.793,7.479 26.322,9.954 c 4.971,1.885 7.483,7.447 5.6,12.423"
             inkscape:connector-curvature="0" /></g><path
           id="path28"
           style="fill:#91c6a5;fill-opacity:1;fill-rule:nonzero;stroke:none"
           d="m 376.924,357.346 -32.107,0 0,7.333 32.107,0 0,-7.333 z m 0,-13.557 -32.107,0 0,7.344 32.107,0 0,-7.344 z m -0.166,-14.264 -32.104,0 0,7.335 32.104,0 0,-7.335 z m -96.598,57.445 0,-73.855 48.662,0 52.324,0 0,73.855 -100.986,0 z"
           inkscape:connector-curvature="0" /><g
           transform="translate(384.5176,390.2925)"
           id="g30"><path
             id="path32"
             style="fill:#91c6a5;fill-opacity:1;fill-rule:nonzero;stroke:none"
             d="m 0,0 0,-80.501 c 0,-0.661 -0.537,-1.197 -1.193,-1.197 l -106.01,0 c -0.66,0 -1.197,0.536 -1.197,1.197 l 0,80.501 c 0,0.662 0.537,1.197 1.197,1.197 l 106.01,0 C -0.533,1.197 0.002,0.66 0.002,0 L 0,0 Z m -1.193,10.761 -50.014,0 0,4.98 c 0,1.652 -1.342,2.988 -2.992,2.988 -1.653,0 -2.989,-1.336 -2.989,-2.988 l 0,-4.98 -50.015,0 c -5.934,0 -10.76,-4.827 -10.76,-10.761 l 0,-80.501 c 0,-5.936 4.826,-10.764 10.76,-10.764 l 48.818,0 0,-52.756 -0.595,0 0,-1.701 -23.209,-6.914 c -2.065,-1.03 -2.905,-3.547 -1.87,-5.614 0.733,-1.464 2.209,-2.312 3.746,-2.312 0.625,0 1.268,0.143 1.87,0.439 l 19.463,5.041 0,-3.195 -3.29,0 0,-2.289 3.29,0 9.564,0 2.908,0 0,2.289 -2.908,0 0,3.195 20.504,-5.041 c 0.603,-0.296 1.238,-0.439 1.869,-0.439 1.535,0 3.012,0.848 3.748,2.312 1.033,2.067 0.191,4.579 -1.871,5.614 l -24.25,6.914 0,1.701 -0.6,0 0,52.756 48.823,0 c 5.935,0 10.759,4.828 10.759,10.764 L 9.566,0 c 0,5.932 -4.828,10.758 -10.759,10.761"
             inkscape:connector-curvature="0" /></g><g
           transform="translate(239.2715,135.6328)"
           id="g34"><path
             id="path36"
             style="fill:#257d59;fill-opacity:1;fill-rule:nonzero;stroke:none"
             d="m 0,0 c -6.545,0.104 -13.092,0.15 -19.639,0.182 l 0,-3.098 -4.185,-8.506 -0.658,-1.75 3.839,-65.543 c 9.899,0.764 19.276,3.418 27.768,7.613 0,7.696 0.002,15.387 0.002,23.084 l 0,5.413 5.15,0 0,-4.721 c 0,-6.99 0.004,-13.981 0.004,-20.973 9.274,5.512 17.278,12.928 23.481,21.709 0.006,3.41 0.006,6.817 -0.018,10.227 C 35.621,-15.457 20.912,-0.318 0,0"
             inkscape:connector-curvature="0" /></g><g
           transform="translate(207.7754,124.2109)"
           id="g38"><path
             id="path40"
             style="fill:#257d59;fill-opacity:1;fill-rule:nonzero;stroke:none"
             d="m 0,0 -4.182,8.506 0,3.107 c -6.201,-0.017 -12.4,-0.052 -18.603,-0.113 -18.433,-0.184 -31.092,-10.553 -35.362,-28.465 -0.113,-0.486 -0.429,-0.926 -0.651,-1.39 l 0,-14.833 c 6.123,-9.263 14.215,-17.126 23.667,-22.978 0,6.859 0.003,13.721 0.003,20.58 l 0,4.49 5.366,0 0,-5.23 0,-22.858 c 8.137,-4.168 17.104,-6.929 26.596,-7.933 L 0.664,-1.75 0,0 Z"
             inkscape:connector-curvature="0" /></g><g
           transform="translate(236.998,158.0312)"
           id="g42"><path
             id="path44"
             style="fill:#257d59;fill-opacity:1;fill-rule:nonzero;stroke:none"
             d="m 0,0 c 4.666,11.121 1.66,23.762 -8.061,31.311 -3.431,2.669 -7.822,4.107 -11.775,6.107 l -10.307,0 c -1.16,-0.523 -2.291,-1.152 -3.494,-1.557 C -46.199,31.66 -54.104,17.855 -51.271,5.021 -48.74,-6.441 -38.92,-15.332 -27.664,-16.361 -15.697,-17.455 -4.562,-10.869 0,0"
             inkscape:connector-curvature="0" /></g><g
           transform="translate(195.1172,135.7266)"
           id="g46"><path
             id="path48"
             style="fill:#257d59;fill-opacity:1;fill-rule:nonzero;stroke:none"
             d="m 0,0 24.516,0.088 8.703,-75.381 -50.323,4.594 14.889,41.91 L 0,0 Z"
             inkscape:connector-curvature="0" /></g><g
           transform="translate(383.2852,141.6348)"
           id="g50"><path
             id="path52"
             style="fill:#257d59;fill-opacity:1;fill-rule:nonzero;stroke:none"
             d="m 0,0 c -6.545,0.102 -13.092,0.15 -19.639,0.18 l 0,-3.098 -4.185,-8.504 -0.658,-1.752 3.839,-65.543 c 9.899,0.766 19.276,3.418 27.768,7.615 0,7.694 0.002,15.387 0.002,23.082 l 0,5.413 5.15,0 0,-4.719 c 0,-6.99 0.004,-13.981 0.004,-20.973 9.274,5.51 17.278,12.928 23.481,21.707 0.006,3.41 0.006,6.819 -0.018,10.227 C 35.621,-15.459 20.912,-0.32 0,0"
             inkscape:connector-curvature="0" /></g><g
           transform="translate(351.7891,130.2129)"
           id="g54"><path
             id="path56"
             style="fill:#257d59;fill-opacity:1;fill-rule:nonzero;stroke:none"
             d="m 0,0 -4.182,8.504 0,3.107 c -6.201,-0.015 -12.4,-0.05 -18.603,-0.113 -18.432,-0.184 -31.092,-10.551 -35.361,-28.463 -0.114,-0.486 -0.43,-0.926 -0.651,-1.39 l 0,-14.833 c 6.123,-9.265 14.215,-17.126 23.666,-22.98 0,6.861 0.004,13.721 0.004,20.582 l 0,4.488 5.365,0 0,-5.228 0,-22.86 c 8.137,-4.166 17.104,-6.927 26.596,-7.931 L 0.664,-1.752 0,0 Z"
             inkscape:connector-curvature="0" /></g><g
           transform="translate(381.0117,164.0332)"
           id="g58"><path
             id="path60"
             style="fill:#257d59;fill-opacity:1;fill-rule:nonzero;stroke:none"
             d="m 0,0 c 4.666,11.119 1.66,23.762 -8.061,31.311 -3.431,2.668 -7.822,4.107 -11.775,6.105 l -10.307,0 c -1.16,-0.523 -2.291,-1.15 -3.494,-1.557 C -46.199,31.66 -54.104,17.855 -51.271,5.02 -48.74,-6.443 -38.92,-15.334 -27.664,-16.361 -15.697,-17.455 -4.562,-10.869 0,0"
             inkscape:connector-curvature="0" /></g><g
           transform="translate(339.1309,141.7285)"
           id="g62"><path
             id="path64"
             style="fill:#257d59;fill-opacity:1;fill-rule:nonzero;stroke:none"
             d="m 0,0 24.516,0.086 8.703,-75.379 -50.323,4.592 14.889,41.912 L 0,0 Z"
             inkscape:connector-curvature="0" /></g></g></g></g></svg>