<?xml version="1.0" encoding="UTF-8" standalone="no"?>
<!-- Created with Inkscape (http://www.inkscape.org/) -->

<svg
   xmlns:dc="http://purl.org/dc/elements/1.1/"
   xmlns:cc="http://creativecommons.org/ns#"
   xmlns:rdf="http://www.w3.org/1999/02/22-rdf-syntax-ns#"
   xmlns:svg="http://www.w3.org/2000/svg"
   xmlns="http://www.w3.org/2000/svg"
   xmlns:sodipodi="http://sodipodi.sourceforge.net/DTD/sodipodi-0.dtd"
   xmlns:inkscape="http://www.inkscape.org/namespaces/inkscape"
   id="svg4602"
   version="1.1"
   inkscape:version="0.91 r13725"
   xml:space="preserve"
   width="300"
   height="300"
   viewBox="0 0 300 300"
   sodipodi:docname="capacitaciones.svg"><metadata
     id="metadata4608"><rdf:RDF><cc:Work
         rdf:about=""><dc:format>image/svg+xml</dc:format><dc:type
           rdf:resource="http://purl.org/dc/dcmitype/StillImage" /><dc:title /></cc:Work></rdf:RDF></metadata><defs
     id="defs4606"><clipPath
       clipPathUnits="userSpaceOnUse"
       id="clipPath4616"><path
         d="m 70.003,297.137 c 0,-117.649 95.373,-213.022 213.02,-213.022 l 0,0 c 117.649,0 213.022,95.373 213.022,213.022 l 0,0 c 0,117.649 -95.373,213.021 -213.022,213.021 l 0,0 c -117.647,0 -213.02,-95.372 -213.02,-213.021"
         id="path4618"
         inkscape:connector-curvature="0" /></clipPath><clipPath
       id="clipPath16"
       clipPathUnits="userSpaceOnUse"><path
         inkscape:connector-curvature="0"
         id="path18"
         d="m 0,566.93 566.93,0 L 566.93,0 0,0 0,566.93 Z" /></clipPath><clipPath
       clipPathUnits="userSpaceOnUse"
       id="clipPath4356"><rect
         style="opacity:0.23500001;fill:#aecf32;fill-opacity:1;stroke:#90c73a;stroke-width:2.83464575;stroke-miterlimit:4;stroke-dasharray:none;stroke-opacity:1"
         id="rect4358"
         width="139.33025"
         height="66.061752"
         x="182.37288"
         y="-142.7773"
         transform="scale(1,-1)" /></clipPath></defs><sodipodi:namedview
     pagecolor="#ffffff"
     bordercolor="#666666"
     borderopacity="1"
     objecttolerance="10"
     gridtolerance="10"
     guidetolerance="10"
     inkscape:pageopacity="0"
     inkscape:pageshadow="2"
     inkscape:window-width="1360"
     inkscape:window-height="704"
     id="namedview4604"
     showgrid="false"
     inkscape:zoom="0.66604345"
     inkscape:cx="235.37339"
     inkscape:cy="51.480943"
     inkscape:window-x="0"
     inkscape:window-y="27"
     inkscape:window-maximized="1"
     inkscape:current-layer="g4610"
     fit-margin-top="10"
     fit-margin-left="10"
     fit-margin-right="10"
     fit-margin-bottom="10" /><g
     id="g4610"
     inkscape:groupmode="layer"
     inkscape:label="Iconos (1)"
     transform="matrix(1.25,0,0,-1.25,-167.15925,395.14373)"><path
       inkscape:connector-curvature="0"
       id="path4622"
       style="fill:#90c73b;fill-opacity:0.68235296;fill-rule:nonzero;stroke:none"
       d="m 203.66203,279.20369 c 7.95416,0 14.40557,6.45141 14.40557,14.40614 0,7.95647 -6.45141,14.40557 -14.40557,14.40557 -7.95936,0 -14.40672,-6.4491 -14.40672,-14.40557 0,-7.95473 6.44736,-14.40614 14.40672,-14.40614" /><path
       inkscape:connector-curvature="0"
       id="path4626"
       style="fill:#90c73b;fill-opacity:0.68235296;fill-rule:nonzero;stroke:none"
       d="m 200.26189,245.76474 2.30961,23.10011 1.32646,0 1.32531,0 2.31076,-23.10011 -3.63607,-2.95405 -3.63607,2.95405 z m 3.5118,30.48265 0.24854,0 3.20721,0 -1.97323,-5.10241 -1.23398,0 -0.24854,0 -1.23398,0 -1.97438,5.10241 3.20836,0 z m 67.0549,-2.3414 c -1.08834,2.87834 -4.30364,4.32907 -7.18198,3.23958 l -23.99656,-9.07659 -0.29015,-0.10866 -11.76708,6.26876 -4.92208,2.62519 c -0.33407,0.17628 -0.67681,0.31673 -1.02707,0.42077 -0.0532,0.0139 -0.10404,0.0266 -0.15779,0.0399 -0.12542,0.0324 -0.24622,0.067 -0.37048,0.0907 -0.0237,0.005 -0.0451,0.006 -0.0653,0.0121 -1.76804,0.36124 -3.52915,0.45602 -5.23708,0.27569 -1.69406,0.0237 -3.39332,0.0312 -5.08969,0.0457 l -14.13796,0.0168 c -2.02929,-0.009 -4.05857,-0.0168 -6.08555,-0.0347 -0.43753,-0.006 -0.8635,-0.0318 -1.28716,-0.0595 -8.23332,-0.54273 -13.8848,-5.48214 -15.85225,-13.73685 -0.0578,-0.23813 -0.315,-30.38844 -0.315,-45.24656 0.9791,-1.64782 2.00502,-3.23091 4.05338,-3.72046 3.1523,-0.75542 5.79135,0.55024 6.87853,3.2101 0.24333,0.59301 0.41037,1.25075 0.4855,1.97091 0.0913,0.88778 0.052,1.79059 0.052,2.68877 0.002,10.688 0,21.3812 0,32.07209 l 0,2.17667 0.57856,0 2.02466,0 0,-2.53502 c 0,-31.95014 -0.005,-63.89565 0.0116,-95.84001 0.003,-1.40103 0.0439,-2.83037 0.31674,-4.19498 0.56988,-2.85522 2.74656,-4.27532 5.1943,-5.37695 l 3.84299,0 c 4.13486,1.43628 5.68038,4.33023 5.86129,8.37493 0.0144,0.32193 0.0225,0.64618 0.0202,0.98141 -0.12311,18.05262 -0.052,36.10697 -0.052,54.16017 l 0,2.36798 0.26067,0 2.36047,0 0,-2.32464 c 0,-17.98961 0.0913,-35.97808 -0.0601,-53.96769 -0.0393,-4.62384 1.32646,-7.94491 5.82835,-9.59216 l 3.84067,0 c 4.46258,1.61083 5.76766,4.98046 5.75379,9.46789 -0.0757,31.93685 -0.037,63.87311 -0.037,95.81227 l 0,2.62114 c 0.0676,0.16068 0.13871,0.441 0.21096,0.79357 0.36355,1.75416 0.77103,5.45959 1.06348,7.01205 l 11.73126,-6.25374 0.845,-0.45025 2.23794,-1.19006 c 0.81611,-0.4358 1.71429,-0.65427 2.61883,-0.65427 0.66699,0 1.33397,0.11848 1.97091,0.36181 l 11.43995,4.32271 15.21358,5.75321 c 2.87314,1.08949 4.32502,4.30422 3.23669,7.18024" /><path
       d="m 308.98426,235.63697 -18.55719,0 0,4.23833 18.55719,0 0,-4.23833 z m 0,-7.83567 -18.55719,0 0,4.24468 18.55719,0 0,-4.24468 z m -0.0959,-8.2443 -18.55546,0 0,4.23948 18.55546,0 0,-4.23948 z m -55.83169,33.20204 0,-42.68669 28.12565,0 30.24221,0 0,42.68669 -58.36786,0 z"
       style="fill:#aecf32;fill-opacity:1;fill-rule:nonzero;stroke:none"
       id="path4628"
       inkscape:connector-curvature="0" /><path
       inkscape:connector-curvature="0"
       id="path4632"
       style="fill:#aecf32;fill-opacity:1;fill-rule:nonzero;stroke:none"
       d="m 313.37321,254.67938 0,-46.52794 c 0,-0.38205 -0.31038,-0.69185 -0.68953,-0.69185 l -61.27163,0 c -0.38146,0 -0.69184,0.3098 -0.69184,0.69185 l 0,46.52794 c 0,0.38262 0.31038,0.69184 0.69184,0.69184 l 61.27163,0 c 0.38147,0 0.69069,-0.31037 0.69069,-0.69184 l -0.001,0 z m -0.68953,6.21964 -28.90708,0 0,2.87834 c 0,0.95482 -0.77565,1.727 -1.72931,1.727 -0.9554,0 -1.72758,-0.77218 -1.72758,-1.727 l 0,-2.87834 -28.90766,0 c -3.42973,0 -6.21906,-2.78991 -6.21906,-6.21964 l 0,-46.52794 c 0,-3.43089 2.78933,-6.22138 6.21906,-6.22138 l 28.21582,0 0,-30.49189 -0.3439,0 0,-0.98315 -13.41433,-3.99615 c -1.19353,-0.59532 -1.67903,-2.05009 -1.08083,-3.24478 0.42366,-0.84616 1.27676,-1.33629 2.16512,-1.33629 0.36123,0 0.73287,0.0827 1.08082,0.25374 l 11.24922,2.91359 0,-1.84664 -1.90156,0 0,-1.323 1.90156,0 5.5278,0 1.68076,0 0,1.323 -1.68076,0 0,1.84664 11.85089,-2.91359 c 0.34852,-0.17109 0.71554,-0.25374 1.08024,-0.25374 0.8872,0 1.74088,0.49013 2.16627,1.33629 0.59706,1.19469 0.1104,2.64657 -1.0814,3.24478 l -14.016,3.99615 0,0.98315 -0.34679,0 0,30.49189 28.2187,0 c 3.43031,0 6.21848,2.79049 6.21848,6.22138 l 0,46.52794 c 0,3.42858 -2.79048,6.21791 -6.21848,6.21964" /><g
       id="g4342"
       clip-path="url(#clipPath4356)"
       transform="translate(1.6,-1.6)"><g
         transform="matrix(0.92126373,0,0,0.92126373,18.757922,12.144977)"
         style="fill:#90c73a;fill-opacity:1"
         id="g4261"><path
           inkscape:connector-curvature="0"
           id="path4636"
           style="fill:#90c73a;fill-opacity:1;fill-rule:nonzero;stroke:none"
           d="m 229.42391,107.49124 c -3.78288,0.0601 -7.56691,0.0867 -11.35094,0.10519 l 0,-1.79058 -2.41885,-4.91629 -0.38031,-1.011469 2.21887,-37.882523 c 5.72142,0.441576 11.14113,1.975535 16.04934,4.400159 0,4.448132 0.001,8.893374 0.001,13.342084 l 0,3.128604 2.9766,0 0,-2.728642 c 0,-4.040078 0.002,-8.080734 0.002,-12.121969 5.36018,3.185825 9.98633,7.472122 13.57154,12.547362 0.003,1.970911 0.003,3.940087 -0.0104,5.910998 -0.0711,12.083244 -8.5726,20.833276 -20.65931,21.017076" /><path
           inkscape:connector-curvature="0"
           id="path4640"
           style="fill:#90c73a;fill-opacity:1;fill-rule:nonzero;stroke:none"
           d="m 211.2198,100.88962 -2.41711,4.9163 0,1.79578 c -3.58405,-0.01 -7.16695,-0.0301 -10.75216,-0.0653 -10.6539,-0.10635 -17.97054,-6.09942 -20.43852,-16.452196 -0.0653,-0.280898 -0.24795,-0.535209 -0.37626,-0.803391 l 0,-8.573173 c 3.53897,-5.353826 8.21598,-9.898481 13.67905,-13.280818 0,3.964363 0.002,7.93046 0.002,11.894822 l 0,2.595129 3.10144,0 0,-3.022834 0,-13.21146 c 4.70302,-2.409019 9.88576,-4.004821 15.37195,-4.585113 l 2.21366,37.7808 -0.38378,1.011464 z" /><path
           inkscape:connector-curvature="0"
           id="path4644"
           style="fill:#90c73a;fill-opacity:1;fill-rule:nonzero;stroke:none"
           d="m 228.10987,120.43706 c 2.69685,6.42771 0.95945,13.73395 -4.65909,18.09712 -1.98305,1.54263 -4.52096,2.37377 -6.80572,3.52972 l -5.95723,0 c -0.67046,-0.30228 -1.32415,-0.66583 -2.01946,-0.89991 -7.26058,-2.42809 -11.82951,-10.4071 -10.1921,-17.82489 1.46287,-6.62481 7.13863,-11.76362 13.64437,-12.35837 6.91668,-0.63231 13.35249,3.17427 15.98923,9.45633" /><path
           inkscape:connector-curvature="0"
           id="path4648"
           style="fill:#90c73a;fill-opacity:1;fill-rule:nonzero;stroke:none"
           d="m 203.90362,107.54546 14.16975,0.0509 5.03016,-43.568686 -29.08567,2.655239 8.60553,24.223129 1.28023,16.639458 z" /></g><g
         id="g4332"
         style="fill:#90c73a;fill-opacity:1"
         transform="matrix(0.92126373,0,0,0.92126373,87.822486,11.544416)"><path
           d="m 229.42391,107.49124 c -3.78288,0.0601 -7.56691,0.0867 -11.35094,0.10519 l 0,-1.79058 -2.41885,-4.91629 -0.38031,-1.011469 2.21887,-37.882523 c 5.72142,0.441576 11.14113,1.975535 16.04934,4.400159 0,4.448132 0.001,8.893374 0.001,13.342084 l 0,3.128604 2.9766,0 0,-2.728642 c 0,-4.040078 0.002,-8.080734 0.002,-12.121969 5.36018,3.185825 9.98633,7.472122 13.57154,12.547362 0.003,1.970911 0.003,3.940087 -0.0104,5.910998 -0.0711,12.083244 -8.5726,20.833276 -20.65931,21.017076"
           style="fill:#90c73a;fill-opacity:1;fill-rule:nonzero;stroke:none"
           id="path4334"
           inkscape:connector-curvature="0" /><path
           d="m 211.2198,100.88962 -2.41711,4.9163 0,1.79578 c -3.58405,-0.01 -7.16695,-0.0301 -10.75216,-0.0653 -10.6539,-0.10635 -17.97054,-6.09942 -20.43852,-16.452196 -0.0653,-0.280898 -0.24795,-0.535209 -0.37626,-0.803391 l 0,-8.573173 c 3.53897,-5.353826 8.21598,-9.898481 13.67905,-13.280818 0,3.964363 0.002,7.93046 0.002,11.894822 l 0,2.595129 3.10144,0 0,-3.022834 0,-13.21146 c 4.70302,-2.409019 9.88576,-4.004821 15.37195,-4.585113 l 2.21366,37.7808 -0.38378,1.011464 z"
           style="fill:#90c73a;fill-opacity:1;fill-rule:nonzero;stroke:none"
           id="path4336"
           inkscape:connector-curvature="0" /><path
           d="m 228.10987,120.43706 c 2.69685,6.42771 0.95945,13.73395 -4.65909,18.09712 -1.98305,1.54263 -4.52096,2.37377 -6.80572,3.52972 l -5.95723,0 c -0.67046,-0.30228 -1.32415,-0.66583 -2.01946,-0.89991 -7.26058,-2.42809 -11.82951,-10.4071 -10.1921,-17.82489 1.46287,-6.62481 7.13863,-11.76362 13.64437,-12.35837 6.91668,-0.63231 13.35249,3.17427 15.98923,9.45633"
           style="fill:#90c73a;fill-opacity:1;fill-rule:nonzero;stroke:none"
           id="path4338"
           inkscape:connector-curvature="0" /><path
           d="m 203.90362,107.54546 14.16975,0.0509 5.03016,-43.568686 -29.08567,2.655239 8.60553,24.223129 1.28023,16.639458 z"
           style="fill:#90c73a;fill-opacity:1;fill-rule:nonzero;stroke:none"
           id="path4340"
           inkscape:connector-curvature="0" /></g></g></g></svg>