<?xml version="1.0" encoding="UTF-8" standalone="no"?>
<!-- Created with Inkscape (http://www.inkscape.org/) -->

<svg
   xmlns:dc="http://purl.org/dc/elements/1.1/"
   xmlns:cc="http://creativecommons.org/ns#"
   xmlns:rdf="http://www.w3.org/1999/02/22-rdf-syntax-ns#"
   xmlns:svg="http://www.w3.org/2000/svg"
   xmlns="http://www.w3.org/2000/svg"
   xmlns:sodipodi="http://sodipodi.sourceforge.net/DTD/sodipodi-0.dtd"
   xmlns:inkscape="http://www.inkscape.org/namespaces/inkscape"
   id="svg2"
   version="1.1"
   inkscape:version="0.91 r13725"
   xml:space="preserve"
   width="708.66248"
   height="708.66248"
   viewBox="0 0 708.66248 708.66248"
   sodipodi:docname="Iconos (1).ai"><metadata
     id="metadata8"><rdf:RDF><cc:Work
         rdf:about=""><dc:format>image/svg+xml</dc:format><dc:type
           rdf:resource="http://purl.org/dc/dcmitype/StillImage" /><dc:title></dc:title></cc:Work></rdf:RDF></metadata><defs
     id="defs6"><clipPath
       clipPathUnits="userSpaceOnUse"
       id="clipPath16"><path
         d="m 70.265,283.497 c 0,-115.092 93.299,-208.388 208.389,-208.388 l 0,0 c 115.089,0 208.389,93.296 208.389,208.388 l 0,0 c 0,115.09 -93.3,208.389 -208.389,208.39 l 0,0 c -115.09,0 -208.389,-93.3 -208.389,-208.39"
         id="path18"
         inkscape:connector-curvature="0" /></clipPath><clipPath
       clipPathUnits="userSpaceOnUse"
       id="clipPath24"><path
         d="m -12.3623,482.162 613.9113,0 0,-410.6044 -613.9113,0 0,410.6044 z"
         id="path26"
         inkscape:connector-curvature="0" /></clipPath><clipPath
       clipPathUnits="userSpaceOnUse"
       id="clipPath278"><path
         d="m 0,566.93 566.93,0 L 566.93,0 0,0 0,566.93 Z"
         id="path280"
         inkscape:connector-curvature="0" /></clipPath><clipPath
       clipPathUnits="userSpaceOnUse"
       id="clipPath5626"><rect
         style="opacity:0.23500001;fill:#aecf32;fill-opacity:1;stroke:#90c73a;stroke-width:2.02701044;stroke-miterlimit:4;stroke-dasharray:none;stroke-opacity:1"
         id="rect5628"
         width="412.98901"
         height="428.77979"
         x="-15.668922"
         y="-488.03726"
         transform="scale(1,-1)" /></clipPath></defs><sodipodi:namedview
     pagecolor="#ffffff"
     bordercolor="#666666"
     borderopacity="1"
     objecttolerance="10"
     gridtolerance="10"
     guidetolerance="10"
     inkscape:pageopacity="0"
     inkscape:pageshadow="2"
     inkscape:window-width="1360"
     inkscape:window-height="704"
     id="namedview4"
     showgrid="false"
     inkscape:zoom="0.33302172"
     inkscape:cx="635.09762"
     inkscape:cy="772.11899"
     inkscape:window-x="0"
     inkscape:window-y="27"
     inkscape:window-maximized="1"
     inkscape:current-layer="g10" /><g
     id="g10"
     inkscape:groupmode="layer"
     inkscape:label="Iconos (1)"
     transform="matrix(1.25,0,0,-1.25,0,708.6625)"><g
       id="g28"
       transform="matrix(1.3984367,0,0,1.3984367,16.816063,-104.95016)"
       clip-path="url(#clipPath5626)"><g
         style="opacity:0.41999799"
         id="g30"
         clip-path="url(#clipPath24)"><g
           id="g32"
           transform="translate(599.5488,73.5576)"><path
             inkscape:connector-curvature="0"
             id="path34"
             style="fill:none;stroke:#237d59;stroke-width:4;stroke-linecap:butt;stroke-linejoin:miter;stroke-miterlimit:10;stroke-dasharray:none;stroke-opacity:1"
             d="m 0,0 -609.911,0 0,406.604 L 0,406.604 0,0 Z" /></g><path
           inkscape:connector-curvature="0"
           id="path36"
           style="fill:none;stroke:#237d59;stroke-width:4;stroke-linecap:butt;stroke-linejoin:miter;stroke-miterlimit:10;stroke-dasharray:none;stroke-opacity:1"
           d="m 40.468,429.336 -50.83,0 0,50.826 50.83,0 0,-50.826 z" /><path
           inkscape:connector-curvature="0"
           id="path38"
           style="fill:none;stroke:#237d59;stroke-width:4;stroke-linecap:butt;stroke-linejoin:miter;stroke-miterlimit:10;stroke-dasharray:none;stroke-opacity:1"
           d="m 40.468,378.51 -50.83,0 0,50.827 50.83,0 0,-50.827 z" /><path
           inkscape:connector-curvature="0"
           id="path40"
           style="fill:none;stroke:#237d59;stroke-width:4;stroke-linecap:butt;stroke-linejoin:miter;stroke-miterlimit:10;stroke-dasharray:none;stroke-opacity:1"
           d="m 40.468,327.687 -50.83,0 0,50.823 50.83,0 0,-50.823 z" /><path
           inkscape:connector-curvature="0"
           id="path42"
           style="fill:none;stroke:#237d59;stroke-width:4;stroke-linecap:butt;stroke-linejoin:miter;stroke-miterlimit:10;stroke-dasharray:none;stroke-opacity:1"
           d="m 40.468,276.861 -50.83,0 0,50.826 50.83,0 0,-50.826 z" /><path
           inkscape:connector-curvature="0"
           id="path44"
           style="fill:none;stroke:#237d59;stroke-width:4;stroke-linecap:butt;stroke-linejoin:miter;stroke-miterlimit:10;stroke-dasharray:none;stroke-opacity:1"
           d="m 40.468,226.034 -50.83,0 0,50.827 50.83,0 0,-50.827 z" /><path
           inkscape:connector-curvature="0"
           id="path46"
           style="fill:none;stroke:#237d59;stroke-width:4;stroke-linecap:butt;stroke-linejoin:miter;stroke-miterlimit:10;stroke-dasharray:none;stroke-opacity:1"
           d="m 40.468,175.209 -50.83,0 0,50.825 50.83,0 0,-50.825 z" /><path
           inkscape:connector-curvature="0"
           id="path48"
           style="fill:none;stroke:#237d59;stroke-width:4;stroke-linecap:butt;stroke-linejoin:miter;stroke-miterlimit:10;stroke-dasharray:none;stroke-opacity:1"
           d="m 40.468,124.383 -50.83,0 0,50.826 50.83,0 0,-50.826 z" /><path
           inkscape:connector-curvature="0"
           id="path50"
           style="fill:none;stroke:#237d59;stroke-width:4;stroke-linecap:butt;stroke-linejoin:miter;stroke-miterlimit:10;stroke-dasharray:none;stroke-opacity:1"
           d="m 40.468,73.558 -50.83,0 0,50.825 50.83,0 0,-50.825 z" /><path
           inkscape:connector-curvature="0"
           id="path52"
           style="fill:none;stroke:#237d59;stroke-width:4;stroke-linecap:butt;stroke-linejoin:miter;stroke-miterlimit:10;stroke-dasharray:none;stroke-opacity:1"
           d="m 91.293,429.336 -50.825,0 0,50.826 50.825,0 0,-50.826 z" /><path
           inkscape:connector-curvature="0"
           id="path54"
           style="fill:none;stroke:#237d59;stroke-width:4;stroke-linecap:butt;stroke-linejoin:miter;stroke-miterlimit:10;stroke-dasharray:none;stroke-opacity:1"
           d="m 142.116,429.336 -50.823,0 0,50.826 50.823,0 0,-50.826 z" /><path
           inkscape:connector-curvature="0"
           id="path56"
           style="fill:none;stroke:#237d59;stroke-width:4;stroke-linecap:butt;stroke-linejoin:miter;stroke-miterlimit:10;stroke-dasharray:none;stroke-opacity:1"
           d="m 192.942,429.336 -50.826,0 0,50.826 50.826,0 0,-50.826 z" /><path
           inkscape:connector-curvature="0"
           id="path58"
           style="fill:none;stroke:#237d59;stroke-width:4;stroke-linecap:butt;stroke-linejoin:miter;stroke-miterlimit:10;stroke-dasharray:none;stroke-opacity:1"
           d="m 243.767,429.336 -50.824,0 0,50.826 50.824,0 0,-50.826 z" /><path
           inkscape:connector-curvature="0"
           id="path60"
           style="fill:none;stroke:#237d59;stroke-width:4;stroke-linecap:butt;stroke-linejoin:miter;stroke-miterlimit:10;stroke-dasharray:none;stroke-opacity:1"
           d="m 294.596,429.336 -50.829,0 0,50.826 50.829,0 0,-50.826 z" /><g
           id="g62"
           transform="translate(345.4189,480.1616)"><path
             inkscape:connector-curvature="0"
             id="path64"
             style="fill:none;stroke:#237d59;stroke-width:4;stroke-linecap:butt;stroke-linejoin:miter;stroke-miterlimit:10;stroke-dasharray:none;stroke-opacity:1"
             d="m 0,0 0,-50.825 -50.823,0 0,50.825 L 0,0 Z" /></g><path
           inkscape:connector-curvature="0"
           id="path66"
           style="fill:none;stroke:#237d59;stroke-width:4;stroke-linecap:butt;stroke-linejoin:miter;stroke-miterlimit:10;stroke-dasharray:none;stroke-opacity:1"
           d="m 396.247,429.336 -50.828,0 0,50.825 50.828,0 0,-50.825 z" /><path
           inkscape:connector-curvature="0"
           id="path68"
           style="fill:none;stroke:#237d59;stroke-width:4;stroke-linecap:butt;stroke-linejoin:miter;stroke-miterlimit:10;stroke-dasharray:none;stroke-opacity:1"
           d="m 447.074,429.336 -50.827,0 0,50.825 50.827,0 0,-50.825 z" /><path
           inkscape:connector-curvature="0"
           id="path70"
           style="fill:none;stroke:#237d59;stroke-width:4;stroke-linecap:butt;stroke-linejoin:miter;stroke-miterlimit:10;stroke-dasharray:none;stroke-opacity:1"
           d="m 497.896,429.336 -50.821,0 0,50.825 50.821,0 0,-50.825 z" /><path
           inkscape:connector-curvature="0"
           id="path72"
           style="fill:none;stroke:#237d59;stroke-width:4;stroke-linecap:butt;stroke-linejoin:miter;stroke-miterlimit:10;stroke-dasharray:none;stroke-opacity:1"
           d="m 548.729,429.336 -50.833,0 0,50.825 50.833,0 0,-50.825 z" /><path
           inkscape:connector-curvature="0"
           id="path74"
           style="fill:none;stroke:#237d59;stroke-width:4;stroke-linecap:butt;stroke-linejoin:miter;stroke-miterlimit:10;stroke-dasharray:none;stroke-opacity:1"
           d="m 599.549,429.336 -50.82,0 0,50.825 50.82,0 0,-50.825 z" /><path
           inkscape:connector-curvature="0"
           id="path76"
           style="fill:none;stroke:#237d59;stroke-width:4;stroke-linecap:butt;stroke-linejoin:miter;stroke-miterlimit:10;stroke-dasharray:none;stroke-opacity:1"
           d="m 91.293,378.51 -50.825,0 0,50.827 50.825,0 0,-50.827 z" /><g
           id="g78"
           transform="translate(142.1162,429.3364)"><path
             inkscape:connector-curvature="0"
             id="path80"
             style="fill:none;stroke:#237d59;stroke-width:4;stroke-linecap:butt;stroke-linejoin:miter;stroke-miterlimit:10;stroke-dasharray:none;stroke-opacity:1"
             d="m 0,0 0,-50.827 -50.823,0 0,50.827 L 0,0 Z" /></g><path
           inkscape:connector-curvature="0"
           id="path82"
           style="fill:none;stroke:#237d59;stroke-width:4;stroke-linecap:butt;stroke-linejoin:miter;stroke-miterlimit:10;stroke-dasharray:none;stroke-opacity:1"
           d="m 192.942,378.509 -50.826,0 0,50.827 50.826,0 0,-50.827 z" /><path
           inkscape:connector-curvature="0"
           id="path84"
           style="fill:none;stroke:#237d59;stroke-width:4;stroke-linecap:butt;stroke-linejoin:miter;stroke-miterlimit:10;stroke-dasharray:none;stroke-opacity:1"
           d="m 243.767,378.509 -50.824,0 0,50.827 50.824,0 0,-50.827 z" /><path
           inkscape:connector-curvature="0"
           id="path86"
           style="fill:none;stroke:#237d59;stroke-width:4;stroke-linecap:butt;stroke-linejoin:miter;stroke-miterlimit:10;stroke-dasharray:none;stroke-opacity:1"
           d="m 294.596,378.509 -50.829,0 0,50.827 50.829,0 0,-50.827 z" /><path
           inkscape:connector-curvature="0"
           id="path88"
           style="fill:none;stroke:#237d59;stroke-width:4;stroke-linecap:butt;stroke-linejoin:miter;stroke-miterlimit:10;stroke-dasharray:none;stroke-opacity:1"
           d="m 345.419,378.509 -50.823,0 0,50.827 50.823,0 0,-50.827 z" /><path
           inkscape:connector-curvature="0"
           id="path90"
           style="fill:none;stroke:#237d59;stroke-width:4;stroke-linecap:butt;stroke-linejoin:miter;stroke-miterlimit:10;stroke-dasharray:none;stroke-opacity:1"
           d="m 396.247,378.509 -50.828,0 0,50.827 50.828,0 0,-50.827 z" /><path
           inkscape:connector-curvature="0"
           id="path92"
           style="fill:none;stroke:#237d59;stroke-width:4;stroke-linecap:butt;stroke-linejoin:miter;stroke-miterlimit:10;stroke-dasharray:none;stroke-opacity:1"
           d="m 447.074,378.509 -50.827,0 0,50.827 50.827,0 0,-50.827 z" /><path
           inkscape:connector-curvature="0"
           id="path94"
           style="fill:none;stroke:#237d59;stroke-width:4;stroke-linecap:butt;stroke-linejoin:miter;stroke-miterlimit:10;stroke-dasharray:none;stroke-opacity:1"
           d="m 497.896,378.509 -50.821,0 0,50.827 50.821,0 0,-50.827 z" /><path
           inkscape:connector-curvature="0"
           id="path96"
           style="fill:none;stroke:#237d59;stroke-width:4;stroke-linecap:butt;stroke-linejoin:miter;stroke-miterlimit:10;stroke-dasharray:none;stroke-opacity:1"
           d="m 548.729,378.509 -50.833,0 0,50.827 50.833,0 0,-50.827 z" /><path
           inkscape:connector-curvature="0"
           id="path98"
           style="fill:none;stroke:#237d59;stroke-width:4;stroke-linecap:butt;stroke-linejoin:miter;stroke-miterlimit:10;stroke-dasharray:none;stroke-opacity:1"
           d="m 599.549,378.509 -50.82,0 0,50.827 50.82,0 0,-50.827 z" /><path
           inkscape:connector-curvature="0"
           id="path100"
           style="fill:none;stroke:#237d59;stroke-width:4;stroke-linecap:butt;stroke-linejoin:miter;stroke-miterlimit:10;stroke-dasharray:none;stroke-opacity:1"
           d="m 91.293,327.687 -50.825,0 0,50.823 50.825,0 0,-50.823 z" /><g
           id="g102"
           transform="translate(142.1162,378.5093)"><path
             inkscape:connector-curvature="0"
             id="path104"
             style="fill:none;stroke:#237d59;stroke-width:4;stroke-linecap:butt;stroke-linejoin:miter;stroke-miterlimit:10;stroke-dasharray:none;stroke-opacity:1"
             d="m 0,0 0,-50.822 -50.823,0 0,50.822 L 0,0 Z" /></g><path
           inkscape:connector-curvature="0"
           id="path106"
           style="fill:none;stroke:#237d59;stroke-width:4;stroke-linecap:butt;stroke-linejoin:miter;stroke-miterlimit:10;stroke-dasharray:none;stroke-opacity:1"
           d="m 192.942,327.687 -50.826,0 0,50.822 50.826,0 0,-50.822 z" /><path
           inkscape:connector-curvature="0"
           id="path108"
           style="fill:none;stroke:#237d59;stroke-width:4;stroke-linecap:butt;stroke-linejoin:miter;stroke-miterlimit:10;stroke-dasharray:none;stroke-opacity:1"
           d="m 243.767,327.687 -50.824,0 0,50.822 50.824,0 0,-50.822 z" /><path
           inkscape:connector-curvature="0"
           id="path110"
           style="fill:none;stroke:#237d59;stroke-width:4;stroke-linecap:butt;stroke-linejoin:miter;stroke-miterlimit:10;stroke-dasharray:none;stroke-opacity:1"
           d="m 294.596,327.687 -50.829,0 0,50.822 50.829,0 0,-50.822 z" /><path
           inkscape:connector-curvature="0"
           id="path112"
           style="fill:none;stroke:#237d59;stroke-width:4;stroke-linecap:butt;stroke-linejoin:miter;stroke-miterlimit:10;stroke-dasharray:none;stroke-opacity:1"
           d="m 345.419,327.687 -50.823,0 0,50.822 50.823,0 0,-50.822 z" /><path
           inkscape:connector-curvature="0"
           id="path114"
           style="fill:none;stroke:#237d59;stroke-width:4;stroke-linecap:butt;stroke-linejoin:miter;stroke-miterlimit:10;stroke-dasharray:none;stroke-opacity:1"
           d="m 396.247,327.687 -50.828,0 0,50.822 50.828,0 0,-50.822 z" /><path
           inkscape:connector-curvature="0"
           id="path116"
           style="fill:none;stroke:#237d59;stroke-width:4;stroke-linecap:butt;stroke-linejoin:miter;stroke-miterlimit:10;stroke-dasharray:none;stroke-opacity:1"
           d="m 447.074,327.687 -50.827,0 0,50.822 50.827,0 0,-50.822 z" /><path
           inkscape:connector-curvature="0"
           id="path118"
           style="fill:none;stroke:#237d59;stroke-width:4;stroke-linecap:butt;stroke-linejoin:miter;stroke-miterlimit:10;stroke-dasharray:none;stroke-opacity:1"
           d="m 497.896,327.687 -50.821,0 0,50.822 50.821,0 0,-50.822 z" /><path
           inkscape:connector-curvature="0"
           id="path120"
           style="fill:none;stroke:#237d59;stroke-width:4;stroke-linecap:butt;stroke-linejoin:miter;stroke-miterlimit:10;stroke-dasharray:none;stroke-opacity:1"
           d="m 548.729,327.687 -50.833,0 0,50.822 50.833,0 0,-50.822 z" /><path
           inkscape:connector-curvature="0"
           id="path122"
           style="fill:none;stroke:#237d59;stroke-width:4;stroke-linecap:butt;stroke-linejoin:miter;stroke-miterlimit:10;stroke-dasharray:none;stroke-opacity:1"
           d="m 599.549,327.687 -50.82,0 0,50.822 50.82,0 0,-50.822 z" /><path
           inkscape:connector-curvature="0"
           id="path124"
           style="fill:none;stroke:#237d59;stroke-width:4;stroke-linecap:butt;stroke-linejoin:miter;stroke-miterlimit:10;stroke-dasharray:none;stroke-opacity:1"
           d="m 91.293,276.861 -50.825,0 0,50.826 50.825,0 0,-50.826 z" /><path
           inkscape:connector-curvature="0"
           id="path126"
           style="fill:none;stroke:#237d59;stroke-width:4;stroke-linecap:butt;stroke-linejoin:miter;stroke-miterlimit:10;stroke-dasharray:none;stroke-opacity:1"
           d="m 142.116,276.861 -50.823,0 0,50.826 50.823,0 0,-50.826 z" /><path
           inkscape:connector-curvature="0"
           id="path128"
           style="fill:none;stroke:#237d59;stroke-width:4;stroke-linecap:butt;stroke-linejoin:miter;stroke-miterlimit:10;stroke-dasharray:none;stroke-opacity:1"
           d="m 192.942,276.861 -50.826,0 0,50.826 50.826,0 0,-50.826 z" /><path
           inkscape:connector-curvature="0"
           id="path130"
           style="fill:none;stroke:#237d59;stroke-width:4;stroke-linecap:butt;stroke-linejoin:miter;stroke-miterlimit:10;stroke-dasharray:none;stroke-opacity:1"
           d="m 243.767,276.861 -50.824,0 0,50.826 50.824,0 0,-50.826 z" /><path
           inkscape:connector-curvature="0"
           id="path132"
           style="fill:none;stroke:#237d59;stroke-width:4;stroke-linecap:butt;stroke-linejoin:miter;stroke-miterlimit:10;stroke-dasharray:none;stroke-opacity:1"
           d="m 294.596,276.861 -50.829,0 0,50.826 50.829,0 0,-50.826 z" /><path
           inkscape:connector-curvature="0"
           id="path134"
           style="fill:none;stroke:#237d59;stroke-width:4;stroke-linecap:butt;stroke-linejoin:miter;stroke-miterlimit:10;stroke-dasharray:none;stroke-opacity:1"
           d="m 345.419,276.861 -50.823,0 0,50.826 50.823,0 0,-50.826 z" /><path
           inkscape:connector-curvature="0"
           id="path136"
           style="fill:none;stroke:#237d59;stroke-width:4;stroke-linecap:butt;stroke-linejoin:miter;stroke-miterlimit:10;stroke-dasharray:none;stroke-opacity:1"
           d="m 396.247,276.861 -50.828,0 0,50.826 50.828,0 0,-50.826 z" /><path
           inkscape:connector-curvature="0"
           id="path138"
           style="fill:none;stroke:#237d59;stroke-width:4;stroke-linecap:butt;stroke-linejoin:miter;stroke-miterlimit:10;stroke-dasharray:none;stroke-opacity:1"
           d="m 447.074,276.861 -50.827,0 0,50.826 50.827,0 0,-50.826 z" /><path
           inkscape:connector-curvature="0"
           id="path140"
           style="fill:none;stroke:#237d59;stroke-width:4;stroke-linecap:butt;stroke-linejoin:miter;stroke-miterlimit:10;stroke-dasharray:none;stroke-opacity:1"
           d="m 497.896,276.861 -50.821,0 0,50.826 50.821,0 0,-50.826 z" /><path
           inkscape:connector-curvature="0"
           id="path142"
           style="fill:none;stroke:#237d59;stroke-width:4;stroke-linecap:butt;stroke-linejoin:miter;stroke-miterlimit:10;stroke-dasharray:none;stroke-opacity:1"
           d="m 548.729,276.861 -50.833,0 0,50.826 50.833,0 0,-50.826 z" /><path
           inkscape:connector-curvature="0"
           id="path144"
           style="fill:none;stroke:#237d59;stroke-width:4;stroke-linecap:butt;stroke-linejoin:miter;stroke-miterlimit:10;stroke-dasharray:none;stroke-opacity:1"
           d="m 599.549,276.861 -50.82,0 0,50.826 50.82,0 0,-50.826 z" /><path
           inkscape:connector-curvature="0"
           id="path146"
           style="fill:none;stroke:#237d59;stroke-width:4;stroke-linecap:butt;stroke-linejoin:miter;stroke-miterlimit:10;stroke-dasharray:none;stroke-opacity:1"
           d="m 91.293,226.034 -50.825,0 0,50.827 50.825,0 0,-50.827 z" /><path
           inkscape:connector-curvature="0"
           id="path148"
           style="fill:none;stroke:#237d59;stroke-width:4;stroke-linecap:butt;stroke-linejoin:miter;stroke-miterlimit:10;stroke-dasharray:none;stroke-opacity:1"
           d="m 142.116,226.034 -50.823,0 0,50.827 50.823,0 0,-50.827 z" /><path
           inkscape:connector-curvature="0"
           id="path150"
           style="fill:none;stroke:#237d59;stroke-width:4;stroke-linecap:butt;stroke-linejoin:miter;stroke-miterlimit:10;stroke-dasharray:none;stroke-opacity:1"
           d="m 192.942,226.034 -50.826,0 0,50.827 50.826,0 0,-50.827 z" /><path
           inkscape:connector-curvature="0"
           id="path152"
           style="fill:none;stroke:#237d59;stroke-width:4;stroke-linecap:butt;stroke-linejoin:miter;stroke-miterlimit:10;stroke-dasharray:none;stroke-opacity:1"
           d="m 243.767,226.034 -50.824,0 0,50.827 50.824,0 0,-50.827 z" /><path
           inkscape:connector-curvature="0"
           id="path154"
           style="fill:none;stroke:#237d59;stroke-width:4;stroke-linecap:butt;stroke-linejoin:miter;stroke-miterlimit:10;stroke-dasharray:none;stroke-opacity:1"
           d="m 294.596,226.034 -50.829,0 0,50.827 50.829,0 0,-50.827 z" /><path
           inkscape:connector-curvature="0"
           id="path156"
           style="fill:none;stroke:#237d59;stroke-width:4;stroke-linecap:butt;stroke-linejoin:miter;stroke-miterlimit:10;stroke-dasharray:none;stroke-opacity:1"
           d="m 345.419,226.034 -50.823,0 0,50.827 50.823,0 0,-50.827 z" /><path
           inkscape:connector-curvature="0"
           id="path158"
           style="fill:none;stroke:#237d59;stroke-width:4;stroke-linecap:butt;stroke-linejoin:miter;stroke-miterlimit:10;stroke-dasharray:none;stroke-opacity:1"
           d="m 396.247,226.034 -50.828,0 0,50.827 50.828,0 0,-50.827 z" /><path
           inkscape:connector-curvature="0"
           id="path160"
           style="fill:none;stroke:#237d59;stroke-width:4;stroke-linecap:butt;stroke-linejoin:miter;stroke-miterlimit:10;stroke-dasharray:none;stroke-opacity:1"
           d="m 447.074,226.034 -50.827,0 0,50.827 50.827,0 0,-50.827 z" /><path
           inkscape:connector-curvature="0"
           id="path162"
           style="fill:none;stroke:#237d59;stroke-width:4;stroke-linecap:butt;stroke-linejoin:miter;stroke-miterlimit:10;stroke-dasharray:none;stroke-opacity:1"
           d="m 497.896,226.034 -50.821,0 0,50.827 50.821,0 0,-50.827 z" /><path
           inkscape:connector-curvature="0"
           id="path164"
           style="fill:none;stroke:#237d59;stroke-width:4;stroke-linecap:butt;stroke-linejoin:miter;stroke-miterlimit:10;stroke-dasharray:none;stroke-opacity:1"
           d="m 548.729,226.034 -50.833,0 0,50.827 50.833,0 0,-50.827 z" /><path
           inkscape:connector-curvature="0"
           id="path166"
           style="fill:none;stroke:#237d59;stroke-width:4;stroke-linecap:butt;stroke-linejoin:miter;stroke-miterlimit:10;stroke-dasharray:none;stroke-opacity:1"
           d="m 599.549,226.034 -50.82,0 0,50.827 50.82,0 0,-50.827 z" /><path
           inkscape:connector-curvature="0"
           id="path168"
           style="fill:none;stroke:#237d59;stroke-width:4;stroke-linecap:butt;stroke-linejoin:miter;stroke-miterlimit:10;stroke-dasharray:none;stroke-opacity:1"
           d="m 91.293,175.209 -50.825,0 0,50.825 50.825,0 0,-50.825 z" /><path
           inkscape:connector-curvature="0"
           id="path170"
           style="fill:none;stroke:#237d59;stroke-width:4;stroke-linecap:butt;stroke-linejoin:miter;stroke-miterlimit:10;stroke-dasharray:none;stroke-opacity:1"
           d="m 142.116,175.209 -50.823,0 0,50.825 50.823,0 0,-50.825 z" /><path
           inkscape:connector-curvature="0"
           id="path172"
           style="fill:none;stroke:#237d59;stroke-width:4;stroke-linecap:butt;stroke-linejoin:miter;stroke-miterlimit:10;stroke-dasharray:none;stroke-opacity:1"
           d="m 192.942,175.209 -50.826,0 0,50.825 50.826,0 0,-50.825 z" /><path
           inkscape:connector-curvature="0"
           id="path174"
           style="fill:none;stroke:#237d59;stroke-width:4;stroke-linecap:butt;stroke-linejoin:miter;stroke-miterlimit:10;stroke-dasharray:none;stroke-opacity:1"
           d="m 243.767,175.209 -50.824,0 0,50.825 50.824,0 0,-50.825 z" /><path
           inkscape:connector-curvature="0"
           id="path176"
           style="fill:none;stroke:#237d59;stroke-width:4;stroke-linecap:butt;stroke-linejoin:miter;stroke-miterlimit:10;stroke-dasharray:none;stroke-opacity:1"
           d="m 294.596,175.209 -50.829,0 0,50.825 50.829,0 0,-50.825 z" /><path
           inkscape:connector-curvature="0"
           id="path178"
           style="fill:none;stroke:#237d59;stroke-width:4;stroke-linecap:butt;stroke-linejoin:miter;stroke-miterlimit:10;stroke-dasharray:none;stroke-opacity:1"
           d="m 345.419,175.209 -50.823,0 0,50.825 50.823,0 0,-50.825 z" /><path
           inkscape:connector-curvature="0"
           id="path180"
           style="fill:none;stroke:#237d59;stroke-width:4;stroke-linecap:butt;stroke-linejoin:miter;stroke-miterlimit:10;stroke-dasharray:none;stroke-opacity:1"
           d="m 396.247,175.209 -50.828,0 0,50.825 50.828,0 0,-50.825 z" /><path
           inkscape:connector-curvature="0"
           id="path182"
           style="fill:none;stroke:#237d59;stroke-width:4;stroke-linecap:butt;stroke-linejoin:miter;stroke-miterlimit:10;stroke-dasharray:none;stroke-opacity:1"
           d="m 447.074,175.209 -50.827,0 0,50.825 50.827,0 0,-50.825 z" /><path
           inkscape:connector-curvature="0"
           id="path184"
           style="fill:none;stroke:#237d59;stroke-width:4;stroke-linecap:butt;stroke-linejoin:miter;stroke-miterlimit:10;stroke-dasharray:none;stroke-opacity:1"
           d="m 497.896,175.209 -50.821,0 0,50.825 50.821,0 0,-50.825 z" /><path
           inkscape:connector-curvature="0"
           id="path186"
           style="fill:none;stroke:#237d59;stroke-width:4;stroke-linecap:butt;stroke-linejoin:miter;stroke-miterlimit:10;stroke-dasharray:none;stroke-opacity:1"
           d="m 548.729,175.209 -50.833,0 0,50.825 50.833,0 0,-50.825 z" /><path
           inkscape:connector-curvature="0"
           id="path188"
           style="fill:none;stroke:#237d59;stroke-width:4;stroke-linecap:butt;stroke-linejoin:miter;stroke-miterlimit:10;stroke-dasharray:none;stroke-opacity:1"
           d="m 599.549,175.209 -50.82,0 0,50.825 50.82,0 0,-50.825 z" /><path
           inkscape:connector-curvature="0"
           id="path190"
           style="fill:none;stroke:#237d59;stroke-width:4;stroke-linecap:butt;stroke-linejoin:miter;stroke-miterlimit:10;stroke-dasharray:none;stroke-opacity:1"
           d="m 91.293,124.383 -50.825,0 0,50.826 50.825,0 0,-50.826 z" /><g
           id="g192"
           transform="translate(142.1162,175.209)"><path
             inkscape:connector-curvature="0"
             id="path194"
             style="fill:none;stroke:#237d59;stroke-width:4;stroke-linecap:butt;stroke-linejoin:miter;stroke-miterlimit:10;stroke-dasharray:none;stroke-opacity:1"
             d="m 0,0 0,-50.827 -50.823,10e-4 0,50.826 L 0,0 Z" /></g><path
           inkscape:connector-curvature="0"
           id="path196"
           style="fill:none;stroke:#237d59;stroke-width:4;stroke-linecap:butt;stroke-linejoin:miter;stroke-miterlimit:10;stroke-dasharray:none;stroke-opacity:1"
           d="m 192.942,124.382 -50.826,0 0,50.827 50.826,0 0,-50.827 z" /><path
           inkscape:connector-curvature="0"
           id="path198"
           style="fill:none;stroke:#237d59;stroke-width:4;stroke-linecap:butt;stroke-linejoin:miter;stroke-miterlimit:10;stroke-dasharray:none;stroke-opacity:1"
           d="m 243.767,124.382 -50.824,0 0,50.827 50.824,0 0,-50.827 z" /><path
           inkscape:connector-curvature="0"
           id="path200"
           style="fill:none;stroke:#237d59;stroke-width:4;stroke-linecap:butt;stroke-linejoin:miter;stroke-miterlimit:10;stroke-dasharray:none;stroke-opacity:1"
           d="m 294.596,124.382 -50.829,0 0,50.827 50.829,0 0,-50.827 z" /><path
           inkscape:connector-curvature="0"
           id="path202"
           style="fill:none;stroke:#237d59;stroke-width:4;stroke-linecap:butt;stroke-linejoin:miter;stroke-miterlimit:10;stroke-dasharray:none;stroke-opacity:1"
           d="m 345.419,124.382 -50.823,0 0,50.827 50.823,0 0,-50.827 z" /><path
           inkscape:connector-curvature="0"
           id="path204"
           style="fill:none;stroke:#237d59;stroke-width:4;stroke-linecap:butt;stroke-linejoin:miter;stroke-miterlimit:10;stroke-dasharray:none;stroke-opacity:1"
           d="m 396.247,124.382 -50.828,0 0,50.827 50.828,0 0,-50.827 z" /><path
           inkscape:connector-curvature="0"
           id="path206"
           style="fill:none;stroke:#237d59;stroke-width:4;stroke-linecap:butt;stroke-linejoin:miter;stroke-miterlimit:10;stroke-dasharray:none;stroke-opacity:1"
           d="m 447.074,124.382 -50.827,0 0,50.827 50.827,0 0,-50.827 z" /><path
           inkscape:connector-curvature="0"
           id="path208"
           style="fill:none;stroke:#237d59;stroke-width:4;stroke-linecap:butt;stroke-linejoin:miter;stroke-miterlimit:10;stroke-dasharray:none;stroke-opacity:1"
           d="m 497.896,124.382 -50.821,0 0,50.827 50.821,0 0,-50.827 z" /><path
           inkscape:connector-curvature="0"
           id="path210"
           style="fill:none;stroke:#237d59;stroke-width:4;stroke-linecap:butt;stroke-linejoin:miter;stroke-miterlimit:10;stroke-dasharray:none;stroke-opacity:1"
           d="m 548.729,124.382 -50.833,0 0,50.827 50.833,0 0,-50.827 z" /><path
           inkscape:connector-curvature="0"
           id="path212"
           style="fill:none;stroke:#237d59;stroke-width:4;stroke-linecap:butt;stroke-linejoin:miter;stroke-miterlimit:10;stroke-dasharray:none;stroke-opacity:1"
           d="m 599.549,124.382 -50.82,0 0,50.827 50.82,0 0,-50.827 z" /><path
           inkscape:connector-curvature="0"
           id="path214"
           style="fill:none;stroke:#237d59;stroke-width:4;stroke-linecap:butt;stroke-linejoin:miter;stroke-miterlimit:10;stroke-dasharray:none;stroke-opacity:1"
           d="m 91.293,73.558 -50.825,0 0,50.825 50.825,0 0,-50.825 z" /><g
           id="g216"
           transform="translate(142.1162,124.3818)"><path
             inkscape:connector-curvature="0"
             id="path218"
             style="fill:none;stroke:#237d59;stroke-width:4;stroke-linecap:butt;stroke-linejoin:miter;stroke-miterlimit:10;stroke-dasharray:none;stroke-opacity:1"
             d="m 0,0 0,-50.824 -50.823,0 0,50.825 L 0,0 Z" /></g><path
           inkscape:connector-curvature="0"
           id="path220"
           style="fill:none;stroke:#237d59;stroke-width:4;stroke-linecap:butt;stroke-linejoin:miter;stroke-miterlimit:10;stroke-dasharray:none;stroke-opacity:1"
           d="m 192.942,73.558 -50.826,0 0,50.824 50.826,0 0,-50.824 z" /><path
           inkscape:connector-curvature="0"
           id="path222"
           style="fill:none;stroke:#237d59;stroke-width:4;stroke-linecap:butt;stroke-linejoin:miter;stroke-miterlimit:10;stroke-dasharray:none;stroke-opacity:1"
           d="m 243.767,73.558 -50.824,0 0,50.824 50.824,0 0,-50.824 z" /><path
           inkscape:connector-curvature="0"
           id="path224"
           style="fill:none;stroke:#237d59;stroke-width:4;stroke-linecap:butt;stroke-linejoin:miter;stroke-miterlimit:10;stroke-dasharray:none;stroke-opacity:1"
           d="m 294.596,73.558 -50.829,0 0,50.824 50.829,0 0,-50.824 z" /><path
           inkscape:connector-curvature="0"
           id="path226"
           style="fill:none;stroke:#237d59;stroke-width:4;stroke-linecap:butt;stroke-linejoin:miter;stroke-miterlimit:10;stroke-dasharray:none;stroke-opacity:1"
           d="m 345.419,73.558 -50.823,0 0,50.824 50.823,0 0,-50.824 z" /><path
           inkscape:connector-curvature="0"
           id="path228"
           style="fill:none;stroke:#237d59;stroke-width:4;stroke-linecap:butt;stroke-linejoin:miter;stroke-miterlimit:10;stroke-dasharray:none;stroke-opacity:1"
           d="m 396.247,73.558 -50.828,0 0,50.824 50.828,0 0,-50.824 z" /><path
           inkscape:connector-curvature="0"
           id="path230"
           style="fill:none;stroke:#237d59;stroke-width:4;stroke-linecap:butt;stroke-linejoin:miter;stroke-miterlimit:10;stroke-dasharray:none;stroke-opacity:1"
           d="m 447.074,73.558 -50.827,0 0,50.824 50.827,0 0,-50.824 z" /><path
           inkscape:connector-curvature="0"
           id="path232"
           style="fill:none;stroke:#237d59;stroke-width:4;stroke-linecap:butt;stroke-linejoin:miter;stroke-miterlimit:10;stroke-dasharray:none;stroke-opacity:1"
           d="m 497.896,73.558 -50.821,0 0,50.824 50.821,0 0,-50.824 z" /><path
           inkscape:connector-curvature="0"
           id="path234"
           style="fill:none;stroke:#237d59;stroke-width:4;stroke-linecap:butt;stroke-linejoin:miter;stroke-miterlimit:10;stroke-dasharray:none;stroke-opacity:1"
           d="m 548.729,73.558 -50.833,0 0,50.824 50.833,0 0,-50.824 z" /><path
           inkscape:connector-curvature="0"
           id="path236"
           style="fill:none;stroke:#237d59;stroke-width:4;stroke-linecap:butt;stroke-linejoin:miter;stroke-miterlimit:10;stroke-dasharray:none;stroke-opacity:1"
           d="m 599.549,73.558 -50.82,0 0,50.824 50.82,0 0,-50.824 z" /></g></g><g
       id="g22" /><path
       d="m 314.378,146.61 -153.775,0 0,115.334 153.775,0 0,-115.334 z"
       style="fill:none;stroke:#237d59;stroke-width:4;stroke-linecap:butt;stroke-linejoin:miter;stroke-miterlimit:10;stroke-dasharray:none;stroke-opacity:1"
       id="path238"
       inkscape:connector-curvature="0" /><g
       id="g240"
       transform="translate(141.3789,377.2778)"
       style="fill:#aecf32;fill-opacity:1;stroke:#90c73a;stroke-opacity:1"><path
         d="M 0,0 192.224,0"
         style="fill:#aecf32;stroke:#90c73a;stroke-width:4;stroke-linecap:butt;stroke-linejoin:miter;stroke-miterlimit:10;stroke-dasharray:none;stroke-opacity:1;fill-opacity:1"
         id="path242"
         inkscape:connector-curvature="0" /></g><g
       id="g244"
       transform="translate(495.76355,281.17163)"
       style="fill:#aecf32;fill-opacity:1;stroke:#90c73a;stroke-opacity:1"><path
         d="M 0,0 0,-153.779"
         style="fill:#aecf32;fill-opacity:1;stroke:#90c73a;stroke-width:4;stroke-linecap:butt;stroke-linejoin:miter;stroke-miterlimit:10;stroke-dasharray:none;stroke-opacity:1"
         id="path246"
         inkscape:connector-curvature="0" /></g><g
       id="g248"
       transform="translate(318.8437,393.9795)"
       style="stroke:#aecf33;stroke-opacity:1"><path
         d="M 0,0 16.702,-16.702 0,-33.405"
         style="fill:none;stroke:#aecf33;stroke-width:4;stroke-linecap:butt;stroke-linejoin:miter;stroke-miterlimit:10;stroke-dasharray:none;stroke-opacity:1"
         id="path250"
         inkscape:connector-curvature="0" /></g><g
       id="g252"
       transform="translate(157.1729,393.9795)"
       style="stroke:#aecf32;stroke-opacity:1"><path
         d="M 0,0 -16.702,-16.702 0,-33.406"
         style="fill:none;stroke:#aecf32;stroke-width:4;stroke-linecap:butt;stroke-linejoin:miter;stroke-miterlimit:10;stroke-dasharray:none;stroke-opacity:1"
         id="path254"
         inkscape:connector-curvature="0" /></g><g
       id="g256"
       transform="translate(512.46565,266.97153)"
       style="stroke:#90c73a;stroke-opacity:1"><path
         d="M 0,0 -16.702,16.702 -33.405,0"
         style="fill:none;stroke:#90c73a;stroke-width:4;stroke-linecap:butt;stroke-linejoin:miter;stroke-miterlimit:10;stroke-dasharray:none;stroke-opacity:1"
         id="path258"
         inkscape:connector-curvature="0" /></g><g
       id="g260"
       transform="translate(512.46565,140.38943)"
       style="stroke:#90c73a;stroke-opacity:1"><path
         d="M 0,0 -16.702,-16.702 -33.405,0"
         style="fill:none;stroke:#90c73a;stroke-width:4;stroke-linecap:butt;stroke-linejoin:miter;stroke-miterlimit:10;stroke-dasharray:none;stroke-opacity:1"
         id="path262"
         inkscape:connector-curvature="0" /></g><path
       d="m 218.271,185.054 -38.447,0 0,38.444 38.447,0 0,-38.444 z"
       style="fill:none;stroke:#237d59;stroke-width:4;stroke-linecap:butt;stroke-linejoin:miter;stroke-miterlimit:10;stroke-dasharray:none;stroke-opacity:1"
       id="path264"
       inkscape:connector-curvature="0" /><path
       d="m 295.159,185.054 -38.445,0 0,38.444 38.445,0 0,-38.444 z"
       style="fill:none;stroke:#237d59;stroke-width:4;stroke-linecap:butt;stroke-linejoin:miter;stroke-miterlimit:10;stroke-dasharray:none;stroke-opacity:1"
       id="path266"
       inkscape:connector-curvature="0" /><g
       id="g5630"
       transform="translate(-69.665125,-9.6089827)"><path
         inkscape:connector-curvature="0"
         id="path268"
         style="fill:none;stroke:#90c73a;stroke-width:6.11049509;stroke-linecap:butt;stroke-linejoin:miter;stroke-miterlimit:10;stroke-dasharray:none;stroke-opacity:1"
         d="m 487.87416,365.46011 -58.72491,0 0,58.7295 58.72491,0 0,-58.7295 z" /><path
         inkscape:connector-curvature="0"
         id="path270"
         style="fill:none;stroke:#90c73a;stroke-width:6.11049509;stroke-linecap:butt;stroke-linejoin:miter;stroke-miterlimit:10;stroke-dasharray:none;stroke-opacity:1"
         d="m 546.60519,365.46011 -58.73103,0 0,58.7295 58.73103,0 0,-58.7295 z" /><path
         inkscape:connector-curvature="0"
         id="path272"
         style="fill:none;stroke:#90c73a;stroke-width:6.11049509;stroke-linecap:butt;stroke-linejoin:miter;stroke-miterlimit:10;stroke-dasharray:none;stroke-opacity:1"
         d="m 489.02092,307.94389 -58.72492,0 0,58.72644 58.72492,0 0,-58.72644 z" /></g><g
       id="g282"
       transform="translate(190.0195,304.4883)"
       style="fill:#aecf32;fill-opacity:1"><path
         d="M 0,0 C 24.865,13.343 49.658,14.866 74.516,2.918 99.405,-9.047 113.657,-29.432 118.369,-56.521 91.274,-12.439 51.965,6.004 0,0 m 189.986,-83.998 c -14.792,5.272 -29.665,10.32 -44.546,15.341 -2.169,0.73 -3.378,1.503 -3.59,4.145 -4.2,51.47 -46.764,91.707 -98.496,93.248 -53.035,1.579 -98.757,-37.824 -104.474,-90.121 -0.233,-2.134 -0.978,-3.056 -2.975,-3.836 -5.837,-2.273 -9.212,-6.679 -9.596,-12.997 -0.553,-9.159 6.305,-15.815 16.278,-15.823 39.521,-0.032 79.048,-0.014 118.569,-0.014 37.441,0 74.885,-0.032 112.324,0.035 5.061,0.011 10.177,0.145 15.158,0.936 2.814,0.448 7.282,1.909 7.698,3.69 0.893,3.798 -3.643,4.433 -6.35,5.396"
         style="fill:#aecf32;fill-opacity:1;fill-rule:evenodd;stroke:none"
         id="path284"
         inkscape:connector-curvature="0" /></g><g
       id="g286"
       transform="translate(308.3887,247.9678)"
       style="fill:#909d3a;fill-opacity:1"><path
         d="m 0,0 c -27.095,44.081 -66.404,62.524 -118.369,56.521 24.865,13.342 49.658,14.866 74.515,2.917 C -18.964,47.474 -4.712,27.089 0,0"
         style="fill:#909d3a;fill-opacity:1;fill-rule:evenodd;stroke:none"
         id="path288"
         inkscape:connector-curvature="0" /></g></g></svg>