<?xml version="1.0" encoding="UTF-8" standalone="no"?>
<svg
   xmlns:dc="http://purl.org/dc/elements/1.1/"
   xmlns:cc="http://creativecommons.org/ns#"
   xmlns:rdf="http://www.w3.org/1999/02/22-rdf-syntax-ns#"
   xmlns:svg="http://www.w3.org/2000/svg"
   xmlns="http://www.w3.org/2000/svg"
   viewBox="0 0 708.66248 708.66248"
   height="708.66248"
   width="708.66248"
   xml:space="preserve"
   version="1.1"
   id="svg2"><metadata
     id="metadata8"><rdf:RDF><cc:Work
         rdf:about=""><dc:format>image/svg+xml</dc:format><dc:type
           rdf:resource="http://purl.org/dc/dcmitype/StillImage" /><dc:title></dc:title></cc:Work></rdf:RDF></metadata><defs
     id="defs6"><clipPath
       id="clipPath16"
       clipPathUnits="userSpaceOnUse"><path
         id="path18"
         d="m 70.265,283.497 c 0,-115.092 93.299,-208.388 208.389,-208.388 l 0,0 c 115.089,0 208.389,93.296 208.389,208.388 l 0,0 c 0,115.09 -93.3,208.389 -208.389,208.39 l 0,0 c -115.09,0 -208.389,-93.3 -208.389,-208.39" /></clipPath><clipPath
       id="clipPath24"
       clipPathUnits="userSpaceOnUse"><path
         id="path26"
         d="m -12.3623,482.162 613.9113,0 0,-410.6044 -613.9113,0 0,410.6044 z" /></clipPath><clipPath
       id="clipPath282"
       clipPathUnits="userSpaceOnUse"><path
         id="path284"
         d="m 0,566.93 566.93,0 L 566.93,0 0,0 0,566.93 Z" /></clipPath></defs><g
     transform="matrix(1.25,0,0,-1.25,0,708.6625)"
     id="g10"><g
       id="g12"><g
         clip-path="url(#clipPath16)"
         id="g14"><g
           id="g20"><g
             id="g22" /><g
             id="g28"><g
               style="opacity:0.41999799"
               id="g30"
               clip-path="url(#clipPath24)"><g
                 id="g32"
                 transform="translate(599.5488,73.5576)"><path
                   id="path34"
                   style="fill:none;stroke:#237d59;stroke-width:4;stroke-linecap:butt;stroke-linejoin:miter;stroke-miterlimit:10;stroke-dasharray:none;stroke-opacity:1"
                   d="m 0,0 -609.911,0 0,406.604 L 0,406.604 0,0 Z" /></g><path
                 id="path36"
                 style="fill:none;stroke:#237d59;stroke-width:4;stroke-linecap:butt;stroke-linejoin:miter;stroke-miterlimit:10;stroke-dasharray:none;stroke-opacity:1"
                 d="m 40.468,429.336 -50.83,0 0,50.826 50.83,0 0,-50.826 z" /><path
                 id="path38"
                 style="fill:none;stroke:#237d59;stroke-width:4;stroke-linecap:butt;stroke-linejoin:miter;stroke-miterlimit:10;stroke-dasharray:none;stroke-opacity:1"
                 d="m 40.468,378.51 -50.83,0 0,50.827 50.83,0 0,-50.827 z" /><path
                 id="path40"
                 style="fill:none;stroke:#237d59;stroke-width:4;stroke-linecap:butt;stroke-linejoin:miter;stroke-miterlimit:10;stroke-dasharray:none;stroke-opacity:1"
                 d="m 40.468,327.687 -50.83,0 0,50.823 50.83,0 0,-50.823 z" /><path
                 id="path42"
                 style="fill:none;stroke:#237d59;stroke-width:4;stroke-linecap:butt;stroke-linejoin:miter;stroke-miterlimit:10;stroke-dasharray:none;stroke-opacity:1"
                 d="m 40.468,276.861 -50.83,0 0,50.826 50.83,0 0,-50.826 z" /><path
                 id="path44"
                 style="fill:none;stroke:#237d59;stroke-width:4;stroke-linecap:butt;stroke-linejoin:miter;stroke-miterlimit:10;stroke-dasharray:none;stroke-opacity:1"
                 d="m 40.468,226.034 -50.83,0 0,50.827 50.83,0 0,-50.827 z" /><path
                 id="path46"
                 style="fill:none;stroke:#237d59;stroke-width:4;stroke-linecap:butt;stroke-linejoin:miter;stroke-miterlimit:10;stroke-dasharray:none;stroke-opacity:1"
                 d="m 40.468,175.209 -50.83,0 0,50.825 50.83,0 0,-50.825 z" /><path
                 id="path48"
                 style="fill:none;stroke:#237d59;stroke-width:4;stroke-linecap:butt;stroke-linejoin:miter;stroke-miterlimit:10;stroke-dasharray:none;stroke-opacity:1"
                 d="m 40.468,124.383 -50.83,0 0,50.826 50.83,0 0,-50.826 z" /><path
                 id="path50"
                 style="fill:none;stroke:#237d59;stroke-width:4;stroke-linecap:butt;stroke-linejoin:miter;stroke-miterlimit:10;stroke-dasharray:none;stroke-opacity:1"
                 d="m 40.468,73.558 -50.83,0 0,50.825 50.83,0 0,-50.825 z" /><path
                 id="path52"
                 style="fill:none;stroke:#237d59;stroke-width:4;stroke-linecap:butt;stroke-linejoin:miter;stroke-miterlimit:10;stroke-dasharray:none;stroke-opacity:1"
                 d="m 91.293,429.336 -50.825,0 0,50.826 50.825,0 0,-50.826 z" /><path
                 id="path54"
                 style="fill:none;stroke:#237d59;stroke-width:4;stroke-linecap:butt;stroke-linejoin:miter;stroke-miterlimit:10;stroke-dasharray:none;stroke-opacity:1"
                 d="m 142.116,429.336 -50.823,0 0,50.826 50.823,0 0,-50.826 z" /><path
                 id="path56"
                 style="fill:none;stroke:#237d59;stroke-width:4;stroke-linecap:butt;stroke-linejoin:miter;stroke-miterlimit:10;stroke-dasharray:none;stroke-opacity:1"
                 d="m 192.942,429.336 -50.826,0 0,50.826 50.826,0 0,-50.826 z" /><path
                 id="path58"
                 style="fill:none;stroke:#237d59;stroke-width:4;stroke-linecap:butt;stroke-linejoin:miter;stroke-miterlimit:10;stroke-dasharray:none;stroke-opacity:1"
                 d="m 243.767,429.336 -50.824,0 0,50.826 50.824,0 0,-50.826 z" /><path
                 id="path60"
                 style="fill:none;stroke:#237d59;stroke-width:4;stroke-linecap:butt;stroke-linejoin:miter;stroke-miterlimit:10;stroke-dasharray:none;stroke-opacity:1"
                 d="m 294.596,429.336 -50.829,0 0,50.826 50.829,0 0,-50.826 z" /><g
                 id="g62"
                 transform="translate(345.4189,480.1616)"><path
                   id="path64"
                   style="fill:none;stroke:#237d59;stroke-width:4;stroke-linecap:butt;stroke-linejoin:miter;stroke-miterlimit:10;stroke-dasharray:none;stroke-opacity:1"
                   d="m 0,0 0,-50.825 -50.823,0 0,50.825 L 0,0 Z" /></g><path
                 id="path66"
                 style="fill:none;stroke:#237d59;stroke-width:4;stroke-linecap:butt;stroke-linejoin:miter;stroke-miterlimit:10;stroke-dasharray:none;stroke-opacity:1"
                 d="m 396.247,429.336 -50.828,0 0,50.825 50.828,0 0,-50.825 z" /><path
                 id="path68"
                 style="fill:none;stroke:#237d59;stroke-width:4;stroke-linecap:butt;stroke-linejoin:miter;stroke-miterlimit:10;stroke-dasharray:none;stroke-opacity:1"
                 d="m 447.074,429.336 -50.827,0 0,50.825 50.827,0 0,-50.825 z" /><path
                 id="path70"
                 style="fill:none;stroke:#237d59;stroke-width:4;stroke-linecap:butt;stroke-linejoin:miter;stroke-miterlimit:10;stroke-dasharray:none;stroke-opacity:1"
                 d="m 497.896,429.336 -50.821,0 0,50.825 50.821,0 0,-50.825 z" /><path
                 id="path72"
                 style="fill:none;stroke:#237d59;stroke-width:4;stroke-linecap:butt;stroke-linejoin:miter;stroke-miterlimit:10;stroke-dasharray:none;stroke-opacity:1"
                 d="m 548.729,429.336 -50.833,0 0,50.825 50.833,0 0,-50.825 z" /><path
                 id="path74"
                 style="fill:none;stroke:#237d59;stroke-width:4;stroke-linecap:butt;stroke-linejoin:miter;stroke-miterlimit:10;stroke-dasharray:none;stroke-opacity:1"
                 d="m 599.549,429.336 -50.82,0 0,50.825 50.82,0 0,-50.825 z" /><path
                 id="path76"
                 style="fill:none;stroke:#237d59;stroke-width:4;stroke-linecap:butt;stroke-linejoin:miter;stroke-miterlimit:10;stroke-dasharray:none;stroke-opacity:1"
                 d="m 91.293,378.51 -50.825,0 0,50.827 50.825,0 0,-50.827 z" /><g
                 id="g78"
                 transform="translate(142.1162,429.3364)"><path
                   id="path80"
                   style="fill:none;stroke:#237d59;stroke-width:4;stroke-linecap:butt;stroke-linejoin:miter;stroke-miterlimit:10;stroke-dasharray:none;stroke-opacity:1"
                   d="m 0,0 0,-50.827 -50.823,0 0,50.827 L 0,0 Z" /></g><path
                 id="path82"
                 style="fill:none;stroke:#237d59;stroke-width:4;stroke-linecap:butt;stroke-linejoin:miter;stroke-miterlimit:10;stroke-dasharray:none;stroke-opacity:1"
                 d="m 192.942,378.509 -50.826,0 0,50.827 50.826,0 0,-50.827 z" /><path
                 id="path84"
                 style="fill:none;stroke:#237d59;stroke-width:4;stroke-linecap:butt;stroke-linejoin:miter;stroke-miterlimit:10;stroke-dasharray:none;stroke-opacity:1"
                 d="m 243.767,378.509 -50.824,0 0,50.827 50.824,0 0,-50.827 z" /><path
                 id="path86"
                 style="fill:none;stroke:#237d59;stroke-width:4;stroke-linecap:butt;stroke-linejoin:miter;stroke-miterlimit:10;stroke-dasharray:none;stroke-opacity:1"
                 d="m 294.596,378.509 -50.829,0 0,50.827 50.829,0 0,-50.827 z" /><path
                 id="path88"
                 style="fill:none;stroke:#237d59;stroke-width:4;stroke-linecap:butt;stroke-linejoin:miter;stroke-miterlimit:10;stroke-dasharray:none;stroke-opacity:1"
                 d="m 345.419,378.509 -50.823,0 0,50.827 50.823,0 0,-50.827 z" /><path
                 id="path90"
                 style="fill:none;stroke:#237d59;stroke-width:4;stroke-linecap:butt;stroke-linejoin:miter;stroke-miterlimit:10;stroke-dasharray:none;stroke-opacity:1"
                 d="m 396.247,378.509 -50.828,0 0,50.827 50.828,0 0,-50.827 z" /><path
                 id="path92"
                 style="fill:none;stroke:#237d59;stroke-width:4;stroke-linecap:butt;stroke-linejoin:miter;stroke-miterlimit:10;stroke-dasharray:none;stroke-opacity:1"
                 d="m 447.074,378.509 -50.827,0 0,50.827 50.827,0 0,-50.827 z" /><path
                 id="path94"
                 style="fill:none;stroke:#237d59;stroke-width:4;stroke-linecap:butt;stroke-linejoin:miter;stroke-miterlimit:10;stroke-dasharray:none;stroke-opacity:1"
                 d="m 497.896,378.509 -50.821,0 0,50.827 50.821,0 0,-50.827 z" /><path
                 id="path96"
                 style="fill:none;stroke:#237d59;stroke-width:4;stroke-linecap:butt;stroke-linejoin:miter;stroke-miterlimit:10;stroke-dasharray:none;stroke-opacity:1"
                 d="m 548.729,378.509 -50.833,0 0,50.827 50.833,0 0,-50.827 z" /><path
                 id="path98"
                 style="fill:none;stroke:#237d59;stroke-width:4;stroke-linecap:butt;stroke-linejoin:miter;stroke-miterlimit:10;stroke-dasharray:none;stroke-opacity:1"
                 d="m 599.549,378.509 -50.82,0 0,50.827 50.82,0 0,-50.827 z" /><path
                 id="path100"
                 style="fill:none;stroke:#237d59;stroke-width:4;stroke-linecap:butt;stroke-linejoin:miter;stroke-miterlimit:10;stroke-dasharray:none;stroke-opacity:1"
                 d="m 91.293,327.687 -50.825,0 0,50.823 50.825,0 0,-50.823 z" /><g
                 id="g102"
                 transform="translate(142.1162,378.5093)"><path
                   id="path104"
                   style="fill:none;stroke:#237d59;stroke-width:4;stroke-linecap:butt;stroke-linejoin:miter;stroke-miterlimit:10;stroke-dasharray:none;stroke-opacity:1"
                   d="m 0,0 0,-50.822 -50.823,0 0,50.822 L 0,0 Z" /></g><path
                 id="path106"
                 style="fill:none;stroke:#237d59;stroke-width:4;stroke-linecap:butt;stroke-linejoin:miter;stroke-miterlimit:10;stroke-dasharray:none;stroke-opacity:1"
                 d="m 192.942,327.687 -50.826,0 0,50.822 50.826,0 0,-50.822 z" /><path
                 id="path108"
                 style="fill:none;stroke:#237d59;stroke-width:4;stroke-linecap:butt;stroke-linejoin:miter;stroke-miterlimit:10;stroke-dasharray:none;stroke-opacity:1"
                 d="m 243.767,327.687 -50.824,0 0,50.822 50.824,0 0,-50.822 z" /><path
                 id="path110"
                 style="fill:none;stroke:#237d59;stroke-width:4;stroke-linecap:butt;stroke-linejoin:miter;stroke-miterlimit:10;stroke-dasharray:none;stroke-opacity:1"
                 d="m 294.596,327.687 -50.829,0 0,50.822 50.829,0 0,-50.822 z" /><path
                 id="path112"
                 style="fill:none;stroke:#237d59;stroke-width:4;stroke-linecap:butt;stroke-linejoin:miter;stroke-miterlimit:10;stroke-dasharray:none;stroke-opacity:1"
                 d="m 345.419,327.687 -50.823,0 0,50.822 50.823,0 0,-50.822 z" /><path
                 id="path114"
                 style="fill:none;stroke:#237d59;stroke-width:4;stroke-linecap:butt;stroke-linejoin:miter;stroke-miterlimit:10;stroke-dasharray:none;stroke-opacity:1"
                 d="m 396.247,327.687 -50.828,0 0,50.822 50.828,0 0,-50.822 z" /><path
                 id="path116"
                 style="fill:none;stroke:#237d59;stroke-width:4;stroke-linecap:butt;stroke-linejoin:miter;stroke-miterlimit:10;stroke-dasharray:none;stroke-opacity:1"
                 d="m 447.074,327.687 -50.827,0 0,50.822 50.827,0 0,-50.822 z" /><path
                 id="path118"
                 style="fill:none;stroke:#237d59;stroke-width:4;stroke-linecap:butt;stroke-linejoin:miter;stroke-miterlimit:10;stroke-dasharray:none;stroke-opacity:1"
                 d="m 497.896,327.687 -50.821,0 0,50.822 50.821,0 0,-50.822 z" /><path
                 id="path120"
                 style="fill:none;stroke:#237d59;stroke-width:4;stroke-linecap:butt;stroke-linejoin:miter;stroke-miterlimit:10;stroke-dasharray:none;stroke-opacity:1"
                 d="m 548.729,327.687 -50.833,0 0,50.822 50.833,0 0,-50.822 z" /><path
                 id="path122"
                 style="fill:none;stroke:#237d59;stroke-width:4;stroke-linecap:butt;stroke-linejoin:miter;stroke-miterlimit:10;stroke-dasharray:none;stroke-opacity:1"
                 d="m 599.549,327.687 -50.82,0 0,50.822 50.82,0 0,-50.822 z" /><path
                 id="path124"
                 style="fill:none;stroke:#237d59;stroke-width:4;stroke-linecap:butt;stroke-linejoin:miter;stroke-miterlimit:10;stroke-dasharray:none;stroke-opacity:1"
                 d="m 91.293,276.861 -50.825,0 0,50.826 50.825,0 0,-50.826 z" /><path
                 id="path126"
                 style="fill:none;stroke:#237d59;stroke-width:4;stroke-linecap:butt;stroke-linejoin:miter;stroke-miterlimit:10;stroke-dasharray:none;stroke-opacity:1"
                 d="m 142.116,276.861 -50.823,0 0,50.826 50.823,0 0,-50.826 z" /><path
                 id="path128"
                 style="fill:none;stroke:#237d59;stroke-width:4;stroke-linecap:butt;stroke-linejoin:miter;stroke-miterlimit:10;stroke-dasharray:none;stroke-opacity:1"
                 d="m 192.942,276.861 -50.826,0 0,50.826 50.826,0 0,-50.826 z" /><path
                 id="path130"
                 style="fill:none;stroke:#237d59;stroke-width:4;stroke-linecap:butt;stroke-linejoin:miter;stroke-miterlimit:10;stroke-dasharray:none;stroke-opacity:1"
                 d="m 243.767,276.861 -50.824,0 0,50.826 50.824,0 0,-50.826 z" /><path
                 id="path132"
                 style="fill:none;stroke:#237d59;stroke-width:4;stroke-linecap:butt;stroke-linejoin:miter;stroke-miterlimit:10;stroke-dasharray:none;stroke-opacity:1"
                 d="m 294.596,276.861 -50.829,0 0,50.826 50.829,0 0,-50.826 z" /><path
                 id="path134"
                 style="fill:none;stroke:#237d59;stroke-width:4;stroke-linecap:butt;stroke-linejoin:miter;stroke-miterlimit:10;stroke-dasharray:none;stroke-opacity:1"
                 d="m 345.419,276.861 -50.823,0 0,50.826 50.823,0 0,-50.826 z" /><path
                 id="path136"
                 style="fill:none;stroke:#237d59;stroke-width:4;stroke-linecap:butt;stroke-linejoin:miter;stroke-miterlimit:10;stroke-dasharray:none;stroke-opacity:1"
                 d="m 396.247,276.861 -50.828,0 0,50.826 50.828,0 0,-50.826 z" /><path
                 id="path138"
                 style="fill:none;stroke:#237d59;stroke-width:4;stroke-linecap:butt;stroke-linejoin:miter;stroke-miterlimit:10;stroke-dasharray:none;stroke-opacity:1"
                 d="m 447.074,276.861 -50.827,0 0,50.826 50.827,0 0,-50.826 z" /><path
                 id="path140"
                 style="fill:none;stroke:#237d59;stroke-width:4;stroke-linecap:butt;stroke-linejoin:miter;stroke-miterlimit:10;stroke-dasharray:none;stroke-opacity:1"
                 d="m 497.896,276.861 -50.821,0 0,50.826 50.821,0 0,-50.826 z" /><path
                 id="path142"
                 style="fill:none;stroke:#237d59;stroke-width:4;stroke-linecap:butt;stroke-linejoin:miter;stroke-miterlimit:10;stroke-dasharray:none;stroke-opacity:1"
                 d="m 548.729,276.861 -50.833,0 0,50.826 50.833,0 0,-50.826 z" /><path
                 id="path144"
                 style="fill:none;stroke:#237d59;stroke-width:4;stroke-linecap:butt;stroke-linejoin:miter;stroke-miterlimit:10;stroke-dasharray:none;stroke-opacity:1"
                 d="m 599.549,276.861 -50.82,0 0,50.826 50.82,0 0,-50.826 z" /><path
                 id="path146"
                 style="fill:none;stroke:#237d59;stroke-width:4;stroke-linecap:butt;stroke-linejoin:miter;stroke-miterlimit:10;stroke-dasharray:none;stroke-opacity:1"
                 d="m 91.293,226.034 -50.825,0 0,50.827 50.825,0 0,-50.827 z" /><path
                 id="path148"
                 style="fill:none;stroke:#237d59;stroke-width:4;stroke-linecap:butt;stroke-linejoin:miter;stroke-miterlimit:10;stroke-dasharray:none;stroke-opacity:1"
                 d="m 142.116,226.034 -50.823,0 0,50.827 50.823,0 0,-50.827 z" /><path
                 id="path150"
                 style="fill:none;stroke:#237d59;stroke-width:4;stroke-linecap:butt;stroke-linejoin:miter;stroke-miterlimit:10;stroke-dasharray:none;stroke-opacity:1"
                 d="m 192.942,226.034 -50.826,0 0,50.827 50.826,0 0,-50.827 z" /><path
                 id="path152"
                 style="fill:none;stroke:#237d59;stroke-width:4;stroke-linecap:butt;stroke-linejoin:miter;stroke-miterlimit:10;stroke-dasharray:none;stroke-opacity:1"
                 d="m 243.767,226.034 -50.824,0 0,50.827 50.824,0 0,-50.827 z" /><path
                 id="path154"
                 style="fill:none;stroke:#237d59;stroke-width:4;stroke-linecap:butt;stroke-linejoin:miter;stroke-miterlimit:10;stroke-dasharray:none;stroke-opacity:1"
                 d="m 294.596,226.034 -50.829,0 0,50.827 50.829,0 0,-50.827 z" /><path
                 id="path156"
                 style="fill:none;stroke:#237d59;stroke-width:4;stroke-linecap:butt;stroke-linejoin:miter;stroke-miterlimit:10;stroke-dasharray:none;stroke-opacity:1"
                 d="m 345.419,226.034 -50.823,0 0,50.827 50.823,0 0,-50.827 z" /><path
                 id="path158"
                 style="fill:none;stroke:#237d59;stroke-width:4;stroke-linecap:butt;stroke-linejoin:miter;stroke-miterlimit:10;stroke-dasharray:none;stroke-opacity:1"
                 d="m 396.247,226.034 -50.828,0 0,50.827 50.828,0 0,-50.827 z" /><path
                 id="path160"
                 style="fill:none;stroke:#237d59;stroke-width:4;stroke-linecap:butt;stroke-linejoin:miter;stroke-miterlimit:10;stroke-dasharray:none;stroke-opacity:1"
                 d="m 447.074,226.034 -50.827,0 0,50.827 50.827,0 0,-50.827 z" /><path
                 id="path162"
                 style="fill:none;stroke:#237d59;stroke-width:4;stroke-linecap:butt;stroke-linejoin:miter;stroke-miterlimit:10;stroke-dasharray:none;stroke-opacity:1"
                 d="m 497.896,226.034 -50.821,0 0,50.827 50.821,0 0,-50.827 z" /><path
                 id="path164"
                 style="fill:none;stroke:#237d59;stroke-width:4;stroke-linecap:butt;stroke-linejoin:miter;stroke-miterlimit:10;stroke-dasharray:none;stroke-opacity:1"
                 d="m 548.729,226.034 -50.833,0 0,50.827 50.833,0 0,-50.827 z" /><path
                 id="path166"
                 style="fill:none;stroke:#237d59;stroke-width:4;stroke-linecap:butt;stroke-linejoin:miter;stroke-miterlimit:10;stroke-dasharray:none;stroke-opacity:1"
                 d="m 599.549,226.034 -50.82,0 0,50.827 50.82,0 0,-50.827 z" /><path
                 id="path168"
                 style="fill:none;stroke:#237d59;stroke-width:4;stroke-linecap:butt;stroke-linejoin:miter;stroke-miterlimit:10;stroke-dasharray:none;stroke-opacity:1"
                 d="m 91.293,175.209 -50.825,0 0,50.825 50.825,0 0,-50.825 z" /><path
                 id="path170"
                 style="fill:none;stroke:#237d59;stroke-width:4;stroke-linecap:butt;stroke-linejoin:miter;stroke-miterlimit:10;stroke-dasharray:none;stroke-opacity:1"
                 d="m 142.116,175.209 -50.823,0 0,50.825 50.823,0 0,-50.825 z" /><path
                 id="path172"
                 style="fill:none;stroke:#237d59;stroke-width:4;stroke-linecap:butt;stroke-linejoin:miter;stroke-miterlimit:10;stroke-dasharray:none;stroke-opacity:1"
                 d="m 192.942,175.209 -50.826,0 0,50.825 50.826,0 0,-50.825 z" /><path
                 id="path174"
                 style="fill:none;stroke:#237d59;stroke-width:4;stroke-linecap:butt;stroke-linejoin:miter;stroke-miterlimit:10;stroke-dasharray:none;stroke-opacity:1"
                 d="m 243.767,175.209 -50.824,0 0,50.825 50.824,0 0,-50.825 z" /><path
                 id="path176"
                 style="fill:none;stroke:#237d59;stroke-width:4;stroke-linecap:butt;stroke-linejoin:miter;stroke-miterlimit:10;stroke-dasharray:none;stroke-opacity:1"
                 d="m 294.596,175.209 -50.829,0 0,50.825 50.829,0 0,-50.825 z" /><path
                 id="path178"
                 style="fill:none;stroke:#237d59;stroke-width:4;stroke-linecap:butt;stroke-linejoin:miter;stroke-miterlimit:10;stroke-dasharray:none;stroke-opacity:1"
                 d="m 345.419,175.209 -50.823,0 0,50.825 50.823,0 0,-50.825 z" /><path
                 id="path180"
                 style="fill:none;stroke:#237d59;stroke-width:4;stroke-linecap:butt;stroke-linejoin:miter;stroke-miterlimit:10;stroke-dasharray:none;stroke-opacity:1"
                 d="m 396.247,175.209 -50.828,0 0,50.825 50.828,0 0,-50.825 z" /><path
                 id="path182"
                 style="fill:none;stroke:#237d59;stroke-width:4;stroke-linecap:butt;stroke-linejoin:miter;stroke-miterlimit:10;stroke-dasharray:none;stroke-opacity:1"
                 d="m 447.074,175.209 -50.827,0 0,50.825 50.827,0 0,-50.825 z" /><path
                 id="path184"
                 style="fill:none;stroke:#237d59;stroke-width:4;stroke-linecap:butt;stroke-linejoin:miter;stroke-miterlimit:10;stroke-dasharray:none;stroke-opacity:1"
                 d="m 497.896,175.209 -50.821,0 0,50.825 50.821,0 0,-50.825 z" /><path
                 id="path186"
                 style="fill:none;stroke:#237d59;stroke-width:4;stroke-linecap:butt;stroke-linejoin:miter;stroke-miterlimit:10;stroke-dasharray:none;stroke-opacity:1"
                 d="m 548.729,175.209 -50.833,0 0,50.825 50.833,0 0,-50.825 z" /><path
                 id="path188"
                 style="fill:none;stroke:#237d59;stroke-width:4;stroke-linecap:butt;stroke-linejoin:miter;stroke-miterlimit:10;stroke-dasharray:none;stroke-opacity:1"
                 d="m 599.549,175.209 -50.82,0 0,50.825 50.82,0 0,-50.825 z" /><path
                 id="path190"
                 style="fill:none;stroke:#237d59;stroke-width:4;stroke-linecap:butt;stroke-linejoin:miter;stroke-miterlimit:10;stroke-dasharray:none;stroke-opacity:1"
                 d="m 91.293,124.383 -50.825,0 0,50.826 50.825,0 0,-50.826 z" /><g
                 id="g192"
                 transform="translate(142.1162,175.209)"><path
                   id="path194"
                   style="fill:none;stroke:#237d59;stroke-width:4;stroke-linecap:butt;stroke-linejoin:miter;stroke-miterlimit:10;stroke-dasharray:none;stroke-opacity:1"
                   d="m 0,0 0,-50.827 -50.823,10e-4 0,50.826 L 0,0 Z" /></g><path
                 id="path196"
                 style="fill:none;stroke:#237d59;stroke-width:4;stroke-linecap:butt;stroke-linejoin:miter;stroke-miterlimit:10;stroke-dasharray:none;stroke-opacity:1"
                 d="m 192.942,124.382 -50.826,0 0,50.827 50.826,0 0,-50.827 z" /><path
                 id="path198"
                 style="fill:none;stroke:#237d59;stroke-width:4;stroke-linecap:butt;stroke-linejoin:miter;stroke-miterlimit:10;stroke-dasharray:none;stroke-opacity:1"
                 d="m 243.767,124.382 -50.824,0 0,50.827 50.824,0 0,-50.827 z" /><path
                 id="path200"
                 style="fill:none;stroke:#237d59;stroke-width:4;stroke-linecap:butt;stroke-linejoin:miter;stroke-miterlimit:10;stroke-dasharray:none;stroke-opacity:1"
                 d="m 294.596,124.382 -50.829,0 0,50.827 50.829,0 0,-50.827 z" /><path
                 id="path202"
                 style="fill:none;stroke:#237d59;stroke-width:4;stroke-linecap:butt;stroke-linejoin:miter;stroke-miterlimit:10;stroke-dasharray:none;stroke-opacity:1"
                 d="m 345.419,124.382 -50.823,0 0,50.827 50.823,0 0,-50.827 z" /><path
                 id="path204"
                 style="fill:none;stroke:#237d59;stroke-width:4;stroke-linecap:butt;stroke-linejoin:miter;stroke-miterlimit:10;stroke-dasharray:none;stroke-opacity:1"
                 d="m 396.247,124.382 -50.828,0 0,50.827 50.828,0 0,-50.827 z" /><path
                 id="path206"
                 style="fill:none;stroke:#237d59;stroke-width:4;stroke-linecap:butt;stroke-linejoin:miter;stroke-miterlimit:10;stroke-dasharray:none;stroke-opacity:1"
                 d="m 447.074,124.382 -50.827,0 0,50.827 50.827,0 0,-50.827 z" /><path
                 id="path208"
                 style="fill:none;stroke:#237d59;stroke-width:4;stroke-linecap:butt;stroke-linejoin:miter;stroke-miterlimit:10;stroke-dasharray:none;stroke-opacity:1"
                 d="m 497.896,124.382 -50.821,0 0,50.827 50.821,0 0,-50.827 z" /><path
                 id="path210"
                 style="fill:none;stroke:#237d59;stroke-width:4;stroke-linecap:butt;stroke-linejoin:miter;stroke-miterlimit:10;stroke-dasharray:none;stroke-opacity:1"
                 d="m 548.729,124.382 -50.833,0 0,50.827 50.833,0 0,-50.827 z" /><path
                 id="path212"
                 style="fill:none;stroke:#237d59;stroke-width:4;stroke-linecap:butt;stroke-linejoin:miter;stroke-miterlimit:10;stroke-dasharray:none;stroke-opacity:1"
                 d="m 599.549,124.382 -50.82,0 0,50.827 50.82,0 0,-50.827 z" /><path
                 id="path214"
                 style="fill:none;stroke:#237d59;stroke-width:4;stroke-linecap:butt;stroke-linejoin:miter;stroke-miterlimit:10;stroke-dasharray:none;stroke-opacity:1"
                 d="m 91.293,73.558 -50.825,0 0,50.825 50.825,0 0,-50.825 z" /><g
                 id="g216"
                 transform="translate(142.1162,124.3818)"><path
                   id="path218"
                   style="fill:none;stroke:#237d59;stroke-width:4;stroke-linecap:butt;stroke-linejoin:miter;stroke-miterlimit:10;stroke-dasharray:none;stroke-opacity:1"
                   d="m 0,0 0,-50.824 -50.823,0 0,50.825 L 0,0 Z" /></g><path
                 id="path220"
                 style="fill:none;stroke:#237d59;stroke-width:4;stroke-linecap:butt;stroke-linejoin:miter;stroke-miterlimit:10;stroke-dasharray:none;stroke-opacity:1"
                 d="m 192.942,73.558 -50.826,0 0,50.824 50.826,0 0,-50.824 z" /><path
                 id="path222"
                 style="fill:none;stroke:#237d59;stroke-width:4;stroke-linecap:butt;stroke-linejoin:miter;stroke-miterlimit:10;stroke-dasharray:none;stroke-opacity:1"
                 d="m 243.767,73.558 -50.824,0 0,50.824 50.824,0 0,-50.824 z" /><path
                 id="path224"
                 style="fill:none;stroke:#237d59;stroke-width:4;stroke-linecap:butt;stroke-linejoin:miter;stroke-miterlimit:10;stroke-dasharray:none;stroke-opacity:1"
                 d="m 294.596,73.558 -50.829,0 0,50.824 50.829,0 0,-50.824 z" /><path
                 id="path226"
                 style="fill:none;stroke:#237d59;stroke-width:4;stroke-linecap:butt;stroke-linejoin:miter;stroke-miterlimit:10;stroke-dasharray:none;stroke-opacity:1"
                 d="m 345.419,73.558 -50.823,0 0,50.824 50.823,0 0,-50.824 z" /><path
                 id="path228"
                 style="fill:none;stroke:#237d59;stroke-width:4;stroke-linecap:butt;stroke-linejoin:miter;stroke-miterlimit:10;stroke-dasharray:none;stroke-opacity:1"
                 d="m 396.247,73.558 -50.828,0 0,50.824 50.828,0 0,-50.824 z" /><path
                 id="path230"
                 style="fill:none;stroke:#237d59;stroke-width:4;stroke-linecap:butt;stroke-linejoin:miter;stroke-miterlimit:10;stroke-dasharray:none;stroke-opacity:1"
                 d="m 447.074,73.558 -50.827,0 0,50.824 50.827,0 0,-50.824 z" /><path
                 id="path232"
                 style="fill:none;stroke:#237d59;stroke-width:4;stroke-linecap:butt;stroke-linejoin:miter;stroke-miterlimit:10;stroke-dasharray:none;stroke-opacity:1"
                 d="m 497.896,73.558 -50.821,0 0,50.824 50.821,0 0,-50.824 z" /><path
                 id="path234"
                 style="fill:none;stroke:#237d59;stroke-width:4;stroke-linecap:butt;stroke-linejoin:miter;stroke-miterlimit:10;stroke-dasharray:none;stroke-opacity:1"
                 d="m 548.729,73.558 -50.833,0 0,50.824 50.833,0 0,-50.824 z" /><path
                 id="path236"
                 style="fill:none;stroke:#237d59;stroke-width:4;stroke-linecap:butt;stroke-linejoin:miter;stroke-miterlimit:10;stroke-dasharray:none;stroke-opacity:1"
                 d="m 599.549,73.558 -50.82,0 0,50.824 50.82,0 0,-50.824 z" /></g></g></g><path
           id="path238"
           style="fill:none;stroke:#237d59;stroke-width:4;stroke-linecap:butt;stroke-linejoin:miter;stroke-miterlimit:10;stroke-dasharray:none;stroke-opacity:1"
           d="m 314.378,146.61 -153.775,0 0,115.334 153.775,0 0,-115.334 z" /><g
           transform="translate(141.3789,261.9443)"
           id="g240"><path
             id="path242"
             style="fill:none;stroke:#237d59;stroke-width:4;stroke-linecap:butt;stroke-linejoin:miter;stroke-miterlimit:10;stroke-dasharray:none;stroke-opacity:1"
             d="M 0,0 192.224,0 96.112,96.111 0,0 Z" /></g><g
           transform="translate(141.3789,377.2778)"
           id="g244"><path
             id="path246"
             style="fill:none;stroke:#237d59;stroke-width:4;stroke-linecap:butt;stroke-linejoin:miter;stroke-miterlimit:10;stroke-dasharray:none;stroke-opacity:1"
             d="M 0,0 192.224,0" /></g><g
           transform="translate(372.0479,300.3896)"
           id="g248"><path
             id="path250"
             style="fill:none;stroke:#237d59;stroke-width:4;stroke-linecap:butt;stroke-linejoin:miter;stroke-miterlimit:10;stroke-dasharray:none;stroke-opacity:1"
             d="M 0,0 0,-153.779" /></g><g
           transform="translate(318.8437,393.9795)"
           id="g252"><path
             id="path254"
             style="fill:none;stroke:#237d59;stroke-width:4;stroke-linecap:butt;stroke-linejoin:miter;stroke-miterlimit:10;stroke-dasharray:none;stroke-opacity:1"
             d="M 0,0 16.702,-16.702 0,-33.405" /></g><g
           transform="translate(157.1729,393.9795)"
           id="g256"><path
             id="path258"
             style="fill:none;stroke:#237d59;stroke-width:4;stroke-linecap:butt;stroke-linejoin:miter;stroke-miterlimit:10;stroke-dasharray:none;stroke-opacity:1"
             d="M 0,0 -16.702,-16.702 0,-33.406" /></g><g
           transform="translate(388.75,286.1895)"
           id="g260"><path
             id="path262"
             style="fill:none;stroke:#237d59;stroke-width:4;stroke-linecap:butt;stroke-linejoin:miter;stroke-miterlimit:10;stroke-dasharray:none;stroke-opacity:1"
             d="M 0,0 -16.702,16.702 -33.405,0" /></g><g
           transform="translate(388.75,159.6074)"
           id="g264"><path
             id="path266"
             style="fill:none;stroke:#237d59;stroke-width:4;stroke-linecap:butt;stroke-linejoin:miter;stroke-miterlimit:10;stroke-dasharray:none;stroke-opacity:1"
             d="M 0,0 -16.702,-16.702 -33.405,0" /></g><path
           id="path268"
           style="fill:none;stroke:#237d59;stroke-width:4;stroke-linecap:butt;stroke-linejoin:miter;stroke-miterlimit:10;stroke-dasharray:none;stroke-opacity:1"
           d="m 218.271,185.054 -38.447,0 0,38.444 38.447,0 0,-38.444 z" /><path
           id="path270"
           style="fill:none;stroke:#237d59;stroke-width:4;stroke-linecap:butt;stroke-linejoin:miter;stroke-miterlimit:10;stroke-dasharray:none;stroke-opacity:1"
           d="m 295.159,185.054 -38.445,0 0,38.444 38.445,0 0,-38.444 z" /><path
           id="path272"
           style="fill:none;stroke:#237d59;stroke-width:4;stroke-linecap:butt;stroke-linejoin:miter;stroke-miterlimit:10;stroke-dasharray:none;stroke-opacity:1"
           d="m 448.936,338.833 -38.442,0 0,38.445 38.442,0 0,-38.445 z" /><path
           id="path274"
           style="fill:none;stroke:#237d59;stroke-width:4;stroke-linecap:butt;stroke-linejoin:miter;stroke-miterlimit:10;stroke-dasharray:none;stroke-opacity:1"
           d="m 487.382,338.833 -38.446,0 0,38.445 38.446,0 0,-38.445 z" /><path
           id="path276"
           style="fill:none;stroke:#237d59;stroke-width:4;stroke-linecap:butt;stroke-linejoin:miter;stroke-miterlimit:10;stroke-dasharray:none;stroke-opacity:1"
           d="m 448.936,300.39 -38.442,0 0,38.443 38.442,0 0,-38.443 z" /></g></g><g
       id="g278"><g
         clip-path="url(#clipPath282)"
         id="g280"><g
           transform="translate(356.8799,213.2051)"
           id="g286"><path
             id="path288"
             style="fill:#4eb26e;fill-opacity:1;fill-rule:nonzero;stroke:none"
             d="m 0,0 c 0,-10.406 -5.663,-18.852 -12.65,-18.852 l -224.758,0 c -6.987,0 -12.651,8.446 -12.651,18.854 0,10.405 5.664,18.842 12.651,18.842 l 224.758,0 C -5.663,18.844 0,10.407 0,0" /></g><g
           transform="translate(271.8945,343.916)"
           id="g290"><path
             id="path292"
             style="fill:#91c6a5;fill-opacity:1;fill-rule:nonzero;stroke:none"
             d="m 0,0 c 0.262,-11.708 -11.835,-26.033 -17.208,-40.711 -7.116,-19.434 -12.396,-39.854 -12.396,-60.452 l -4.51,0 c 0.048,20.741 5.102,41.85 12.106,61.411 5.068,14.17 27.101,37.866 11.5,48.467 -7.919,5.381 -20.208,9.173 -30.128,9.382 -0.452,0.026 -0.934,-0.005 -1.397,0 -0.457,-0.005 -0.942,0.026 -1.386,0.005 l -0.005,-0.005 c -9.921,-0.209 -22.208,-4.001 -30.126,-9.382 -15.603,-10.601 6.431,-34.297 11.498,-48.467 7,-19.561 12.056,-40.67 12.107,-61.411 l -4.393,0 c 0,20.598 -5.421,40.964 -12.394,60.452 -4.586,12.82 -18.097,28.739 -17.21,40.711 -39.513,-19.33 -66.8,-64.49 -69,-121.366 l 221.822,0 C 66.683,-64.49 39.517,-19.33 0,0" /></g><g
           transform="translate(231.2588,362.0127)"
           id="g294"><path
             id="path296"
             style="fill:#4eb26e;fill-opacity:1;fill-rule:nonzero;stroke:none"
             d="m 0,0 c 0,0 -35.776,2.022 -46.776,-19.978 0,0 -5.5,-15 15,-30.5 0,0 21.074,-70.782 19,-89.5 l 23.5,1 c 0,0 8.5,70 18.5,89 0,0 34,27 -5,45 0,0 -14.448,6.956 -24.224,4.978" /></g></g></g></g></svg>