<?xml version="1.0" encoding="iso-8859-1"?>
<!-- Generator: Adobe Illustrator 19.0.0, SVG Export Plug-In . SVG Version: 6.00 Build 0)  -->
<svg version="1.1" id="Layer_1" xmlns="http://www.w3.org/2000/svg" xmlns:xlink="http://www.w3.org/1999/xlink" x="0px" y="0px"
	 viewBox="0 0 336.67 336.67" style="enable-background:new 0 0 336.67 336.67;" xml:space="preserve">
<g id="XMLID_476_">
	<path id="XMLID_35_" style="fill:#2B7B57;" d="M86.926,95.849c-44.961,44.961-44.961,117.858,0,162.819s117.858,44.961,162.819,0
		s44.961-117.858,0-162.819l31.311-31.311c62.254,62.254,62.254,163.188,0,225.442s-163.188,62.254-225.442,0
		s-62.254-163.188,0-225.442"/>
	<path id="XMLID_32_" style="fill:#49B86E;" d="M120.959,109.735c-25.026,25.026-68.012,25.156-89.266,23.426
		c-7.568-0.616-13.56-6.607-14.176-14.176c-1.73-21.254-1.6-64.24,23.426-89.266s68.012-25.156,89.266-23.426
		c7.568,0.616,13.56,6.607,14.176,14.176C146.115,41.722,145.985,84.709,120.959,109.735z"/>
	<g id="XMLID_477_">
		<g id="XMLID_479_">
			<g id="XMLID_481_">
				<path id="XMLID_18_" style="fill:#49B86E;" d="M232.241,73.492l-24.877,24.877l-29.166-29.166c-6.87-6.87-6.87-18.007,0-24.877
					l0,0c6.87-6.87,18.007-6.87,24.877,0L232.241,73.492z"/>
			</g>
			<g id="XMLID_482_">
				<path id="XMLID_16_" style="fill:#49B86E;" d="M271.414,34.319l-24.877,24.877L217.371,30.03c-6.87-6.87-6.87-18.007,0-24.877
					l0,0c6.87-6.87,18.007-6.87,24.877,0L271.414,34.319z"/>
			</g>
		</g>
		<path id="XMLID_6_" style="fill:#49B86E;" d="M317.448,87.508l-56.895,56.895c-6.24,6.24-16.357,6.24-22.596,0l-30.017-30.017
			c-6.24-6.24-6.24-16.357,0-22.596l56.895-56.895c6.24-6.24,16.357-6.24,22.596,0l30.017,30.017
			C323.687,71.151,323.687,81.268,317.448,87.508z"/>
	</g>
</g>
<g>
</g>
<g>
</g>
<g>
</g>
<g>
</g>
<g>
</g>
<g>
</g>
<g>
</g>
<g>
</g>
<g>
</g>
<g>
</g>
<g>
</g>
<g>
</g>
<g>
</g>
<g>
</g>
<g>
</g>
</svg>
