<?xml version="1.0" encoding="UTF-8" standalone="no"?>
<!-- Generator: Adobe Illustrator 19.0.0, SVG Export Plug-In . SVG Version: 6.00 Build 0)  -->

<svg
   xmlns:dc="http://purl.org/dc/elements/1.1/"
   xmlns:cc="http://creativecommons.org/ns#"
   xmlns:rdf="http://www.w3.org/1999/02/22-rdf-syntax-ns#"
   xmlns:svg="http://www.w3.org/2000/svg"
   xmlns="http://www.w3.org/2000/svg"
   xmlns:sodipodi="http://sodipodi.sourceforge.net/DTD/sodipodi-0.dtd"
   xmlns:inkscape="http://www.inkscape.org/namespaces/inkscape"
   version="1.1"
   id="Layer_1"
   x="0px"
   y="0px"
   viewBox="0 0 350.162 350.162"
   style="enable-background:new 0 0 350.162 350.162;"
   xml:space="preserve"
   inkscape:version="0.91 r13725"
   sodipodi:docname="gestionAmbiental.svg"><metadata
     id="metadata44"><rdf:RDF><cc:Work
         rdf:about=""><dc:format>image/svg+xml</dc:format><dc:type
           rdf:resource="http://purl.org/dc/dcmitype/StillImage" /></cc:Work></rdf:RDF></metadata><defs
     id="defs42"><clipPath
       clipPathUnits="userSpaceOnUse"
       id="clipPath5820"><path
         d="m 0,566.93 566.93,0 L 566.93,0 0,0 0,566.93 Z"
         id="path5822"
         inkscape:connector-curvature="0" /></clipPath></defs><sodipodi:namedview
     pagecolor="#ffffff"
     bordercolor="#666666"
     borderopacity="1"
     objecttolerance="10"
     gridtolerance="10"
     guidetolerance="10"
     inkscape:pageopacity="0"
     inkscape:pageshadow="2"
     inkscape:window-width="1360"
     inkscape:window-height="704"
     id="namedview40"
     showgrid="false"
     inkscape:zoom="0.95314287"
     inkscape:cx="296.233"
     inkscape:cy="236.64276"
     inkscape:window-x="0"
     inkscape:window-y="27"
     inkscape:window-maximized="1"
     inkscape:current-layer="Layer_1" /><g
     id="g10" /><g
     id="g12" /><g
     id="g14" /><g
     id="g16" /><g
     id="g18" /><g
     id="g20" /><g
     id="g22" /><g
     id="g24" /><g
     id="g26" /><g
     id="g28" /><g
     id="g30" /><g
     id="g32" /><g
     id="g34" /><g
     id="g36" /><g
     id="g38" /><g
     id="g5808"
     transform="matrix(1.25,0,0,-1.25,128.96644,285.95838)"><path
       d="m 0,0 0.007,-0.031 0,0.043 L 0,0 Z"
       style="fill:#014347;fill-opacity:1;fill-rule:nonzero;stroke:none"
       id="path5810"
       inkscape:connector-curvature="0" /></g><g
     id="g5812"
     transform="matrix(1.25,0,0,-1.25,125.92732,100.9995)"><path
       d="m 0,0 0.344,-1.614 2.094,-0.955 0,3.4 L 0,0 Z"
       style="fill:#014347;fill-opacity:1;fill-rule:nonzero;stroke:none"
       id="path5814"
       inkscape:connector-curvature="0" /></g><path
     inkscape:connector-curvature="0"
     id="path5826"
     style="fill:#aecf32;fill-opacity:1;fill-rule:nonzero;stroke:none"
     d="m 16.744945,111.37076 c -0.31375,1.53875 -1.11125,4.0475 -1.34125,6.90125 -0.27125,2.865 -0.88,6.77875 -0.52,10.59 0.29,3.86 0.96375,8.1675 2.04375,12.8175 1.195,4.5075 3.02,8.97375 5.20625,13.71125 2.19,4.74375 5.1625,8.91 8.3825,13.335 3.28625,4.30625 7.085,8.08125 11.16,11.80375 4.13625,3.485 8.59625,6.6725 13.24,9.5025 4.7025,2.555 9.5225,5.09 14.48625,6.8 4.95625,1.79875 9.9725,3.2175 14.97625,3.985 9.94875,1.78375 19.816245,1.43 28.393755,0.0187 4.31875,-0.80375 8.30125,-1.79125 11.91625,-3.0025 3.56249,-1.14 6.79375,-2.67625 9.40624,-3.88375 1.24,-0.52625 2.40501,-1.14875 3.41375,-1.74875 -1.5825,-0.42875 -3.29,-0.90125 -5.13374,-1.4475 -9.11,-2.6825 -21.0975,-6.83875 -32.587505,-12.1625 -5.74875,-2.64625 -11.3025,-5.68 -16.38875,-8.7025 -2.45875,-1.6475 -4.85125,-3.23625 -7.1075,-4.7375 -2.15,-1.6425 -4.17625,-3.2225 -6.04375,-4.6525 -1.74375,-1.61 -3.32625,-3.075 -4.73875,-4.38125 -1.465,-1.23375 -2.445,-2.625 -3.3725,-3.6325 -1.79625,-2.065 -2.81875,-3.24125 -2.81875,-3.24125 0,0 1.11625,1.09375 3.06125,3.01125 1.00875,0.9175 2.0675,2.215 3.62,3.32875 1.49,1.17 3.1675,2.48625 4.9925,3.94 1.96875,1.27875 4.0775,2.65625 6.30375,4.115 2.32875,1.29375 4.78125,2.655 7.32625,4.065 5.2175,2.5875 10.87625,5.10125 16.707495,7.2375 11.60875,4.3275 23.62,7.44875 32.68875,9.35125 2.54625,0.55 4.8275,0.975 6.82375,1.3425 -0.6675,-1.40625 -1.435,-3.20875 -2.5525,-5.09875 -1.35875,-2.4175 -2.8825,-5.56625 -4.7725,-8.54375 -1.86125,-3.0625 -3.98875,-6.30375 -6.33374,-9.535 -2.32251,-3.2975 -4.93376,-6.4425 -7.63376,-9.6625 -2.71124,-3.21125 -5.67749,-6.18 -8.70874,-9.1125 -3.10751,-2.81875 -6.24376,-5.61875 -9.59876,-8.0625 -3.416245,-2.38875 -6.653745,-4.8475 -10.251245,-6.82625 -6.97125,-4.1525 -14.19,-7.45 -21.635,-9.84875 -3.54375,-1.31375 -7.55,-2.215 -11.18875,-3.1425 -3.61,-0.95125 -7.55625,-1.60125 -11.19,-2.31625 -3.575,-0.715 -7.16625,-1.32375 -10.65875,-1.82 -3.5975,-0.56625 -6.72875,-1.06625 -9.31625,-1.47 -2.59375,-0.55 -5.22875,-0.715 -6.81125,-0.9925 -1.76625,-0.2075 -2.7,-0.31 -2.7,-0.31 0,0 -0.3375,0.87625 -0.745,2.4775" /><path
     inkscape:connector-curvature="0"
     id="path5830"
     style="fill:#90ad3a;fill-opacity:1;fill-rule:nonzero;stroke:none"
     d="m 112.93757,213.86838 c -2.63375,5.7475 -5.67625,11.31375 -8.70125,16.38875 -1.63125,2.46375 -3.22625,4.84875 -4.72625,7.11 -1.66,2.15125 -3.22625,4.175 -4.6625,6.055 -1.6,1.735 -3.08375,3.3175 -4.38375,4.72875 -1.235,1.4725 -2.6225,2.43375 -3.6275,3.36875 -2.06125,1.80125 -3.24875,2.8225 -3.24875,2.8225 0,0 1.0975,-1.12125 3.02,-3.07125 0.915,-0.99875 2.2025,-2.05875 3.32,-3.62125 1.17375,-1.48375 2.49875,-3.15375 3.94,-4.9925 1.27625,-1.95 2.65875,-4.065 4.11125,-6.29875 1.3,-2.32375 2.665,-4.785 4.07125,-7.32375 2.57,-5.22 5.10375,-10.87625 7.2375,-16.7025 0.90375,-2.41125 1.6475,-4.82625 2.41,-7.23875 -11.86875,1.41625 -23.945,1.12375 -35.1925,-0.56625 -2.29875,2.56375 -4.55,5.14 -6.5475,7.88875 -2.3925,3.4225 -4.85,6.65 -6.82375,10.26125 -4.14625,6.965 -7.44375,14.18875 -9.855,21.63125 -1.31,3.5375 -2.20875,7.54875 -3.13,11.18125 -0.9575,3.615 -1.6125,7.55625 -2.31,11.18625 -0.715,3.57625 -1.335,7.1725 -1.82,10.65875 -0.5725,3.60375 -1.07625,6.72875 -1.4775,9.32 -0.5425,2.5925 -0.715,5.22625 -0.99875,6.81125 -0.2,1.7575 -0.30625,2.6975 -0.30625,2.6975 0,0 0.8925,0.35125 2.4875,0.75375 1.535,0.3225 4.035,1.11125 6.90625,1.34375 2.8475,0.27 6.765,0.88625 10.575,0.51 3.875,-0.28875 8.18875,-0.9475 12.82125,-2.03875 4.5125,-1.19625 8.9725,-3 13.7225,-5.2 4.7325,-2.2 8.90375,-5.16375 13.34,-8.37875 4.29,-3.29125 8.05875,-7.0825 11.8,-11.1725 3.485,-4.1325 6.67375,-8.59625 9.49875,-13.2375 2.56375,-4.69625 5.08125,-9.52375 6.795,-14.49625 1.80125,-4.93875 3.225,-9.96125 3.9925,-14.96625 1.7975,-9.95625 1.43625,-19.8025 0.025,-28.39375 -0.0713,-0.35875 -0.15375,-0.665 -0.2375,-1.00875 -5.825,2.005 -11.88625,3.4525 -18.0425,4.45375 -1.2525,3.16625 -2.49375,6.3425 -3.9825,9.53625" /><path
     inkscape:connector-curvature="0"
     id="path5834"
     style="fill:#90ad3a;fill-opacity:1;fill-rule:nonzero;stroke:none"
     d="m 262.91069,233.67788 -11.07625,-22.63375 6.6,24.77625 50.19875,-0.085 13.22125,0 -18.515,-47.30375 c -1.17625,-4.46375 -4.9575,-8.96625 -10.77625,-8.96625 -1.89625,0 -3.835,0.49625 -5.52375,1.37125 l -40.46875,18.695 c -2.08625,0.88625 -6.41125,2.755 -7.9,7.17125 -0.63125,1.89 -0.93375,4.94125 1.0225,8.335 l 10.45625,21.63125 16.9625,-0.93375 c -1.1475,-0.265 -3.185,-1.2275 -4.20125,-2.0575" /><path
     inkscape:connector-curvature="0"
     id="path5838"
     style="fill:#aecf32;fill-opacity:1;fill-rule:nonzero;stroke:none"
     d="m 325.5767,244.97676 -0.17125,-0.44375 c -0.32375,-1.41375 -0.78,-2.625 -1.43,-3.63625 l -2.02,-5.16125 -13.2225,0 0.0362,0.0712 -41.1675,0 c -0.1125,-0.0125 -0.24125,-0.0387 -0.385,-0.0712 l -16.82375,0.79125 -32.94375,0.1 0,-18.6175 c 0,-7.7 -5.11625,-9.73875 -8.12875,-9.73875 -4.02375,0 -7.4625,2.9925 -9.08125,4.71625 l -53.165,54.6725 c -0.6675,0.58125 -4.0175,3.6975 -4.20625,8.47 -0.0775,2.1 0.455,5.26625 3.4325,8.25875 5.26375,5.25125 55.26875,53.6525 55.26875,53.6525 1.28125,1.30375 4.72,4.30625 8.82125,4.30625 0.88625,0 8.6725,-0.295 8.6725,-10.925 l 0,-16.72875 81.245,0 c 0.845,0 3.0725,-0.15375 5.235,-1.6225 1.5825,-1.085 4.265,-3.645 4.25375,-8.32125 0.2775,-2.19625 3.87,-13.68875 6.7525,-22.92 5.3,-16.945 7.92875,-25.7175 8.90875,-30.505 l 0.11875,-0.0238 0,-0.70375 c 0.20625,-1.19375 0.34875,-2.185 0.34875,-2.8925 -0.006,-0.80625 -0.24875,-1.4 -0.34875,-2.1025 l 0,-0.625 z" /><path
     inkscape:connector-curvature="0"
     id="path5842"
     style="fill:#90ad3a;fill-opacity:1;fill-rule:nonzero;stroke:none"
     d="m 106.72295,76.803505 c -0.7325,0.69125 -4.2775,4.46625 -3.7925,9.68375 0.23625,2.33875 1.37125,5.68625 5.25125,8.23 l 36.3525,25.831245 c 2.37375,1.8025 5.05125,3.45375 8.3475,3.45375 2.06125,0 5.925,-0.7125 8.51875,-5.2225 l 13.1875,-19.439995 -36.3875,-62.7975 -31.4775,40.26125 z" /><path
     inkscape:connector-curvature="0"
     id="path5846"
     style="fill:#aecf32;fill-opacity:1;fill-rule:nonzero;stroke:none"
     d="m 285.34357,79.533005 c -2.73,-3.60375 -7.63875,-4.34 -13.18,-1.1575 l -14.51,8.31875 -40.2625,-70.29125 c -1.17625,-2.2675 -4.065,-4.905 -8.23625,-4.905 -1.855,0 -3.73875,0.54125 -5.1875,1.395 -2.055,0.83875 -13.705,3.41625 -23.0875,5.49 -23.195,5.115 -31.41875,7.125 -34.45,8.875 -3.0775,1.75625 -4.57875,3.78875 -5.37625,5.62875 l -2.85375,3.655 36.38875,62.7975 0.1875,-0.28625 15.94625,27.811255 -16.17125,9.26124 c -5.38,3.06625 -5.67625,6.9975 -5.39875,9.08625 0.7925,5.6275 7.03625,7.72125 9.60125,8.34126 l 73.84875,18.94999 c 0.46,0.1625 2.115,0.70376 4.225,0.70376 5.1925,0 9.28,-3.1875 10.6925,-8.35125 1.9375,-7.17 19.12375,-74.600005 19.12375,-74.600005 0.54375,-1.99625 1.5125,-7.0475 -1.3,-10.7225" /></svg>